<?xml version="1.0" standalone="no"?>
<!DOCTYPE svg PUBLIC "-//W3C//DTD SVG 20010904//EN"
 "http://www.w3.org/TR/2001/REC-SVG-20010904/DTD/svg10.dtd">
<svg version="1.0" xmlns="http://www.w3.org/2000/svg"
 width="512.000000pt" height="512.000000pt" viewBox="0 0 512.000000 512.000000"
 preserveAspectRatio="xMidYMid meet">
<metadata>
Created by potrace 1.14, written by Peter Selinger 2001-2017
</metadata>
<g transform="translate(0.000000,512.000000) scale(0.100000,-0.100000)"
fill="#000000" stroke="none">
<path d="M2597 4933 c-3 -2 -119 -6 -258 -8 -140 -2 -264 -6 -275 -8 -12 -3
-46 -6 -75 -8 -30 -1 -58 -5 -64 -9 -34 -23 -156 -56 -240 -66 -69 -8 -72 -9
-140 -24 -33 -7 -64 -17 -70 -21 -5 -4 -28 -10 -50 -14 -92 -17 -336 -169
-474 -295 -15 -14 -70 -63 -121 -110 -115 -104 -148 -137 -180 -177 -14 -17
-49 -60 -78 -95 -54 -65 -59 -71 -79 -104 -25 -39 -122 -241 -148 -309 -15
-38 -34 -81 -42 -93 -18 -30 -55 -139 -57 -172 -3 -35 -27 -111 -44 -137 -8
-13 -12 -23 -8 -23 3 0 -4 -24 -15 -52 -11 -29 -20 -54 -19 -56 1 -1 -1 -19
-4 -40 -3 -20 -8 -64 -11 -97 -4 -32 -8 -62 -11 -66 -2 -4 -11 -40 -18 -81
-20 -98 -13 -313 13 -422 20 -81 28 -141 37 -246 2 -30 6 -66 9 -80 2 -14 7
-38 10 -55 7 -32 39 -131 60 -180 7 -16 34 -84 61 -150 68 -171 170 -373 204
-405 7 -7 37 -62 68 -125 37 -77 126 -192 221 -284 100 -97 145 -132 336 -258
77 -51 145 -96 150 -100 115 -90 434 -238 632 -292 40 -11 77 -22 83 -26 5 -3
22 -8 37 -10 16 -2 66 -13 113 -24 47 -11 99 -22 115 -24 17 -3 57 -10 90 -15
187 -33 232 -35 340 -13 129 25 158 29 296 36 224 11 255 16 444 67 131 35
218 69 300 116 59 35 178 113 202 132 7 6 15 10 19 10 10 0 231 147 299 199
95 72 271 258 330 348 55 84 108 189 121 238 5 23 74 193 92 230 11 22 28 67
37 100 9 33 25 92 36 130 11 39 21 77 23 85 2 8 9 33 15 55 14 54 22 108 36
255 12 115 18 166 21 171 13 22 18 137 17 364 -3 422 -6 507 -19 551 -7 23
-15 66 -19 95 -9 77 -43 208 -86 331 -49 142 -134 265 -289 421 -65 64 -123
117 -130 117 -12 0 -100 62 -144 102 -42 38 -146 104 -231 148 -49 26 -117 61
-149 79 -152 83 -306 161 -356 181 -30 12 -68 27 -85 34 -52 23 -378 126 -430
136 -89 18 -100 21 -133 31 -32 11 -306 21 -315 12z"/>
</g>
</svg>
