<?xml version="1.0" standalone="no"?>
<!DOCTYPE svg PUBLIC "-//W3C//DTD SVG 20010904//EN"
 "http://www.w3.org/TR/2001/REC-SVG-20010904/DTD/svg10.dtd">
<svg version="1.0" xmlns="http://www.w3.org/2000/svg"
 width="512.000000pt" height="512.000000pt" viewBox="0 0 512.000000 512.000000"
 preserveAspectRatio="xMidYMid meet">
<metadata>
Created by potrace 1.14, written by Peter Selinger 2001-2017
</metadata>
<g transform="translate(0.000000,512.000000) scale(0.100000,-0.100000)"
fill="#000000" stroke="none">
<path d="M2607 4934 c-3 -4 -86 -6 -184 -5 -279 1 -448 -15 -568 -54 -55 -19
-139 -38 -186 -44 -47 -6 -110 -18 -140 -27 -30 -8 -81 -22 -113 -30 -33 -8
-70 -24 -84 -35 -14 -10 -28 -19 -33 -19 -17 0 -161 -90 -240 -151 -75 -57
-120 -96 -314 -279 -164 -153 -279 -318 -361 -515 -25 -60 -60 -141 -78 -180
-37 -77 -52 -120 -61 -180 -8 -44 -25 -104 -36 -120 -17 -26 -51 -161 -63
-255 -8 -58 -22 -139 -31 -180 -21 -94 -13 -295 16 -419 10 -46 26 -145 34
-220 8 -75 22 -163 31 -195 37 -139 218 -555 282 -648 16 -24 54 -89 85 -146
70 -129 162 -247 265 -340 108 -98 239 -192 495 -354 288 -182 589 -290 1012
-363 228 -39 251 -40 361 -16 110 23 281 41 392 41 75 0 167 15 307 51 194 49
296 94 457 200 53 35 143 93 200 129 167 105 266 184 383 308 136 143 202 243
261 397 26 66 66 165 89 220 73 174 131 409 160 654 14 117 28 218 32 225 4 6
7 184 5 396 -2 339 -5 398 -23 495 -62 331 -104 454 -208 605 -74 108 -261
306 -306 325 -17 8 -60 37 -95 65 -104 83 -210 155 -275 187 -33 16 -137 71
-232 122 -216 116 -308 156 -535 232 -177 59 -347 103 -458 119 -67 10 -234
12 -243 4z m170 -309 c90 -10 170 -26 228 -44 50 -16 117 -37 150 -46 160 -43
409 -133 523 -187 190 -91 421 -234 569 -352 192 -153 267 -250 408 -530 91
-181 115 -258 147 -467 16 -110 18 -150 10 -173 -6 -17 -14 -92 -17 -166 -11
-219 -53 -460 -101 -579 -103 -257 -205 -442 -378 -681 -49 -69 -112 -158
-139 -198 -63 -92 -270 -318 -350 -382 -73 -58 -255 -160 -378 -212 -153 -64
-364 -128 -472 -142 -258 -35 -603 -28 -802 16 -167 37 -210 47 -235 53 -208
57 -418 148 -540 233 -36 25 -105 74 -155 109 -187 131 -368 305 -521 499 -65
83 -199 323 -261 469 -54 126 -128 429 -153 626 -6 48 -11 172 -11 275 -1 176
2 198 30 319 32 141 67 243 143 430 27 66 54 134 60 150 40 112 435 498 673
656 256 170 467 253 835 328 77 15 582 13 737 -4z m198 -4274 c-18 -31 -249
-51 -275 -25 -11 11 59 19 258 32 13 1 21 -2 17 -7z"/>
<path d="M1914 3842 c-17 -20 -39 -57 -50 -82 -78 -186 -155 -302 -187 -283
-7 3 -52 35 -102 70 -143 102 -225 152 -267 165 -34 10 -40 9 -53 -8 -8 -10
-18 -31 -24 -45 -13 -36 24 -88 88 -122 25 -14 73 -49 106 -78 33 -29 83 -67
112 -86 42 -26 53 -40 57 -66 3 -17 10 -68 16 -112 11 -74 26 -144 67 -302 17
-66 36 -85 53 -53 8 15 17 18 40 13 l30 -5 0 177 c0 103 5 193 11 215 9 28 9
47 1 70 -16 43 0 77 78 170 35 41 71 93 81 115 10 22 33 55 53 74 19 18 32 39
30 46 -3 7 -1 16 5 20 25 15 10 53 -34 90 -47 40 -67 55 -75 55 -3 0 -19 -17
-36 -38z"/>
<path d="M3205 3856 c-124 -39 -182 -86 -253 -203 -43 -71 -47 -94 -26 -138
29 -62 98 -107 245 -160 194 -69 189 -65 189 -127 0 -44 -5 -57 -37 -97 -78
-96 -120 -131 -156 -131 -58 0 -117 39 -174 115 -29 38 -63 75 -77 82 -24 13
-26 11 -60 -41 -20 -29 -36 -62 -36 -74 0 -23 61 -105 111 -147 19 -15 62 -42
97 -58 56 -26 71 -29 127 -25 127 11 305 134 363 252 18 36 32 78 32 94 0 38
-87 168 -165 247 -39 39 -84 72 -128 94 -75 36 -140 94 -135 119 4 23 74 60
127 67 53 7 114 -11 164 -48 30 -23 34 -23 65 -11 28 12 32 19 32 50 0 30 -8
45 -43 79 -66 66 -169 90 -262 61z"/>
<path d="M4324 3132 c-12 -30 -13 -45 -3 -91 7 -32 13 -144 13 -261 1 -189 -1
-215 -27 -335 -43 -199 -74 -297 -153 -489 -14 -32 -47 -91 -74 -129 -28 -39
-50 -76 -50 -83 0 -7 -15 -32 -33 -56 -18 -24 -47 -63 -64 -88 -52 -75 -111
-129 -212 -195 -102 -65 -289 -153 -381 -178 -195 -53 -567 -136 -630 -141
-41 -3 -100 -10 -130 -17 -90 -19 -324 -6 -452 25 -208 51 -407 135 -564 239
-164 108 -414 426 -564 719 -28 54 -50 104 -50 113 0 8 -8 34 -19 57 -10 24
-35 111 -55 193 -31 128 -38 176 -45 328 -8 166 -10 180 -31 203 -13 13 -29
24 -36 24 -7 0 -22 -26 -34 -57 -19 -50 -22 -80 -23 -218 -2 -211 11 -259 178
-685 67 -173 95 -223 196 -356 42 -55 78 -106 80 -112 6 -16 265 -258 324
-303 72 -54 291 -161 425 -208 63 -22 174 -52 245 -66 125 -26 140 -27 370
-22 214 4 257 8 401 35 192 36 258 53 350 88 37 14 122 36 187 50 136 27 175
43 283 112 89 57 164 130 221 213 21 31 70 98 109 150 128 169 198 329 280
631 13 48 28 95 33 105 18 30 60 212 72 306 9 68 9 124 0 235 -18 219 -40 284
-97 295 -21 4 -27 -1 -40 -31z"/>
</g>
</svg>
