<svg viewBox="0 0 1070 1229" xmlns="http://www.w3.org/2000/svg" fill-rule="evenodd" clip-rule="evenodd" stroke-linejoin="round" stroke-miterlimit="2"><path d="M95.025 1217.824c-1.36-2.56 5.295 2.93 8.196 2.93 9.455 0 16.688-1.08 25.784-3.68 16.665-4.76 106.991-24.59 105.593-34.38-36.903-258.32-49.54-525.446 25.784-779.665 38.843-131.095 128.302-264.657 282.398-249.247 89.704 8.97 142.211 98.316 181.717 168.211 95.92 169.711 93.54 400.562 73.67 589.351-2.87 27.3-3.51 55.13-8.6 82.27-4.73 25.23-49.26 186.16-14.73 197.67 29.25 9.75 74.13-14.55 103.14-18.41 29.68-3.96 61.82 5.28 90.86 0 72.65-13.21 112.35-123.16 98.22-189.09-17.49-81.62-51.98-157.62-66.3-240.65-17.77-103.05-15.71-214.023-45.43-314.32-12.17-41.087-36.8-78.42-57.71-115.416-64.88-114.798-145.54-211.625-266.434-268.892-40.14-19.013-81.567-28.14-125.238-34.379-46.29-6.613-95.73-14.37-142.427-7.367C206.073 26.377 89.381 205.18 45.514 344.094-4.33 501.932-8.196 672.287 9.907 835.224c11.484 103.35 25.99 208.88 52.796 309.41 5.364 20.11 16.912 68.48 31.923 83.49.29.29.82 0 1.228 0"/><path d="M300.557 1178.984c-10.438.35 11.534.03 15.077.03 20.81 0 34.102-4.82 52.796-11.06 2.361-.78 7.367-1.22 7.367-1.22s-20.413 13.96-27.012 7.37c-.648-.65-2.456-1.23-2.456-1.23s5.14-.12 7.367-1.23c17.255-8.63 29.078-51.9 24.556-69.99-16.21-64.84-9.564-135.38-14.734-202.59-7.089-92.16-26.629-184.473-3.683-276.256 9.38-37.519 62.773-150.15 119.098-131.376 163.005 54.335 119.761 370.322 106.82 499.722-3.01 30.11-2.412 62.36-7.366 92.09-7.339 44.03-4.17 85.41 51.568 76.12 10.771-1.79 22.8 2.22 33.151-1.23 35.12-11.7 56.178-209.98 62.62-244.33 11.252-60.02 20.321-122.73 14.731-184.175-3.568-39.268-13.334-78.48-15.96-117.87-10.419-156.288-52.866-309.916-228.374-345.018-131.868-26.373-167.47 55.364-206.274 162.072-27.092 74.504-53.497 150.662-61.39 229.602-5.948 59.48 11.178 116.44 18.417 174.35 4.098 32.79 2.455 67.52 2.455 100.68 0 39.35 5.507 77.8 9.823 116.65 2.391 21.51-5.426 121.55 24.556 121.55"/><path d="M433.075 1124.014c.412.93-4.482 9.99-4.482 2.2 0-13.95-2.742-28.16-6.139-41.75-7.81-31.24-12.585-63.69-15.962-95.77-10.122-96.16-27.883-199.58-9.823-295.9 5.38-28.69 18.816-90.178 58.936-83.492 39.546 6.592 44.715 84.43 47.885 112.96 11.708 105.372 51.568 202.682 51.568 309.412 0 20.84 1.513 87.03-20.873 98.22-30.948 15.48-33.15-47.33-33.15-66.3 0-83.09 5.376-179.09-20.874-257.84-4.137-12.41-28.644-102.935-45.429-94.543-24.863 12.432 8.595 197.233 8.595 233.283 0 44.43-2.566 90.09 3.683 133.84 1.946 13.62.588 29.51-4.91 40.51-1.868 3.74-16.453 2.46-12.279 2.46"/></svg>