<svg width="100%" height="100%" viewBox="0 0 1070 1229" version="1.1" xmlns="http://www.w3.org/2000/svg" xmlns:xlink="http://www.w3.org/1999/xlink" xml:space="preserve" xmlns:serif="http://www.serif.com/" style="fill-rule:evenodd;clip-rule:evenodd;stroke-linejoin:round;stroke-miterlimit:2;">
    <g transform="matrix(1,0,0,1,-16.8919,-52.5827)">
        <g transform="matrix(1,0,0,1,-243.321,-211.093)">
            <path d="M355.238,1481.5C353.878,1478.94 360.533,1484.43 363.434,1484.43C372.889,1484.43 380.122,1483.35 389.218,1480.75C405.883,1475.99 496.209,1456.16 494.811,1446.37C457.908,1188.05 445.27,920.924 520.595,666.705C559.438,535.61 648.897,402.048 802.993,417.458C892.697,426.428 945.204,515.774 984.71,585.669C1080.63,755.38 1078.25,986.231 1058.38,1175.02C1055.51,1202.32 1054.87,1230.15 1049.78,1257.29C1045.05,1282.52 1000.52,1443.45 1035.05,1454.96C1064.3,1464.71 1109.18,1440.41 1138.19,1436.55C1167.87,1432.59 1200.01,1441.83 1229.05,1436.55C1301.7,1423.34 1341.4,1313.39 1327.27,1247.46C1309.78,1165.84 1275.29,1089.84 1260.97,1006.81C1243.2,903.759 1245.26,792.787 1215.54,692.489C1203.37,651.403 1178.74,614.07 1157.83,577.074C1092.95,462.276 1012.29,365.449 891.396,308.182C851.256,289.169 809.829,280.042 766.158,273.803C719.867,267.19 670.428,259.432 623.731,266.436C466.286,290.053 349.594,468.856 305.727,607.77C255.883,765.608 252.016,935.963 270.12,1098.9C281.604,1202.25 296.11,1307.78 322.916,1408.31C328.28,1428.42 339.828,1476.79 354.839,1491.8C355.129,1492.09 355.658,1491.8 356.067,1491.8"/>
        </g>
        <g transform="matrix(1,0,0,1,-243.321,-211.093)">
            <path d="M560.77,1442.66C550.332,1443.01 572.304,1442.69 575.847,1442.69C596.656,1442.69 609.949,1437.87 628.643,1431.63C631.004,1430.85 636.01,1430.41 636.01,1430.41C636.01,1430.41 615.597,1444.37 608.998,1437.78C608.35,1437.13 606.542,1436.55 606.542,1436.55C606.542,1436.55 611.682,1436.43 613.909,1435.32C631.164,1426.69 642.987,1383.42 638.465,1365.33C622.254,1300.49 628.901,1229.95 623.731,1162.74C616.642,1070.58 597.102,978.267 620.048,886.484C629.428,848.965 682.821,736.333 739.146,755.108C902.151,809.443 858.907,1125.43 845.966,1254.83C842.955,1284.94 843.554,1317.19 838.6,1346.92C831.261,1390.95 834.429,1432.33 890.168,1423.04C900.939,1421.25 912.968,1425.26 923.319,1421.81C958.439,1410.11 979.497,1211.83 985.938,1177.48C997.191,1117.46 1006.26,1054.75 1000.67,993.305C997.102,954.037 987.336,914.825 984.71,875.434C974.291,719.147 931.844,565.519 756.336,530.417C624.468,504.044 588.865,585.781 550.062,692.489C522.97,766.993 496.565,843.151 488.671,922.091C482.724,981.571 499.85,1038.53 507.089,1096.44C511.187,1129.23 509.544,1163.96 509.544,1197.12C509.544,1236.47 515.051,1274.92 519.367,1313.77C521.758,1335.28 513.941,1435.32 543.923,1435.32"/>
        </g>
        <g transform="matrix(1,0,0,1,-243.321,-211.093)">
            <path d="M693.288,1387.69C693.7,1388.62 688.806,1397.68 688.806,1389.89C688.806,1375.94 686.064,1361.73 682.667,1348.14C674.857,1316.9 670.082,1284.45 666.705,1252.37C656.583,1156.21 638.822,1052.79 656.882,956.47C662.262,927.78 675.698,866.292 715.818,872.978C755.364,879.57 760.533,957.408 763.703,985.938C775.411,1091.31 815.271,1188.62 815.271,1295.35C815.271,1316.19 816.784,1382.38 794.398,1393.57C763.45,1409.05 761.247,1346.24 761.247,1327.27C761.247,1244.18 766.624,1148.18 740.374,1069.43C736.237,1057.02 711.73,966.495 694.945,974.887C670.082,987.319 703.54,1172.12 703.54,1208.17C703.54,1252.6 700.974,1298.26 707.223,1342.01C709.169,1355.63 707.811,1371.52 702.312,1382.52C700.445,1386.26 685.86,1384.98 690.034,1384.98"/>
        </g>
    </g>
</svg>

