<?xml version="1.0" encoding="UTF-8" standalone="no"?>
<!DOCTYPE svg PUBLIC "-//W3C//DTD SVG 1.1//EN" "http://www.w3.org/Graphics/SVG/1.1/DTD/svg11.dtd">
<svg width="100%" height="100%" viewBox="0 0 1114 1095" version="1.1" xmlns="http://www.w3.org/2000/svg" xmlns:xlink="http://www.w3.org/1999/xlink" xml:space="preserve" xmlns:serif="http://www.serif.com/" style="fill-rule:evenodd;clip-rule:evenodd;stroke-linejoin:round;stroke-miterlimit:2;">
    <g transform="matrix(1,0,0,1,-435.807,-578.979)">
        <g transform="matrix(1,0,0,1,1.15932,18.5394)">
            <path d="M465.61,1093.94C446.282,1094.56 434.647,968.266 434.647,952.787C434.647,855.754 460.541,610.002 584.441,589.353C635.589,580.828 694.829,754.967 701.084,795.626C704.301,816.538 707.956,837.594 710.906,858.245C711.9,865.198 710.906,873.284 710.906,880.345C710.906,882.801 710.906,890.168 710.906,887.712C710.906,795.561 707.865,699.497 753.88,615.137C771.54,582.759 829.086,540.497 865.612,570.935C909.659,607.642 918.408,815.926 918.408,874.206C918.408,905.602 918.393,937.565 914.724,968.748C913.382,980.156 912.269,991.824 912.269,1003.13C912.269,1004.46 914.713,1012.96 914.724,1012.95C919.768,1007.91 931.498,923.353 933.141,914.724C945.239,851.213 1001.21,611.32 1069.43,594.264C1177.01,567.368 1170.29,786.252 1173.79,842.283C1175.36,867.27 1174.72,892.347 1177.48,917.18C1178.75,928.669 1178.7,939.963 1178.7,951.559C1178.7,952.677 1178.85,961.523 1177.48,960.153C1165.9,948.579 1177.36,899.91 1178.7,886.484C1182.81,845.479 1187.11,792.332 1205.72,755.108C1223.1,720.341 1268.56,645.632 1318.68,655.655C1403.96,672.712 1383.34,938.486 1392.35,1010.49C1393.37,1018.66 1389.23,1028.75 1391.12,1036.28C1396.25,1056.82 1482.61,998.962 1511.44,1010.49C1560.28,1030.03 1547.75,1148.35 1543.37,1192.21C1530.42,1321.68 1457.19,1481.48 1335.87,1542.14C1263.91,1578.12 1177.36,1592.76 1100.12,1613.35C979.604,1645.49 906.752,1666.91 782.12,1647.73C725.068,1638.95 648.797,1662.3 599.175,1626.86C566.186,1603.3 520.604,1565.49 502.177,1528.63C471.294,1466.87 456.748,1289.77 456.748,1216.77C456.748,1190.33 468.541,1139.93 462.887,1117.31C458.715,1100.62 448.153,1081.73 448.153,1064.52" />
        </g>
        <path d="M1350.55,1340.22C1350.64,1347.77 1354.03,1348.4 1359.19,1343.23"/>
    </g>
</svg>

