<svg width="100%" height="100%" viewBox="0 0 1233 980" version="1.1" xmlns="http://www.w3.org/2000/svg" xmlns:xlink="http://www.w3.org/1999/xlink" xml:space="preserve" xmlns:serif="http://www.serif.com/" style="fill-rule:evenodd;clip-rule:evenodd;stroke-linejoin:round;stroke-miterlimit:2;">
    <g transform="matrix(1,0,0,1,-815,0)">
        <g transform="matrix(1,0,0,1,488.556,-582.436)">
            <path d="M434.561,660.406C388.751,731.87 364.507,825.971 349.928,908.585C334.383,996.674 317.238,1105.19 346.245,1192.21C396.823,1343.95 540.931,1504.47 698.628,1548.28C782.023,1571.44 871.777,1558.43 956.47,1550.73C1040.67,1543.08 1129.26,1534.12 1208.17,1501.62C1330.04,1451.44 1470.29,1307.55 1524.95,1187.3C1562.76,1104.12 1584.78,985.626 1469.7,962.609C1465.57,961.784 1460.4,962.609 1456.19,962.609C1435.8,962.609 1363.66,999.324 1359.19,985.938C1355.47,974.767 1384.3,868.344 1375.16,822.638C1358.36,738.681 1149.85,667.164 1079.25,649.516C1018.19,634.251 952.968,639.381 891.396,626.187C775.239,601.296 641.635,565.196 524.278,600.403C507.243,605.513 416.747,642.592 434.561,660.406Z" />
        </g>
    </g>
</svg>
