<svg viewBox="0 0 1233 980" xmlns="http://www.w3.org/2000/svg" fill-rule="evenodd" clip-rule="evenodd" stroke-linejoin="round" stroke-miterlimit="2"><path d="M108.117 77.97c-45.81 71.464-70.054 165.565-84.633 248.179-15.545 88.089-32.69 196.605-3.683 283.625 50.578 151.74 194.686 312.26 352.383 356.07 83.395 23.16 173.149 10.15 257.842 2.45 84.2-7.65 172.79-16.61 251.7-49.11 121.87-50.18 262.12-194.07 316.78-314.32 37.81-83.18 59.83-201.674-55.25-224.691-4.13-.825-9.3 0-13.51 0-20.39 0-92.53 36.715-97 23.329-3.72-11.171 25.11-117.594 15.97-163.3-16.8-83.957-225.31-155.474-295.91-173.122-61.06-15.265-126.282-10.135-187.854-23.329C448.795 18.86 315.191-17.24 197.834 17.967c-17.035 5.11-107.531 42.189-89.717 60.003z"/></svg>