<?xml version="1.0" standalone="no"?>
<!DOCTYPE svg PUBLIC "-//W3C//DTD SVG 20010904//EN"
 "http://www.w3.org/TR/2001/REC-SVG-20010904/DTD/svg10.dtd">
<svg version="1.0" xmlns="http://www.w3.org/2000/svg"
 width="512.000000pt" height="512.000000pt" viewBox="0 0 512.000000 512.000000"
 preserveAspectRatio="xMidYMid meet">
<metadata>
Created by potrace 1.14, written by Peter Selinger 2001-2017
</metadata>
<g transform="translate(0.000000,512.000000) scale(0.100000,-0.100000)"
fill="#000000" stroke="none">
<path d="M2607 4934 c-3 -4 -86 -6 -184 -5 -279 1 -448 -15 -568 -54 -55 -19
-139 -38 -186 -44 -47 -6 -110 -18 -140 -27 -30 -8 -81 -22 -113 -30 -33 -8
-70 -24 -84 -35 -14 -10 -28 -19 -33 -19 -17 0 -161 -90 -240 -151 -75 -57
-120 -96 -314 -279 -164 -153 -279 -318 -361 -515 -25 -60 -60 -141 -78 -180
-37 -77 -52 -120 -61 -180 -8 -44 -25 -104 -36 -120 -17 -26 -51 -161 -63
-255 -8 -58 -22 -139 -31 -180 -21 -94 -13 -295 16 -419 10 -46 26 -145 34
-220 8 -75 22 -163 31 -195 37 -139 218 -555 282 -648 16 -24 54 -89 85 -146
70 -129 162 -247 265 -340 108 -98 239 -192 495 -354 288 -182 589 -290 1012
-363 228 -39 251 -40 361 -16 110 23 281 41 392 41 75 0 167 15 307 51 194 49
296 94 457 200 53 35 143 93 200 129 167 105 266 184 383 308 136 143 202 243
261 397 26 66 66 165 89 220 73 174 131 409 160 654 14 117 28 218 32 225 4 6
7 184 5 396 -2 339 -5 398 -23 495 -62 331 -104 454 -208 605 -74 108 -261
306 -306 325 -17 8 -60 37 -95 65 -104 83 -210 155 -275 187 -33 16 -137 71
-232 122 -216 116 -308 156 -535 232 -177 59 -347 103 -458 119 -67 10 -234
12 -243 4z"/>
</g>
</svg>
