<?xml version="1.0" encoding="UTF-8" standalone="no"?>
<!DOCTYPE svg PUBLIC "-//W3C//DTD SVG 1.1//EN" "http://www.w3.org/Graphics/SVG/1.1/DTD/svg11.dtd">
<svg width="100%" height="100%" viewBox="0 0 2100 2100" version="1.1" xmlns="http://www.w3.org/2000/svg" xmlns:xlink="http://www.w3.org/1999/xlink" xml:space="preserve" xmlns:serif="http://www.serif.com/" style="fill-rule:evenodd;clip-rule:evenodd;stroke-linejoin:round;stroke-miterlimit:2;">
    <g transform="matrix(1,0,0,1,-203.215,-176.525)">
        <path d="M399.398,1416.26C379.23,1338.43 440.218,1207.06 472.122,1136.87C607.661,838.686 816.179,675.991 1133.09,596.763C1243.54,569.151 1355.26,544.413 1469.25,561.511C1480.22,563.156 1560.82,577.223 1566.19,587.95C1566.39,588.353 1524.8,608.424 1520.86,610.612C1492.95,626.119 1463.85,649.62 1440.29,671.043C1357.12,746.653 1257.14,861.359 1246.4,979.496C1235.38,1100.73 1295.42,1209.79 1371.04,1298.02C1382.16,1310.99 1505.76,1410.17 1505.76,1412.59C1505.76,1426.39 1342.23,1503.89 1316.91,1510.79C1233.02,1533.67 1140.44,1514.96 1055.04,1527.16C937.781,1543.91 806.922,1611.3 688.669,1577.52C649.81,1566.41 622.78,1536.33 586.691,1520.86C546.192,1503.51 502.783,1492.17 464.568,1469.25C457.359,1464.92 392.806,1392.39 392.806,1401.26" style="fill:rgb(116,188,241);"/>
    </g>
    <g transform="matrix(0.946237,0,0,1.22961,220.443,9.69533)">
        <path d="M1480.03,943.552C1479.67,943.906 1480.58,939.091 1480.58,935.432C1480.58,923.816 1482.13,913.824 1484.35,902.698C1487.89,884.995 1497.05,807.695 1478.06,798.201C1456.07,787.21 1430.28,775.57 1407.55,764.209C1382.4,751.634 1347.47,763.156 1321.94,747.842C1252.05,705.908 1291.32,538.552 1330.76,485.971C1357.37,450.487 1385.51,486.511 1389.93,517.446C1398.32,576.173 1382.73,632.974 1444.07,653.417C1457.14,657.777 1468.23,656.949 1478.06,647.122C1525.2,599.983 1489.54,410.036 1515.83,339.928C1526.81,310.654 1556.16,251.051 1597.66,259.353C1643.48,268.515 1629.77,343.05 1625.36,373.921C1617.3,430.336 1601.98,636.877 1627.88,688.669C1641.56,716.023 1691.16,684.473 1695.86,660.971C1704.35,618.549 1680.32,502.338 1751.26,502.338C1774.76,502.338 1786.73,506.386 1801.62,525C1824.99,554.217 1796.18,707.09 1778.96,741.547C1771,757.466 1753.44,773.82 1737.41,781.835C1710.74,795.168 1662.4,776.636 1642.99,805.755C1614.65,848.262 1658.3,905.542 1629.14,949.281C1622.34,959.474 1615.46,970.512 1608.99,976.978C1608.37,977.607 1603.68,976.978 1602.7,976.978C1580.35,976.978 1557.53,972.496 1533.45,984.532C1524.49,989.014 1491.7,995.236 1486.87,980.755C1477.41,952.38 1493.16,919.826 1493.16,890.108" style="fill:rgb(178,239,183);"/>
    </g>
    <g transform="matrix(1,0,0,1,98.8671,-1003.09)">
        <path d="M178.509,1191.41C173.319,1190.48 163.795,1198.5 158.633,1201.08C101.386,1229.7 92.433,1305.81 98.201,1363.49C102.383,1405.31 132.914,1433.56 158.633,1462.95C243.718,1560.19 411.848,1609.76 509.892,1499.46C541.988,1463.35 543.164,1422.31 547.662,1377.34C551.912,1334.84 553.558,1294.77 545.144,1252.7C543.091,1242.43 533.281,1235.27 528.777,1226.26C506.479,1181.66 488.679,1138.22 440.647,1114.21C426.98,1107.38 254.369,1125.49 244.245,1135.61C237.427,1142.43 241.601,1159.66 234.173,1167.09C222.2,1179.06 197.692,1170.83 182.554,1185.97" style="fill:rgb(239,251,166);"/>
    </g>
    <path d="M662.676,755.168C652.252,755.73 643.916,763.865 654.676,769.245" style="fill:rgb(116,188,241);"/>
    <path d="M712.542,1628.29C708.612,1628.96 707.189,1628.24 710.072,1625.36" style="fill:rgb(116,188,241);"/>
    <g transform="matrix(1,0,0,1,-79.7731,255.432)">
        <path d="M1250.43,1209.06C1241.79,1206.6 1242.63,1307.5 1242.63,1359.71L1242.63,1366.01C1242.63,1397.51 1249.63,1426.35 1253.96,1456.65C1257.72,1483.01 1246.25,1512.68 1252.7,1538.49C1256.45,1553.51 1269.68,1564.23 1272.84,1580.04C1275.98,1595.72 1263.43,1644.9 1275.36,1656.84C1286.87,1668.35 1340.69,1657.97 1355.93,1659.35C1391.03,1662.54 1424.79,1675.27 1460.43,1678.24C1525.19,1683.63 1589.64,1661.67 1653.06,1673.2C1699.62,1681.67 1745.82,1674.42 1791.55,1679.5C1824.36,1683.14 1886.59,1712.56 1911.15,1675.72C1945.97,1623.5 1950.13,1536.89 1941.37,1475.54C1935.71,1435.91 1916.19,1400.84 1916.19,1359.71C1916.19,1334.4 1917.07,1248.73 1892.27,1236.33C1858.26,1219.33 1813.58,1241.37 1777.7,1241.37C1684.76,1241.37 1585.43,1212.84 1493.16,1231.3C1452.07,1239.51 1418.91,1238.1 1378.6,1230.04C1370.15,1228.35 1362.38,1220.25 1354.68,1218.7C1336.85,1215.14 1319.7,1214.18 1303.06,1208.63C1286.61,1203.15 1268.1,1216.19 1253.96,1216.19C1245.66,1216.19 1243.88,1216.47 1243.88,1207.37" style="fill:rgb(169,180,188);"/>
    </g>
    <path d="M1743.31,775.676C1738.61,775.486 1739.04,780.576 1741.19,780.576" style="fill:rgb(169,180,188);"/>
    <g transform="matrix(1,0,0,1,-99.2335,263.64)">
        <path d="M1539.4,1381.75C1520.13,1395.09 1507.54,1372.69 1488.13,1405.04C1402.29,1548.11 1640.26,1646.41 1705.93,1493.16C1754.04,1380.93 1554.42,1301.57 1501.98,1423.92" style="fill:rgb(43,67,84);"/>
    </g>
    <path d="M1365.81,1187.4C1364.58,1188.66 1363.49,1189.18 1363.49,1191.01" style="fill:rgb(43,67,84);"/>
    <path d="M1365.48,1196.41C1363.64,1198.65 1363.49,1199.32 1363.49,1202.34" style="fill:rgb(43,67,84);"/>
    <g transform="matrix(1,0,0,1,-67.0643,262.995)">
        <path d="M1305.8,1210.89C1304.09,1222.45 1294.47,1154.38 1324.46,1139.39C1329.86,1136.69 1380.21,1162.41 1388.67,1170.86C1391.09,1173.29 1387.99,1190.52 1387.41,1192.27C1383.13,1205.09 1386.77,1221.86 1378.6,1230.04C1372.28,1236.35 1298.67,1229.43 1291.73,1222.48C1289.41,1220.16 1296.8,1217.97 1298.02,1214.93C1303.61,1200.95 1308.81,1188.87 1313.13,1175.9" style="fill:rgb(43,67,84);"/>
    </g>
    <g transform="matrix(1,0,0,1,-89.2154,286.718)">
        <path d="M1487.69,1233.74C1489.54,1244.75 1488.17,1199.28 1489.39,1184.71C1491.5,1159.37 1484.32,1065.74 1507.01,1060.07C1538.03,1052.32 1586.33,1064.03 1616.55,1072.66C1629.33,1076.32 1640.95,1086.1 1654.32,1087.77C1670.02,1089.73 1685.56,1087.77 1700.9,1087.77C1704.36,1087.77 1705.65,1087.21 1707.19,1090.29C1711.94,1099.78 1703.67,1247.66 1690.83,1247.66" style="fill:rgb(43,67,84);"/>
    </g>
    <g transform="matrix(-2.40557,0,0,-0.256562,5931.45,1759.08)">
        <path d="M1786.3,1244.73C1783.33,1245.91 1758.02,1205.51 1763.85,1182.19C1766.44,1171.84 1792.26,1186.11 1797.84,1187.23C1815.31,1190.72 1842.62,1174.37 1858.27,1182.19C1870.59,1188.35 1854.5,1232.55 1850.72,1236.33C1844.7,1242.35 1820.76,1242.63 1811.69,1242.63" style="fill:rgb(237,253,51);"/>
    </g>
    <g transform="matrix(1.01434,0,0,1,-351.886,278.208)">
        <path d="M1777.17,1148.57C1777.43,1149.01 1782.27,1135.92 1786.51,1121.76C1787.24,1119.32 1787.15,1116.68 1787.77,1114.21C1798.11,1072.84 1810.15,1032.94 1829.32,994.604C1829.67,993.894 1836.5,984.164 1838.13,985.791C1842.85,990.507 1834.45,1165.93 1838.13,1169.6C1840,1171.48 1844.44,1167.71 1845.68,1167.09C1861.5,1159.18 1972.65,1111.5 1982.91,1121.76C1984.51,1123.36 1971.81,1137.9 1970.32,1139.39C1948.54,1161.18 1907.81,1173.59 1878.42,1180.93C1874.53,1181.91 1818.66,1197.89 1830.58,1185.97C1846.97,1169.58 1902.24,1284.42 1922.48,1318.16C1923.27,1319.48 1932.42,1333.41 1931.3,1334.53C1929.4,1336.43 1921.68,1329.38 1919.96,1328.24C1883.13,1303.68 1851.46,1261.74 1831.84,1222.48C1829.46,1217.73 1826.8,1207.37 1826.8,1207.37L1826.8,1230.04C1826.8,1247.56 1810.15,1326.49 1794.07,1334.53C1789.87,1336.63 1791.55,1348.38 1791.55,1348.38C1791.55,1348.38 1790.29,1334.96 1790.29,1328.24C1790.29,1305.18 1819.97,1199.28 1810.43,1189.75C1808.28,1187.59 1794.06,1191.01 1787.77,1191.01C1760.45,1191.01 1727.17,1185.04 1700.9,1177.16C1677.66,1170.18 1655.68,1158.95 1634.17,1148.2C1630.82,1146.52 1624.1,1143.16 1624.1,1143.16C1624.1,1143.16 1636.56,1147.13 1642.99,1148.2C1671.15,1152.9 1800.36,1146.59 1800.36,1165.83" style="fill:rgb(237,253,51);"/>
    </g>
</svg>
