<?xml version="1.0" standalone="no"?>
<!DOCTYPE svg PUBLIC "-//W3C//DTD SVG 20010904//EN"
 "http://www.w3.org/TR/2001/REC-SVG-20010904/DTD/svg10.dtd">
<svg version="1.0" xmlns="http://www.w3.org/2000/svg"
 width="512.000000pt" height="512.000000pt" viewBox="0 0 512.000000 512.000000"
 preserveAspectRatio="xMidYMid meet">
<metadata>
Created by potrace 1.14, written by Peter Selinger 2001-2017
</metadata>
<g transform="translate(0.000000,512.000000) scale(0.100000,-0.100000)"
fill="#000000" stroke="none">
<path d="M2607 4934 c-3 -4 -86 -6 -184 -5 -279 1 -448 -15 -568 -54 -55 -19
-139 -38 -186 -44 -47 -6 -110 -18 -140 -27 -30 -8 -81 -22 -113 -30 -33 -8
-70 -24 -84 -35 -14 -10 -28 -19 -33 -19 -17 0 -161 -90 -240 -151 -75 -57
-120 -96 -314 -279 -164 -153 -279 -318 -361 -515 -25 -60 -60 -141 -78 -180
-37 -77 -52 -120 -61 -180 -8 -44 -25 -104 -36 -120 -17 -26 -51 -161 -63
-255 -8 -58 -22 -139 -31 -180 -21 -94 -13 -295 16 -419 10 -46 26 -145 34
-220 8 -75 22 -163 31 -195 37 -139 218 -555 282 -648 16 -24 54 -89 85 -146
70 -129 162 -247 265 -340 108 -98 239 -192 495 -354 288 -182 589 -290 1012
-363 228 -39 251 -40 361 -16 110 23 281 41 392 41 75 0 167 15 307 51 194 49
296 94 457 200 53 35 143 93 200 129 167 105 266 184 383 308 136 143 202 243
261 397 26 66 66 165 89 220 73 174 131 409 160 654 14 117 28 218 32 225 4 6
7 184 5 396 -2 339 -5 398 -23 495 -62 331 -104 454 -208 605 -74 108 -261
306 -306 325 -17 8 -60 37 -95 65 -104 83 -210 155 -275 187 -33 16 -137 71
-232 122 -216 116 -308 156 -535 232 -177 59 -347 103 -458 119 -67 10 -234
12 -243 4z m168 -313 c91 -11 184 -27 215 -39 30 -11 82 -27 115 -37 59 -16
308 -93 395 -122 148 -49 556 -277 690 -387 41 -34 93 -74 116 -91 116 -84
232 -249 365 -515 73 -147 99 -239 134 -470 14 -95 14 -109 0 -142 -11 -27
-15 -72 -15 -155 0 -107 -7 -164 -50 -413 -12 -71 -49 -174 -105 -300 -25 -55
-45 -102 -45 -105 0 -9 -115 -204 -174 -295 -62 -95 -174 -251 -200 -280 -7
-8 -19 -26 -26 -40 -13 -26 -84 -120 -117 -155 -10 -11 -54 -60 -97 -108 -44
-48 -107 -110 -140 -136 -67 -54 -280 -176 -366 -211 -30 -12 -66 -27 -80 -32
-14 -6 -92 -33 -175 -60 -186 -61 -311 -78 -587 -78 -232 0 -368 13 -495 46
-51 13 -104 24 -117 24 -14 0 -35 4 -48 9 -13 5 -50 17 -83 26 -184 50 -382
145 -553 265 -218 154 -309 230 -439 370 -167 178 -224 257 -320 442 -106 202
-168 358 -190 477 -2 14 -13 62 -23 106 -46 196 -55 283 -55 520 0 219 1 235
28 340 29 111 36 134 81 260 30 83 127 321 144 351 32 59 210 251 312 337 47
40 115 99 151 133 64 58 230 177 314 224 150 85 260 130 430 177 274 77 304
81 595 82 186 0 299 -5 415 -18z m160 -4286 c-47 -16 -244 -20 -229 -6 9 10
84 16 204 18 l65 1 -40 -13z"/>
<path d="M1907 3838 c-32 -41 -47 -70 -78 -148 -34 -89 -116 -210 -142 -210
-5 0 -39 21 -76 47 -100 71 -232 158 -268 176 -63 33 -101 15 -118 -53 -8 -33
41 -92 98 -122 23 -11 74 -48 114 -82 39 -33 89 -73 110 -87 l38 -25 18 -118
c27 -174 78 -379 99 -392 5 -3 18 2 28 11 11 10 26 14 38 11 11 -4 24 -1 29 6
5 7 11 76 11 153 5 408 -1 374 91 480 28 32 62 81 75 109 13 28 38 61 55 74
19 14 31 32 31 45 0 13 5 28 10 33 6 6 7 19 3 31 -9 24 -101 103 -120 103 -6
0 -27 -19 -46 -42z"/>
<path d="M3194 3857 c-22 -8 -68 -28 -102 -47 -52 -28 -69 -44 -117 -116 -67
-99 -76 -137 -45 -191 38 -68 115 -114 265 -160 28 -8 76 -26 108 -40 l57 -26
0 -46 c0 -42 -6 -53 -63 -120 -88 -105 -101 -113 -161 -102 -54 10 -109 55
-157 130 -40 61 -109 92 -109 48 0 -7 -11 -24 -25 -37 -39 -36 -34 -82 16
-147 42 -56 133 -123 196 -144 57 -18 159 -7 223 26 60 30 149 96 192 141 39
42 78 126 78 169 0 44 -7 58 -75 150 -70 95 -147 163 -226 202 -36 17 -81 49
-99 69 l-33 38 31 26 c17 14 54 31 84 37 61 14 109 3 177 -42 41 -27 72 -25
100 9 30 35 -20 121 -93 158 -49 25 -166 33 -222 15z"/>
<path d="M4320 3130 c-10 -31 -10 -51 -1 -96 6 -32 11 -145 11 -253 0 -159 -4
-214 -21 -291 -11 -52 -22 -111 -25 -130 -9 -51 -52 -196 -80 -263 -13 -32
-24 -63 -24 -69 0 -22 -64 -146 -106 -205 -24 -34 -44 -66 -44 -71 0 -12 -126
-189 -164 -230 -44 -48 -179 -142 -256 -179 -161 -78 -259 -115 -335 -128 -22
-4 -65 -14 -95 -22 -336 -88 -405 -103 -474 -103 -28 0 -79 -7 -115 -16 -121
-31 -390 -6 -576 53 -82 26 -239 90 -306 126 -168 89 -252 158 -378 312 -35
44 -67 82 -70 85 -18 16 -101 133 -125 175 -16 28 -44 74 -64 104 -78 120
-147 290 -182 446 -5 22 -18 76 -29 120 -11 44 -21 114 -21 155 -1 41 -5 119
-9 173 -7 92 -10 100 -39 130 l-31 31 -28 -60 c-24 -53 -28 -73 -31 -193 -7
-217 25 -351 163 -676 7 -16 25 -64 40 -105 31 -81 61 -140 108 -209 48 -71
154 -215 169 -229 156 -156 314 -292 374 -323 38 -19 91 -48 117 -62 118 -66
292 -126 486 -167 137 -29 527 -29 686 1 61 11 135 24 165 29 66 10 215 51
288 78 29 11 89 28 135 37 118 23 183 43 236 72 144 80 223 148 298 258 23 33
74 104 115 157 87 115 176 288 214 413 15 50 38 123 51 164 12 40 23 80 23 88
0 8 7 29 15 46 39 85 76 263 82 390 9 207 -24 430 -70 462 -38 27 -62 19 -77
-25z"/>
</g>
</svg>
