<svg width="100%" height="100%" viewBox="0 0 1266 947" version="1.1" xmlns="http://www.w3.org/2000/svg" xmlns:xlink="http://www.w3.org/1999/xlink" xml:space="preserve" xmlns:serif="http://www.serif.com/" style="fill-rule:evenodd;clip-rule:evenodd;stroke-linejoin:round;stroke-miterlimit:2;">
    <g transform="matrix(1,0,0,1,-386.252,-595.455)">
        <path d="M386.914,733.719C385.518,727.145 386.763,747.159 386.763,753.88C386.763,774.675 388.35,795.671 389.218,816.499C391.484,870.878 392.429,925.378 394.129,979.799C397.943,1101.84 408.69,1225.91 424.825,1346.92C427.56,1367.43 422.595,1449.28 428.508,1461.1C445.4,1494.89 623.622,1515.5 656.882,1520.04C797.385,1539.2 947.856,1551.57 1089.07,1532.32C1180.57,1519.84 1267.31,1489.34 1360.42,1489.34C1436.62,1489.34 1511.79,1510.22 1587.57,1510.22C1597.72,1510.22 1645.74,1519.12 1651.41,1507.76C1652.75,1505.08 1633.69,1360.53 1633,1348.14C1629.27,1280.99 1631.52,1212.35 1623.17,1145.55C1612.25,1058.18 1593,975.253 1601.07,886.484C1602.77,867.809 1628.1,702.317 1605.99,691.261C1600.86,688.696 1517.03,698.501 1501.62,697.4C1465.24,694.802 1429.03,688.508 1392.35,686.35C1322.15,682.221 1251.34,688.28 1181.16,683.894C1139.03,681.261 1097.64,686.35 1055.92,686.35C1054.67,686.35 1042.08,689.358 1041.19,687.578C1034.29,673.773 1058.62,622.975 1048.56,602.859C1047.37,600.48 1044.83,601.553 1043.64,599.175C1041.47,594.825 1031.39,595.492 1025.23,595.492C970.523,595.492 917.792,612.681 863.156,612.681C846.859,612.681 810.847,600.159 795.626,607.77C764.471,623.347 784.922,698.282 774.753,708.451C768.208,714.996 749.083,726.197 740.374,730.552C730.37,735.553 713.598,730.167 702.312,731.779C662.873,737.414 622.105,746.513 581.986,746.513C570.5,746.513 562.059,739.383 551.29,736.691C532.719,732.048 506.802,739.808 488.671,742.83C474.522,745.188 421.141,754.803 421.141,734.235"/>
    </g>
</svg>

