<svg viewBox="0 0 1300 947" xmlns="http://www.w3.org/2000/svg" fill-rule="evenodd" clip-rule="evenodd" stroke-linejoin="round" stroke-miterlimit="2"><path d="M.662 138.264c-1.396-6.574-.151 13.44-.151 20.161 0 20.795 1.587 41.791 2.455 62.619 2.266 54.379 3.211 108.879 4.911 163.3 3.814 122.041 14.561 246.111 30.696 367.121 2.735 20.51-2.23 102.36 3.683 114.18 16.892 33.79 195.114 54.4 228.374 58.94 140.503 19.16 290.974 31.53 432.188 12.28 91.5-12.48 178.24-42.98 271.35-42.98 76.2 0 151.37 20.88 227.15 20.88 10.15 0 58.17 8.9 63.84-2.46 1.34-2.68-17.72-147.23-18.41-159.62-3.73-67.15-1.48-135.79-9.83-202.59-10.92-87.37-30.17-170.297-22.1-259.066 1.7-18.675 27.03-184.167 4.92-195.223-5.13-2.565-88.96 7.24-104.37 6.139-36.38-2.598-72.59-8.892-109.27-11.05-70.2-4.129-141.01 1.93-211.19-2.456-42.13-2.633-83.52 2.456-125.24 2.456-1.25 0-13.84 3.008-14.73 1.228-6.9-13.805 17.43-64.603 7.37-84.719-1.19-2.379-3.73-1.306-4.92-3.684-2.17-4.35-12.25-3.683-18.41-3.683-54.707 0-107.438 17.189-162.074 17.189-16.297 0-52.309-12.522-67.53-4.911-31.155 15.577-10.704 90.512-20.873 100.681-6.545 6.545-25.67 17.746-34.379 22.101-10.004 5.001-26.776-.385-38.062 1.227-39.439 5.635-80.207 14.734-120.326 14.734-11.486 0-19.927-7.13-30.696-9.822-18.571-4.643-44.488 3.117-62.619 6.139-14.149 2.358-67.53 11.973-67.53-8.595"/></svg>