<svg width="100%" height="100%" viewBox="0 0 1506 1203" version="1.1" xmlns="http://www.w3.org/2000/svg" xmlns:xlink="http://www.w3.org/1999/xlink" xml:space="preserve" xmlns:serif="http://www.serif.com/" style="fill-rule:evenodd;clip-rule:evenodd;stroke-linejoin:round;stroke-miterlimit:2;">
    <g transform="matrix(1,0,0,1,-298.263,-586.418)">
        <path d="M437.648,726.719C435.792,726.811 431.065,726.767 429.736,728.096C428.294,729.538 433.856,734.711 434.647,736.691C438.037,745.165 441.632,753.35 443.242,762.475C449.296,796.777 450.825,832.118 453.065,866.839C459.651,968.931 451.928,1072.85 472.71,1173.79C497.197,1292.73 540.569,1360.03 604.086,1457.42C624.308,1488.43 647.955,1520.81 678.983,1542.14C799.704,1625.13 1111.18,1595.6 1238.87,1543.37C1320.39,1510.02 1390.68,1451.44 1436.55,1376.38C1498.24,1275.44 1556.96,1040.13 1549.51,920.863C1545.87,862.605 1523.9,798.444 1497.94,746.513C1479.98,710.6 1469.49,675.089 1440.23,645.832C1365.99,571.592 1207.55,586.108 1113.63,590.58C874.856,601.951 614.772,561.477 430.964,745.285" />
        <path d="M1543.56,968.781C1541.73,970.325 1566.86,938.761 1578.97,930.686C1615.71,906.196 1652.81,884.755 1699.3,891.396C1738.74,897.03 1788.21,1030.04 1795.07,1062.06C1803.57,1101.71 1809.04,1150.64 1795.07,1189.76C1776.42,1241.97 1643.09,1357.42 1581.43,1342.01C1570.94,1339.38 1562.43,1329.89 1551.96,1327.27C1535.79,1323.23 1518.97,1326.15 1504.08,1316.22C1490.79,1307.36 1479.08,1293.9 1464.79,1286.75C1464.04,1286.38 1441.31,1273.4 1446.37,1268.34C1449.88,1264.82 1461.03,1266.75 1466.01,1263.42C1478.56,1255.06 1552.28,1227.36 1563.01,1232.73C1585.54,1243.99 1599.39,1254.6 1625.63,1232.73C1638.96,1221.62 1652.24,1209.8 1658.78,1193.44C1662.69,1183.68 1650.21,1103.02 1645.28,1096.44C1634.45,1082.01 1611.8,1068.14 1593.71,1064.52C1547.82,1055.34 1534.67,1075.57 1506.53,1075.57"/>
        <path d="M644.835,1467.69C629.213,1470.81 614.925,1476.89 599.175,1479.52C569.502,1484.47 539.569,1472.11 509.544,1474.61C455.472,1479.12 382.859,1505.68 336.422,1533.54C278.903,1568.06 290.884,1641.03 342.561,1677.2C374.245,1699.38 413.561,1709.68 450.609,1718.94C502.203,1731.84 555.893,1736.67 607.77,1749.64C721.668,1778.12 841.126,1794.6 958.926,1786.48C994.971,1783.99 1030.82,1776.67 1066.97,1775.42C1165.79,1772.02 1269.82,1785.21 1367.79,1770.51C1420.29,1762.64 1468.99,1749.14 1517.58,1727.54C1551.07,1712.66 1581.34,1695.19 1610.9,1673.52C1626.54,1662.05 1694.13,1604.83 1698.07,1585.11C1705.49,1548.04 1653.99,1524.16 1629.31,1506.53C1564.04,1459.91 1381.71,1462.33 1301.49,1462.33"/>
    </g>
</svg>

