<svg viewBox="0 0 1506 1203" xmlns="http://www.w3.org/2000/svg" fill-rule="evenodd" clip-rule="evenodd" stroke-linejoin="round" stroke-miterlimit="2"><path d="M139.385 140.301c-1.856.092-6.583.048-7.912 1.377-1.442 1.442 4.12 6.615 4.911 8.595 3.39 8.474 6.985 16.659 8.595 25.784 6.054 34.302 7.583 69.643 9.823 104.364 6.586 102.092-1.137 206.011 19.645 306.951 24.487 118.94 67.859 186.24 131.376 283.63 20.222 31.01 43.869 63.39 74.897 84.72 120.721 82.99 432.197 53.46 559.887 1.23 81.52-33.35 151.81-91.93 197.68-166.99 61.69-100.94 120.41-336.25 112.96-455.517-3.64-58.258-25.61-122.419-51.57-174.35-17.96-35.913-28.45-71.424-57.71-100.681-74.24-74.24-232.68-59.724-326.6-55.252-238.774 11.371-498.858-29.103-682.666 154.705"/><path d="M1245.297 382.363c-1.83 1.544 23.3-30.02 35.41-38.095 36.74-24.49 73.84-45.931 120.33-39.29 39.44 5.634 88.91 138.644 95.77 170.664 8.5 39.65 13.97 88.58 0 127.7-18.65 52.21-151.98 167.66-213.64 152.25-10.49-2.63-19-12.12-29.47-14.74-16.17-4.04-32.99-1.12-47.88-11.05-13.29-8.86-25-22.32-39.29-29.47-.75-.37-23.48-13.35-18.42-18.41 3.51-3.52 14.66-1.59 19.64-4.92 12.55-8.36 86.27-36.06 97-30.69 22.53 11.26 36.38 21.87 62.62 0 13.33-11.11 26.61-22.93 33.15-39.29 3.91-9.76-8.57-90.42-13.5-97-10.83-14.43-33.48-28.3-51.57-31.92-45.89-9.18-59.04 11.05-87.18 11.05m-861.695 392.12c-15.622 3.12-29.91 9.2-45.66 11.83-29.673 4.95-59.606-7.41-89.631-4.91-54.072 4.51-126.685 31.07-173.122 58.93-57.519 34.52-45.538 107.49 6.139 143.66 31.684 22.18 71 32.48 108.048 41.74 51.594 12.9 105.284 17.73 157.161 30.7 113.898 28.48 233.356 44.96 351.156 36.84 36.045-2.49 71.894-9.81 108.044-11.06 98.82-3.4 202.85 9.79 300.82-4.91 52.5-7.87 101.2-21.37 149.79-42.97 33.49-14.88 63.76-32.35 93.32-54.02 15.64-11.47 83.23-68.69 87.17-88.41 7.42-37.07-44.08-60.95-68.76-78.58-65.27-46.62-247.6-44.2-327.82-44.2"/></svg>