<?xml version="1.0" encoding="UTF-8" standalone="no"?>
<!DOCTYPE svg PUBLIC "-//W3C//DTD SVG 1.1//EN" "http://www.w3.org/Graphics/SVG/1.1/DTD/svg11.dtd">
<svg width="100%" height="100%" viewBox="0 0 1536 1536" version="1.1" xmlns="http://www.w3.org/2000/svg" xmlns:xlink="http://www.w3.org/1999/xlink" xml:space="preserve" xmlns:serif="http://www.serif.com/" style="fill-rule:evenodd;clip-rule:evenodd;stroke-linejoin:round;stroke-miterlimit:2;">
    <g transform="matrix(7.53507,-0.0126831,0.0126831,7.53507,-2150.94,-7498.89)">
        <g transform="matrix(918.238,0,0,918.238,294.676,1204.49)">
            <path d="M0.158,-0.215C0.14,-0.198 0.125,-0.18 0.107,-0.163C0.106,-0.164 0.096,-0.151 0.093,-0.149C0.087,-0.145 0.077,-0.133 0.068,-0.133C0.052,-0.133 0.05,-0.203 0.014,-0.203C0.01,-0.203 0.007,-0.2 0.007,-0.196C0.007,-0.175 0.042,-0.119 0.06,-0.113L0.06,-0.108C0.06,-0.078 0.046,-0.051 0.046,-0.023L0.046,-0.018C0.047,-0.017 0.048,-0.016 0.048,-0.015C0.055,-0.009 0.063,-0.008 0.072,-0.008C0.076,-0.008 0.078,-0.024 0.078,-0.025C0.078,-0.026 0.077,-0.027 0.077,-0.029C0.077,-0.03 0.077,-0.032 0.078,-0.032C0.078,-0.033 0.077,-0.036 0.077,-0.037L0.077,-0.038C0.077,-0.051 0.084,-0.065 0.084,-0.078C0.09,-0.084 0.091,-0.14 0.112,-0.133C0.117,-0.142 0.135,-0.157 0.144,-0.165C0.142,-0.167 0.155,-0.178 0.157,-0.179C0.159,-0.182 0.18,-0.198 0.186,-0.206L0.196,-0.208C0.199,-0.209 0.199,-0.211 0.199,-0.213C0.199,-0.221 0.18,-0.223 0.174,-0.223C0.167,-0.223 0.164,-0.217 0.158,-0.215ZM0.192,-0.213C0.191,-0.213 0.191,-0.214 0.192,-0.214C0.193,-0.214 0.193,-0.213 0.192,-0.213ZM0.016,-0.2C0.015,-0.2 0.015,-0.202 0.016,-0.202C0.017,-0.202 0.017,-0.2 0.016,-0.2ZM0.167,-0.192C0.166,-0.192 0.166,-0.194 0.167,-0.194C0.168,-0.194 0.168,-0.192 0.167,-0.192ZM0.157,-0.183L0.158,-0.184L0.158,-0.183L0.157,-0.183ZM0.153,-0.179C0.152,-0.179 0.152,-0.181 0.153,-0.181C0.154,-0.181 0.154,-0.179 0.153,-0.179ZM0.128,-0.176C0.127,-0.176 0.127,-0.178 0.128,-0.178C0.129,-0.178 0.129,-0.176 0.128,-0.176ZM0.142,-0.17C0.141,-0.17 0.141,-0.172 0.142,-0.172C0.143,-0.172 0.143,-0.17 0.142,-0.17ZM0.12,-0.168C0.119,-0.168 0.119,-0.17 0.12,-0.17C0.121,-0.17 0.121,-0.168 0.12,-0.168ZM0.11,-0.162C0.109,-0.162 0.109,-0.164 0.11,-0.164C0.111,-0.164 0.111,-0.162 0.11,-0.162ZM0.124,-0.161C0.123,-0.161 0.123,-0.163 0.124,-0.163C0.125,-0.163 0.125,-0.161 0.124,-0.161ZM0.107,-0.159C0.106,-0.159 0.106,-0.161 0.107,-0.161C0.108,-0.161 0.108,-0.159 0.107,-0.159ZM0.051,-0.153C0.05,-0.153 0.05,-0.155 0.051,-0.155C0.052,-0.155 0.052,-0.153 0.051,-0.153ZM0.098,-0.149C0.097,-0.149 0.097,-0.151 0.098,-0.151C0.099,-0.151 0.099,-0.149 0.098,-0.149ZM0.035,-0.148C0.034,-0.148 0.034,-0.15 0.035,-0.15C0.036,-0.15 0.036,-0.148 0.035,-0.148ZM0.112,-0.139C0.111,-0.139 0.111,-0.141 0.112,-0.141C0.113,-0.141 0.113,-0.139 0.112,-0.139ZM0.087,-0.127C0.086,-0.127 0.086,-0.129 0.087,-0.129C0.088,-0.129 0.088,-0.127 0.087,-0.127ZM0.086,-0.093C0.085,-0.093 0.085,-0.095 0.086,-0.095C0.087,-0.095 0.087,-0.093 0.086,-0.093ZM0.068,-0.078C0.067,-0.078 0.067,-0.08 0.068,-0.08C0.069,-0.08 0.069,-0.078 0.068,-0.078ZM0.055,-0.059C0.054,-0.059 0.054,-0.061 0.055,-0.061C0.056,-0.061 0.056,-0.059 0.055,-0.059ZM0.069,-0.044C0.068,-0.044 0.068,-0.046 0.069,-0.046C0.07,-0.046 0.07,-0.044 0.069,-0.044ZM0.055,-0.028C0.054,-0.028 0.054,-0.03 0.055,-0.03C0.056,-0.03 0.056,-0.028 0.055,-0.028ZM0.049,-0.026C0.048,-0.026 0.048,-0.028 0.049,-0.028C0.05,-0.028 0.05,-0.026 0.049,-0.026ZM0.05,-0.021C0.049,-0.021 0.049,-0.023 0.05,-0.023C0.051,-0.023 0.051,-0.021 0.05,-0.021ZM0.058,-0.018C0.057,-0.018 0.057,-0.02 0.058,-0.02C0.059,-0.02 0.059,-0.018 0.058,-0.018Z" style="fill-rule:nonzero;"/>
        </g>
    </g>
</svg>

