<?xml version="1.0" standalone="no"?>
<!DOCTYPE svg PUBLIC "-//W3C//DTD SVG 20010904//EN"
 "http://www.w3.org/TR/2001/REC-SVG-20010904/DTD/svg10.dtd">
<svg version="1.0" xmlns="http://www.w3.org/2000/svg"
 width="100%" height="100%" viewBox="0 0 1425.000000 1416.000000"
 preserveAspectRatio="xMidYMid meet">
<g transform="translate(0.000000,1416.000000) scale(0.100000,-0.100000)"
 stroke="none">
<path d="M7270 13648 c-74 -4 -151 -12 -170 -17 -19 -6 -96 -13 -170 -17 -118
-6 -140 -4 -169 11 -29 15 -56 16 -190 13 -98 -2 -164 -8 -178 -16 -17 -9 -53
-10 -161 -2 -114 9 -144 8 -173 -3 -23 -10 -100 -17 -235 -21 -111 -4 -228
-12 -260 -18 -32 -6 -86 -10 -119 -9 -50 1 -67 -3 -95 -24 -19 -14 -41 -25
-50 -25 -9 0 -32 -8 -51 -17 -54 -27 -190 -72 -239 -79 -25 -4 -51 -11 -58
-17 -8 -6 -35 -14 -60 -18 -26 -4 -73 -12 -106 -19 -32 -6 -80 -9 -107 -5 -33
5 -66 1 -105 -10 -52 -15 -101 -26 -259 -56 -27 -5 -70 -13 -95 -18 -25 -4
-79 -25 -122 -45 -50 -23 -94 -37 -130 -39 -29 -2 -69 -9 -88 -15 -19 -6 -51
-14 -70 -17 -37 -5 -104 -57 -92 -71 4 -4 2 -4 -5 0 -6 3 -34 -7 -62 -23 -28
-17 -85 -46 -128 -66 -42 -20 -80 -40 -83 -45 -3 -5 -44 -30 -90 -56 -117 -65
-214 -129 -285 -189 -33 -28 -78 -61 -100 -74 -22 -13 -56 -38 -75 -56 -19
-17 -47 -40 -61 -51 -128 -94 -162 -124 -429 -381 -78 -75 -166 -157 -295
-275 -27 -25 -64 -52 -81 -61 -17 -9 -57 -48 -89 -86 -31 -39 -61 -71 -65 -71
-4 0 -21 -27 -39 -59 -18 -35 -49 -74 -74 -93 -23 -18 -48 -40 -55 -50 -7 -9
-34 -40 -60 -69 -26 -28 -53 -61 -61 -73 -8 -12 -37 -46 -64 -76 -28 -30 -56
-69 -63 -86 -7 -17 -19 -36 -27 -42 -27 -23 -206 -344 -248 -444 -16 -40 -48
-107 -71 -148 -22 -41 -53 -111 -68 -155 -52 -149 -80 -220 -115 -294 -19 -40
-35 -81 -35 -92 0 -10 -13 -33 -29 -51 -51 -59 -111 -194 -111 -253 0 -17 -6
-39 -13 -50 -28 -41 -57 -149 -57 -214 0 -69 -11 -114 -41 -173 -10 -20 -19
-52 -19 -70 0 -30 -8 -46 -62 -126 -10 -15 -16 -44 -16 -76 0 -49 -21 -102
-59 -147 -8 -9 -18 -59 -24 -110 -5 -52 -17 -109 -26 -128 -9 -21 -13 -47 -9
-69 3 -19 1 -42 -3 -51 -5 -9 -10 -63 -12 -121 -2 -58 -11 -136 -21 -175 -10
-38 -18 -81 -18 -94 0 -13 -11 -37 -25 -53 -23 -27 -26 -39 -24 -102 1 -40 -3
-82 -10 -94 -6 -11 -11 -36 -11 -56 0 -19 -4 -37 -9 -41 -16 -9 -4 -605 13
-705 8 -47 20 -129 25 -182 6 -53 24 -136 40 -185 38 -116 61 -222 65 -308 11
-205 42 -497 61 -585 8 -36 24 -110 36 -165 12 -54 31 -122 42 -150 56 -146
70 -184 82 -225 19 -66 59 -169 98 -252 19 -40 60 -138 91 -218 32 -80 70
-174 86 -210 16 -36 38 -89 50 -119 11 -30 30 -65 40 -79 11 -14 20 -29 20
-35 0 -11 77 -185 107 -242 8 -16 31 -61 51 -100 20 -38 43 -81 53 -95 108
-157 289 -455 289 -474 0 -5 11 -24 25 -42 14 -18 25 -37 25 -43 0 -24 90
-206 113 -227 14 -12 40 -49 58 -81 18 -32 62 -89 97 -128 35 -38 72 -85 82
-105 10 -20 43 -60 74 -90 31 -30 56 -60 56 -67 0 -7 17 -24 38 -37 21 -13 58
-47 82 -76 68 -81 411 -380 436 -380 8 0 108 -83 117 -97 4 -7 63 -45 130 -84
67 -40 143 -87 170 -105 26 -19 50 -34 53 -34 6 0 82 -56 137 -101 18 -14 48
-34 67 -44 19 -10 48 -29 64 -42 16 -13 50 -35 75 -49 45 -24 103 -63 186
-122 22 -16 67 -44 100 -62 52 -28 174 -104 285 -176 19 -13 60 -33 90 -45 30
-12 62 -28 70 -35 22 -18 467 -224 484 -224 2 0 33 -13 68 -29 35 -16 78 -32
95 -36 18 -3 35 -11 38 -16 4 -5 17 -9 31 -9 14 0 41 -8 62 -19 20 -10 55 -24
77 -31 22 -6 54 -18 72 -26 17 -8 37 -14 45 -14 8 0 18 -4 23 -9 6 -6 22 -12
37 -15 15 -2 32 -7 37 -11 14 -8 190 -45 216 -45 11 0 50 -16 85 -35 36 -19
79 -35 97 -35 42 0 120 -16 218 -45 44 -13 105 -28 135 -34 30 -5 87 -19 125
-31 41 -12 113 -23 175 -27 58 -3 111 -10 118 -16 8 -6 41 -15 75 -20 84 -12
153 -24 207 -36 25 -5 82 -13 125 -16 44 -4 84 -10 90 -13 16 -10 129 -23 254
-28 83 -3 127 0 160 10 25 8 87 20 136 27 50 6 106 17 125 25 19 7 67 18 105
24 39 7 93 16 120 21 116 20 229 31 380 35 88 2 180 8 205 13 25 5 113 7 195
5 139 -3 195 1 315 26 110 22 166 32 194 35 33 3 69 10 211 44 229 56 319 79
368 97 20 8 45 14 55 14 10 0 41 11 69 24 27 14 67 28 89 32 21 3 48 11 59 17
11 6 23 10 28 9 4 -1 7 3 7 9 0 5 5 7 10 4 6 -4 16 -3 23 2 7 5 35 18 62 28
28 10 84 35 125 55 41 21 85 40 97 44 29 9 189 105 283 170 139 96 185 129
190 137 6 9 115 73 185 108 28 14 64 36 79 49 16 12 32 22 37 22 13 0 122 66
145 88 11 11 30 22 41 26 11 3 35 20 53 36 18 16 35 28 38 26 2 -3 12 3 23 12
11 9 35 26 53 37 28 17 106 68 167 109 83 56 168 119 189 138 14 13 44 37 67
53 23 17 68 49 100 71 32 23 74 59 95 81 20 22 47 49 60 59 13 10 34 33 46 49
13 17 107 116 210 220 103 105 210 216 236 248 27 31 55 57 62 57 9 0 14 11
14 28 0 18 15 44 43 77 23 28 67 91 96 140 30 50 60 97 67 106 23 26 132 252
163 335 16 43 34 95 41 114 8 19 20 50 28 69 8 18 18 45 22 60 24 76 81 226
90 235 5 5 10 18 10 28 0 10 15 51 34 91 18 40 53 117 76 172 23 55 46 105 52
112 5 6 11 24 14 39 3 15 14 45 24 67 11 23 20 50 20 61 0 12 9 48 19 81 60
181 73 228 87 305 9 47 22 99 29 115 21 48 35 96 35 120 0 21 23 103 61 220
11 35 28 140 39 255 11 107 23 206 26 220 3 14 8 57 9 95 2 39 8 102 13 140 6
39 20 155 32 259 11 104 23 193 26 197 3 5 9 36 14 71 17 116 28 173 45 240
14 56 15 74 5 104 -14 43 -16 110 -23 1144 -6 791 -8 831 -52 937 -8 20 -15
58 -15 85 0 28 -8 65 -19 86 -13 26 -20 68 -24 142 -6 112 -33 249 -73 368
-13 40 -24 83 -24 96 0 12 -20 76 -45 142 -25 65 -45 131 -45 146 0 16 -21 81
-46 146 -25 64 -55 142 -66 172 -34 87 -94 203 -116 223 -11 10 -26 33 -33 50
-7 18 -29 50 -48 72 -20 22 -63 81 -95 130 -33 50 -74 113 -93 140 -38 57
-399 427 -444 454 -28 17 -100 94 -153 164 -16 21 -42 39 -68 47 -95 30 -139
58 -290 185 -39 33 -91 74 -114 90 -65 45 -155 115 -194 149 -19 17 -66 49
-104 71 -38 22 -88 57 -112 78 -44 38 -138 88 -339 179 -60 27 -144 71 -185
97 -41 27 -95 57 -120 68 -25 11 -62 32 -83 46 -21 14 -59 34 -85 43 -26 10
-58 25 -72 35 -14 9 -59 34 -100 55 -41 20 -110 59 -153 85 -101 63 -481 249
-507 249 -11 0 -56 18 -100 40 -44 22 -92 40 -107 40 -15 0 -38 11 -52 24 -24
22 -87 43 -231 75 -19 4 -48 15 -65 23 -16 9 -52 23 -80 31 -27 8 -98 33 -158
56 -59 22 -151 52 -205 66 -53 14 -119 34 -147 44 -87 33 -182 61 -204 61 -12
0 -38 7 -59 16 -20 9 -77 20 -126 24 -48 5 -93 13 -99 19 -6 6 -20 11 -32 11
-11 0 -54 11 -95 24 -95 31 -240 57 -350 62 -163 9 -436 9 -570 2z m-270 -812
c168 -1 311 -5 318 -10 8 -4 80 -12 160 -16 204 -12 584 -55 662 -75 35 -9 76
-23 92 -31 15 -8 35 -14 45 -14 10 0 30 -6 45 -14 15 -8 69 -26 120 -41 51
-15 125 -38 163 -51 39 -13 97 -29 130 -35 82 -14 287 -76 505 -152 25 -9 86
-28 135 -43 50 -15 115 -38 145 -51 30 -13 75 -27 100 -30 25 -3 54 -11 65
-18 11 -7 35 -16 52 -19 18 -4 49 -16 70 -26 20 -10 43 -16 50 -13 7 3 13 0
13 -6 0 -6 5 -11 10 -11 6 0 47 -18 93 -39 45 -22 135 -62 199 -91 65 -29 122
-58 128 -65 5 -6 43 -27 82 -44 40 -18 96 -43 123 -56 28 -13 68 -31 90 -41
22 -10 46 -24 54 -32 7 -7 50 -31 95 -54 44 -22 96 -52 115 -67 19 -14 49 -35
67 -46 18 -11 67 -41 110 -67 42 -27 79 -48 81 -48 3 0 17 -8 31 -19 15 -10
63 -38 107 -61 44 -24 96 -55 115 -70 19 -14 53 -37 74 -50 22 -13 62 -43 88
-67 27 -24 53 -43 58 -43 5 0 15 -6 22 -12 7 -7 33 -29 58 -49 25 -20 62 -53
83 -73 21 -20 42 -36 47 -36 9 0 84 -60 130 -104 14 -13 40 -31 58 -40 17 -9
32 -21 32 -25 0 -5 17 -19 38 -32 50 -30 92 -69 173 -164 37 -44 100 -114 138
-155 39 -41 71 -79 71 -83 0 -5 11 -23 25 -41 14 -18 25 -36 25 -41 0 -4 23
-32 50 -62 28 -30 50 -59 50 -65 0 -5 14 -30 30 -55 17 -24 53 -88 82 -141 28
-53 59 -109 69 -123 10 -15 23 -39 29 -55 12 -31 80 -150 114 -199 25 -36 206
-401 206 -415 0 -6 11 -33 25 -60 14 -28 36 -91 50 -141 13 -50 28 -96 32
-102 24 -33 81 -273 99 -412 3 -27 10 -57 14 -65 8 -15 15 -70 25 -191 2 -26
8 -73 14 -105 6 -33 13 -81 16 -109 2 -27 9 -66 15 -85 5 -19 10 -65 10 -101
0 -55 -5 -77 -30 -124 -29 -54 -30 -63 -30 -184 -1 -69 -7 -194 -14 -277 -7
-83 -10 -175 -6 -205 3 -30 2 -72 -2 -94 -10 -51 -26 -189 -34 -280 -3 -38
-12 -93 -20 -122 -9 -29 -17 -72 -18 -95 -4 -51 -21 -146 -35 -191 -17 -58
-31 -131 -45 -232 -7 -55 -20 -116 -28 -135 -9 -19 -28 -70 -42 -114 -15 -43
-35 -95 -46 -115 -10 -21 -28 -68 -41 -106 -12 -37 -28 -80 -35 -94 -8 -14
-14 -32 -14 -39 0 -8 -17 -44 -37 -80 -21 -37 -45 -89 -55 -117 -28 -86 -92
-227 -134 -300 -23 -38 -75 -135 -116 -216 -42 -80 -87 -158 -102 -174 -14
-15 -24 -30 -21 -33 4 -4 -31 -61 -45 -72 -4 -3 -14 -20 -23 -38 -41 -78 -49
-92 -57 -97 -13 -8 -80 -110 -80 -121 0 -5 -10 -20 -23 -34 -24 -26 -105 -148
-131 -197 -8 -15 -25 -39 -38 -53 -13 -14 -45 -56 -71 -95 -27 -38 -71 -99
-98 -135 -28 -36 -62 -85 -77 -110 -14 -25 -43 -64 -64 -87 -34 -38 -40 -48
-37 -69 0 -4 -10 -12 -22 -18 -12 -6 -25 -18 -29 -26 -26 -54 -46 -88 -65
-110 -12 -14 -40 -54 -61 -90 -38 -63 -99 -139 -227 -285 -34 -38 -80 -90
-101 -115 -22 -25 -74 -80 -115 -122 -42 -43 -72 -78 -68 -78 18 0 -216 -242
-266 -275 -15 -10 -25 -20 -23 -23 3 -2 -14 -18 -38 -33 -23 -16 -79 -60 -123
-98 -44 -38 -95 -77 -114 -86 -38 -17 -125 -76 -151 -101 -9 -9 -24 -14 -32
-11 -9 4 -15 2 -13 -2 1 -5 -1 -8 -4 -7 -4 0 -15 -6 -25 -16 -11 -9 -57 -35
-104 -59 -47 -24 -87 -46 -90 -49 -3 -3 -50 -28 -105 -54 -55 -27 -114 -59
-132 -72 -17 -13 -35 -24 -39 -24 -5 0 -44 -17 -89 -39 -81 -39 -238 -102
-375 -150 -41 -14 -81 -30 -89 -35 -8 -5 -30 -11 -50 -13 -37 -4 -105 -25
-141 -43 -11 -5 -29 -15 -40 -20 -11 -6 -26 -10 -34 -10 -16 0 -177 -53 -230
-75 -17 -7 -65 -23 -106 -34 -41 -12 -90 -26 -108 -32 -18 -6 -87 -17 -155
-24 -196 -22 -221 -26 -242 -35 -11 -5 -85 -12 -165 -15 -80 -3 -179 -7 -220
-10 -41 -2 -187 -6 -325 -8 -137 -3 -298 -8 -356 -12 -71 -5 -122 -4 -155 4
-27 6 -137 16 -244 21 -266 14 -313 18 -341 28 -13 5 -53 10 -89 11 -36 2 -90
11 -120 21 -31 10 -80 22 -110 26 -30 4 -64 13 -75 20 -11 8 -46 14 -81 14
-35 0 -64 5 -66 11 -2 5 -10 11 -18 13 -8 1 -25 8 -38 15 -13 7 -56 14 -97 17
-41 2 -92 8 -112 14 -21 5 -59 15 -85 22 -27 7 -48 16 -48 20 0 5 -18 8 -39 8
-22 0 -43 5 -46 10 -3 6 -16 10 -28 10 -12 1 -40 8 -62 16 -98 38 -150 54
-179 54 -17 0 -44 7 -61 16 -16 9 -46 22 -65 29 -19 7 -60 24 -90 38 -30 13
-82 34 -115 46 -33 13 -64 26 -70 31 -16 13 -154 67 -220 86 -33 10 -74 28
-91 40 -45 33 -198 111 -243 125 -22 6 -61 31 -88 54 -27 23 -64 51 -83 62
-71 39 -178 113 -227 157 -28 25 -55 46 -60 46 -6 0 -18 9 -28 20 -10 11 -23
20 -30 20 -6 0 -30 16 -52 35 -23 19 -45 35 -50 35 -9 0 -92 57 -103 70 -3 4
-26 17 -52 30 -26 13 -76 50 -110 82 -35 33 -81 71 -102 85 -22 14 -57 41 -78
61 -21 19 -52 45 -70 58 -18 13 -51 41 -73 64 -22 22 -44 40 -51 40 -6 0 -39
29 -72 64 -34 35 -62 62 -62 58 0 -8 -29 25 -64 73 -16 22 -57 67 -90 101 -34
33 -81 83 -106 110 -25 27 -59 61 -75 75 -33 29 -156 164 -167 184 -4 7 -30
37 -58 66 -28 30 -62 70 -76 89 -24 36 -53 73 -134 175 -25 31 -54 72 -66 91
-11 19 -28 40 -37 47 -21 16 -187 316 -187 338 0 10 -4 20 -9 23 -5 4 -16 26
-25 52 -8 25 -35 75 -60 112 -24 37 -56 92 -70 122 -14 30 -50 100 -79 155
-71 135 -177 370 -177 393 0 11 -11 40 -25 66 -14 26 -25 56 -25 68 0 11 -6
34 -14 51 -7 18 -19 52 -26 77 -7 25 -19 64 -26 88 -8 23 -14 54 -14 67 0 14
-4 25 -8 25 -4 0 -9 14 -10 31 -1 17 -11 57 -22 90 -22 64 -25 82 -10 59 6 -9
10 -10 10 -3 0 6 -5 15 -10 18 -6 4 -8 10 -5 15 3 5 -2 26 -11 47 -9 21 -23
65 -31 98 -32 128 -65 281 -67 310 -2 17 -8 39 -13 50 -6 11 -8 35 -6 53 3 17
1 32 -3 32 -5 0 -10 12 -11 28 -1 15 -6 50 -12 77 -6 28 -15 84 -20 125 -6 41
-15 111 -21 155 -24 189 -40 455 -29 490 2 6 -3 102 -10 215 -14 208 -14 212
18 607 5 61 15 121 21 134 7 12 14 40 16 63 6 60 13 95 35 154 19 53 36 134
44 207 2 22 18 78 36 125 17 47 34 101 38 121 4 19 11 40 14 46 4 6 13 35 21
64 20 73 39 123 76 205 35 75 74 176 126 326 37 107 90 235 164 398 26 58 51
121 55 140 9 44 46 117 75 150 12 14 36 45 53 70 57 84 390 451 555 613 122
119 256 236 305 266 21 13 71 54 110 91 40 37 94 86 120 108 27 22 62 56 79
76 46 56 285 257 358 300 36 22 99 65 140 97 41 31 98 68 127 83 28 14 54 30
58 36 3 6 25 20 48 31 23 12 56 33 73 48 37 31 56 42 243 138 79 40 155 81
170 91 14 10 58 33 96 52 39 18 120 56 180 85 105 50 230 95 265 95 9 0 21 5
26 10 13 13 210 69 244 70 14 0 45 10 70 22 25 11 63 24 85 28 22 4 105 26
185 48 205 57 312 82 440 102 30 5 82 14 115 19 33 6 77 13 97 15 21 3 45 9
55 14 10 5 74 8 143 8 69 -1 139 1 155 5 17 4 145 5 285 2 140 -4 392 -7 560
-7z m1320 -11931 c0 -8 -18 -22 -40 -31 -22 -9 -40 -19 -40 -24 0 -16 -82 -39
-200 -55 -170 -23 -507 -18 -522 9 -5 9 -13 14 -19 11 -5 -3 -17 -1 -26 4 -10
6 -13 11 -6 11 7 0 10 6 8 13 -4 8 7 13 32 14 21 1 124 7 228 13 105 6 224 13
265 15 126 7 270 21 277 28 12 13 43 7 43 -8z"/>
<path d="M5386 10663 c-13 -21 -47 -60 -75 -88 -28 -27 -51 -54 -51 -61 0 -6
-13 -29 -30 -52 -16 -22 -32 -53 -36 -69 -4 -15 -20 -54 -36 -86 -16 -33 -32
-76 -35 -96 -3 -20 -12 -43 -19 -52 -8 -8 -55 -98 -105 -200 -50 -101 -95
-186 -99 -189 -4 -3 -14 -18 -23 -35 -23 -45 -151 -165 -177 -165 -20 0 -79
35 -145 87 -16 13 -75 53 -130 90 -55 36 -119 83 -141 103 -23 21 -61 51 -85
66 -24 15 -87 56 -140 91 -54 35 -101 63 -106 63 -5 0 -18 8 -29 18 -22 19
-101 72 -109 72 -3 0 -26 15 -52 34 -59 41 -119 58 -213 60 -40 1 -45 -2 -50
-24 -3 -14 -18 -42 -33 -62 -28 -36 -57 -113 -57 -149 0 -10 15 -34 34 -53 19
-18 44 -52 55 -74 11 -22 37 -54 58 -72 41 -34 206 -120 230 -120 8 0 63 -46
121 -103 99 -95 252 -225 297 -254 11 -7 51 -30 90 -50 38 -21 86 -54 107 -74
34 -32 38 -42 38 -85 1 -27 5 -69 11 -94 15 -69 27 -155 39 -275 11 -109 36
-233 70 -350 9 -33 25 -96 34 -140 9 -44 25 -118 36 -165 11 -47 17 -95 14
-107 -4 -13 -2 -23 4 -23 25 0 42 -33 42 -83 0 -59 26 -111 61 -122 23 -8 45
11 92 80 21 29 45 27 78 -6 25 -25 44 -24 68 2 31 33 34 67 20 231 -15 173
-14 255 1 274 8 9 9 85 5 247 l-7 235 31 77 c27 67 30 82 21 110 -6 18 -12 53
-13 78 -2 26 -11 54 -20 65 -23 25 -21 66 3 111 11 20 29 58 40 84 19 47 80
121 226 277 110 118 197 260 211 346 4 24 12 38 24 41 10 3 21 14 24 24 7 21
83 89 100 89 14 0 48 36 65 69 11 21 10 26 -4 36 -24 18 -19 41 15 66 17 12
34 31 38 43 9 23 3 49 -9 41 -5 -3 -6 3 -4 12 8 35 -38 97 -92 123 -36 17 -59
36 -76 65 -19 31 -41 49 -90 73 -36 18 -70 32 -77 32 -6 0 -22 -17 -35 -37z"/>
<path d="M9015 10664 c-44 -8 -105 -25 -136 -39 -31 -14 -62 -25 -68 -25 -27
0 -282 -131 -332 -170 -51 -40 -109 -112 -109 -136 0 -5 -16 -26 -36 -45 -20
-18 -57 -77 -84 -129 -26 -52 -60 -106 -74 -119 -14 -14 -26 -30 -26 -37 0 -6
-9 -31 -20 -55 -28 -62 -26 -142 4 -201 45 -90 154 -212 217 -244 26 -13 60
-35 76 -50 35 -33 144 -84 178 -84 14 0 45 -10 68 -21 65 -34 226 -90 286
-100 58 -10 210 -73 331 -136 l75 -39 3 -118 c3 -117 2 -119 -29 -174 -17 -31
-43 -68 -58 -82 -14 -15 -66 -77 -116 -139 -90 -115 -190 -213 -221 -217 -10
-2 -27 -15 -39 -30 -21 -27 -22 -27 -110 -19 -92 7 -126 16 -217 58 -42 19
-78 50 -149 126 -51 56 -100 114 -107 129 -8 15 -22 36 -32 47 -10 11 -27 41
-37 66 -23 52 -66 99 -91 99 -15 0 -45 16 -94 52 -22 16 -54 -12 -63 -56 -10
-45 -53 -105 -97 -132 -39 -25 -42 -31 -53 -150 -6 -61 -5 -63 33 -107 21 -24
50 -62 62 -83 37 -61 128 -159 205 -223 75 -62 225 -153 284 -172 20 -7 58
-23 85 -36 48 -24 54 -25 210 -20 137 4 172 8 236 29 198 66 410 201 628 401
131 120 123 108 230 338 32 69 41 102 46 170 7 84 7 86 -30 159 -23 46 -62
101 -104 145 -37 39 -77 93 -88 119 -26 57 -39 75 -173 229 -120 138 -134 149
-329 268 -97 60 -127 75 -170 84 -51 10 -148 77 -200 137 -111 129 -119 155
-68 213 38 44 173 109 243 118 28 3 70 15 95 25 58 26 112 22 171 -11 26 -14
74 -31 108 -36 52 -8 70 -17 119 -59 113 -98 168 -124 179 -83 5 20 42 35 65
26 7 -3 27 4 45 15 40 24 49 66 33 146 -18 88 -40 123 -133 210 -86 82 -113
97 -257 140 -166 49 -221 54 -365 28z"/>
<path d="M12054 8663 c-14 -32 -29 -66 -35 -75 -11 -22 -12 -145 0 -152 9 -6
23 -92 27 -171 1 -27 4 -61 7 -75 3 -14 8 -95 11 -180 3 -85 8 -191 11 -235
12 -141 12 -197 3 -360 -12 -239 -17 -295 -28 -333 -5 -20 -7 -39 -4 -43 2 -4
0 -27 -5 -51 -5 -24 -17 -83 -26 -133 -24 -129 -36 -188 -42 -205 -4 -8 -8
-28 -10 -45 -3 -16 -8 -36 -13 -45 -4 -8 -11 -42 -15 -75 -4 -33 -12 -68 -17
-78 -5 -10 -11 -39 -13 -65 -2 -26 -8 -60 -15 -77 -7 -16 -18 -54 -26 -84 -8
-30 -19 -60 -23 -65 -5 -6 -21 -58 -36 -116 -14 -58 -30 -118 -35 -135 -9 -35
-84 -214 -123 -296 -15 -31 -27 -73 -27 -96 0 -28 -8 -50 -30 -79 -16 -21 -30
-45 -30 -52 0 -32 -151 -304 -191 -345 -15 -15 -38 -41 -51 -58 -13 -17 -28
-36 -33 -42 -23 -25 -63 -119 -58 -134 3 -8 2 -18 -4 -22 -5 -3 -24 -33 -43
-66 -18 -33 -48 -73 -67 -89 -28 -24 -71 -82 -118 -158 -71 -118 -176 -251
-275 -348 -81 -79 -94 -90 -206 -164 -195 -129 -269 -180 -274 -187 -3 -5 -45
-27 -92 -49 -48 -22 -90 -44 -92 -49 -3 -5 -52 -28 -108 -51 -130 -53 -142
-58 -260 -114 -53 -25 -101 -46 -107 -46 -6 0 -29 -11 -51 -25 -21 -14 -46
-22 -54 -19 -7 3 -37 -6 -65 -20 -28 -14 -60 -26 -72 -26 -12 0 -37 -9 -56
-21 -22 -14 -55 -22 -96 -25 -34 -2 -78 -8 -97 -13 -19 -5 -69 -15 -110 -21
-41 -7 -82 -15 -90 -18 -8 -3 -22 -7 -30 -8 -8 -2 -46 -12 -85 -24 -38 -11
-99 -27 -134 -35 -35 -7 -69 -19 -74 -24 -6 -6 -20 -11 -30 -11 -10 0 -31 -6
-45 -14 -15 -8 -74 -21 -131 -30 -57 -9 -110 -21 -118 -28 -8 -6 -33 -14 -56
-18 -23 -4 -85 -18 -137 -30 -52 -12 -106 -22 -120 -22 -14 0 -30 -4 -37 -10
-7 -5 -17 -7 -22 -4 -5 4 -43 -5 -83 -19 -65 -23 -87 -25 -201 -24 -71 0 -131
-2 -134 -5 -3 -3 -13 0 -21 7 -13 10 -14 9 -8 -1 6 -9 1 -11 -17 -8 -14 2 -36
-2 -50 -9 -22 -11 -91 -24 -219 -42 -21 -3 -35 -9 -32 -14 7 -12 -490 -11
-621 1 -152 14 -287 29 -320 35 -71 14 -119 26 -134 34 -9 5 -45 12 -80 15
-34 4 -76 13 -92 21 -15 8 -36 15 -47 15 -10 0 -45 8 -78 18 -32 11 -84 25
-114 32 -72 16 -321 99 -335 110 -7 5 -20 11 -31 13 -20 4 -49 16 -156 66 -36
17 -72 31 -78 31 -21 0 -200 91 -200 102 0 6 -6 8 -14 5 -8 -3 -16 -3 -18 1
-2 4 -27 19 -56 34 -29 15 -65 34 -80 43 -15 8 -38 19 -52 25 -21 8 -90 53
-135 88 -23 17 -204 122 -212 122 -8 0 -46 37 -138 132 -30 32 -59 58 -64 58
-18 0 -266 258 -275 286 -3 10 -16 30 -28 44 -13 14 -36 43 -52 65 -16 22 -41
51 -54 65 -14 14 -38 45 -53 69 -16 25 -47 62 -70 83 -22 21 -37 38 -33 38 5
0 -8 17 -27 38 -39 41 -89 107 -89 117 0 4 -24 30 -54 58 -29 29 -64 73 -76
100 -12 26 -26 47 -32 47 -5 0 -7 4 -4 9 3 5 0 14 -8 20 -8 6 -23 34 -35 61
-12 28 -27 50 -33 50 -6 0 -9 3 -5 6 3 4 -9 31 -28 60 -19 30 -35 59 -35 64 0
5 -13 23 -30 41 -16 18 -37 48 -45 66 -9 18 -20 35 -25 38 -6 4 -24 34 -41 68
-17 34 -47 83 -65 108 -19 26 -34 54 -34 64 0 28 -122 267 -151 296 -14 14
-19 33 -19 78 0 33 -4 63 -10 66 -5 3 -10 14 -10 23 0 10 -10 36 -21 57 -65
122 -94 197 -85 222 7 18 -13 101 -32 131 -8 12 -16 46 -17 75 -2 28 -10 73
-19 99 -9 25 -14 52 -11 60 3 8 -3 22 -14 33 -14 12 -19 25 -15 40 3 14 -7 54
-26 101 -33 82 -50 176 -55 304 -10 209 -13 248 -20 260 -4 7 -9 114 -10 239
-1 125 -4 232 -8 237 -3 6 -7 45 -8 88 -1 48 -8 91 -18 111 -17 34 -131 145
-149 145 -15 0 -98 -179 -111 -240 -6 -28 -17 -61 -24 -73 -7 -13 -12 -60 -12
-117 0 -52 -5 -187 -10 -300 -11 -246 -11 -220 3 -355 28 -264 35 -312 53
-354 10 -24 19 -52 19 -62 0 -10 11 -53 25 -95 14 -42 25 -87 25 -100 0 -12 4
-25 9 -28 12 -8 69 -158 82 -215 5 -25 16 -62 23 -81 8 -19 36 -93 62 -164 26
-70 57 -143 69 -160 12 -17 20 -37 18 -43 -2 -6 12 -47 32 -90 20 -43 40 -87
45 -98 16 -36 60 -151 60 -157 0 -3 8 -23 17 -44 9 -22 18 -47 20 -58 2 -10
16 -48 32 -85 16 -36 32 -77 36 -90 16 -52 85 -191 123 -247 22 -32 48 -75 57
-94 10 -19 32 -53 50 -75 18 -22 38 -51 45 -65 18 -34 86 -125 135 -181 22
-25 59 -73 83 -107 24 -33 50 -66 58 -73 8 -6 22 -27 30 -46 9 -18 25 -38 35
-44 12 -6 19 -21 19 -38 0 -20 14 -42 52 -79 29 -29 56 -52 61 -52 8 0 89 -67
180 -150 21 -19 64 -62 95 -95 147 -155 393 -389 442 -422 30 -20 64 -45 75
-55 44 -39 124 -89 195 -123 41 -19 89 -42 105 -51 17 -9 79 -43 139 -75 60
-32 116 -64 125 -72 9 -8 41 -24 71 -36 30 -12 96 -43 145 -67 108 -54 284
-116 594 -212 29 -10 56 -23 58 -30 3 -7 13 -10 22 -7 9 3 68 -9 131 -26 63
-17 138 -35 165 -40 28 -6 95 -19 150 -31 55 -11 129 -25 165 -30 36 -5 92
-14 125 -20 75 -14 741 -19 1030 -7 194 8 330 23 560 64 50 8 100 20 112 25
21 9 55 15 348 61 149 23 183 30 280 57 113 31 196 52 261 67 34 7 85 25 112
39 28 14 57 26 64 26 7 0 47 14 88 31 120 49 211 79 240 79 15 0 40 4 56 9 16
5 67 14 114 21 47 6 123 20 170 30 47 10 105 23 130 28 83 18 287 101 334 137
17 13 62 39 99 59 37 19 80 45 95 58 16 13 46 32 67 43 22 11 52 32 67 47 15
16 32 28 38 28 28 0 311 277 341 333 11 22 37 58 58 80 21 23 55 74 76 112 33
61 60 97 133 180 29 33 106 138 131 179 14 21 53 71 88 110 71 79 154 213 219
352 23 50 85 171 138 268 60 110 96 187 96 205 0 17 4 32 10 36 10 6 18 31 61
195 17 63 39 135 49 160 24 59 50 145 50 164 0 9 8 35 19 58 10 24 26 77 36
118 9 41 27 104 40 140 12 36 25 96 28 133 6 59 10 71 36 92 17 15 31 38 34
57 3 18 13 58 22 88 9 30 18 73 20 96 2 22 13 60 24 85 12 24 21 58 21 74 0
17 7 41 15 55 8 14 14 44 15 67 0 25 9 57 22 80 18 30 23 53 23 118 1 44 5 86
9 94 16 25 39 442 27 482 -6 20 -11 78 -11 128 0 86 -5 153 -31 376 -5 50 -12
111 -14 138 -3 44 -15 89 -37 146 -5 13 -12 53 -15 88 -5 58 -10 69 -51 114
-54 60 -62 65 -135 73 l-57 7 -26 -58z"/>
</g>
</svg>
