<?xml version="1.0" encoding="UTF-8" standalone="no"?>
<!DOCTYPE svg PUBLIC "-//W3C//DTD SVG 1.1//EN" "http://www.w3.org/Graphics/SVG/1.1/DTD/svg11.dtd">
<svg width="100%" height="100%" viewBox="0 0 1600 160" version="1.1" xmlns="http://www.w3.org/2000/svg" xmlns:xlink="http://www.w3.org/1999/xlink" xml:space="preserve" xmlns:serif="http://www.serif.com/" style="fill-rule:evenodd;clip-rule:evenodd;stroke-linejoin:round;stroke-miterlimit:2;">
    <g transform="matrix(23.9595,0,0,23.9595,-5253.65,-2084.52)">
        <g transform="matrix(24,0,0,24,219.765,92.7303)">
            <path d="M0.048,-0.192C0.048,-0.191 0.056,-0.189 0.056,-0.186C0.056,-0.176 0.048,-0.136 0.042,-0.133C0.04,-0.125 0.025,-0.105 0.025,-0.102C0.025,-0.098 0.031,-0.097 0.031,-0.093C0.031,-0.071 0.015,-0.049 0.015,-0.026C0.015,-0.018 0.021,-0.011 0.03,-0.011C0.031,-0.011 0.033,-0.013 0.034,-0.013C0.046,-0.013 0.058,-0.001 0.072,-0.001C0.084,-0.001 0.092,-0.006 0.1,-0.016C0.099,-0.028 0.123,-0.045 0.123,-0.062C0.123,-0.075 0.106,-0.084 0.106,-0.093C0.106,-0.096 0.138,-0.121 0.142,-0.127C0.15,-0.141 0.157,-0.155 0.157,-0.171C0.157,-0.191 0.13,-0.205 0.113,-0.207C0.112,-0.207 0.11,-0.207 0.109,-0.206L0.089,-0.206C0.089,-0.211 0.092,-0.215 0.092,-0.219C0.092,-0.227 0.08,-0.229 0.074,-0.229C0.073,-0.229 0.05,-0.197 0.048,-0.193L0.048,-0.192ZM0.061,-0.107C0.067,-0.143 0.072,-0.191 0.116,-0.191C0.124,-0.191 0.133,-0.183 0.133,-0.174C0.133,-0.172 0.131,-0.171 0.131,-0.169L0.132,-0.169C0.132,-0.155 0.12,-0.145 0.115,-0.132C0.106,-0.122 0.088,-0.104 0.073,-0.104C0.07,-0.104 0.063,-0.105 0.061,-0.107ZM0.135,-0.187C0.134,-0.187 0.134,-0.189 0.135,-0.189L0.135,-0.187ZM0.128,-0.114C0.127,-0.114 0.127,-0.116 0.128,-0.116C0.129,-0.116 0.129,-0.114 0.128,-0.114ZM0.134,-0.107L0.135,-0.107L0.135,-0.108C0.134,-0.108 0.134,-0.108 0.134,-0.107ZM0.046,-0.058C0.047,-0.06 0.05,-0.07 0.051,-0.072C0.052,-0.075 0.054,-0.087 0.057,-0.087C0.058,-0.087 0.061,-0.086 0.062,-0.086L0.064,-0.087C0.064,-0.086 0.066,-0.085 0.066,-0.085L0.077,-0.085L0.078,-0.086L0.079,-0.086C0.089,-0.086 0.097,-0.078 0.097,-0.068C0.097,-0.055 0.075,-0.019 0.061,-0.019C0.056,-0.019 0.053,-0.02 0.053,-0.024C0.05,-0.024 0.048,-0.023 0.045,-0.023L0.04,-0.023L0.039,-0.025C0.039,-0.027 0.041,-0.037 0.041,-0.039C0.041,-0.04 0.042,-0.04 0.042,-0.04C0.043,-0.044 0.047,-0.054 0.046,-0.058ZM0.095,-0.08C0.094,-0.08 0.094,-0.081 0.095,-0.081L0.095,-0.08ZM0.051,-0.079C0.05,-0.079 0.05,-0.081 0.051,-0.081C0.052,-0.081 0.052,-0.079 0.051,-0.079ZM0.035,-0.078C0.034,-0.078 0.034,-0.08 0.035,-0.08C0.036,-0.08 0.036,-0.078 0.035,-0.078ZM0.093,-0.029C0.092,-0.029 0.092,-0.031 0.093,-0.031C0.094,-0.031 0.094,-0.029 0.093,-0.029ZM0.056,-0.006L0.056,-0.008C0.057,-0.008 0.057,-0.006 0.056,-0.006Z" style="fill-rule:nonzero;"/>
        </g>
        <g transform="matrix(24,0,0,24,223.845,92.7303)">
            <path d="M0.031,-0.19C0.031,-0.189 0.042,-0.184 0.042,-0.184L0.04,-0.18L0.039,-0.18C0.036,-0.148 0.018,-0.12 0.018,-0.085C0.018,-0.056 0.019,-0.014 0.059,-0.014C0.096,-0.014 0.105,-0.092 0.105,-0.119L0.105,-0.122L0.104,-0.124C0.104,-0.125 0.105,-0.131 0.105,-0.132L0.105,-0.133C0.105,-0.147 0.099,-0.162 0.094,-0.175C0.075,-0.186 0.067,-0.199 0.04,-0.199C0.036,-0.199 0.031,-0.195 0.031,-0.19ZM0.049,-0.13C0.05,-0.134 0.057,-0.174 0.069,-0.174L0.074,-0.167C0.072,-0.157 0.082,-0.132 0.082,-0.121L0.082,-0.107C0.082,-0.106 0.081,-0.103 0.081,-0.102L0.08,-0.101L0.081,-0.099C0.081,-0.09 0.068,-0.03 0.054,-0.03C0.049,-0.03 0.05,-0.042 0.045,-0.042L0.046,-0.043C0.046,-0.052 0.042,-0.061 0.043,-0.07C0.042,-0.071 0.042,-0.072 0.042,-0.073C0.042,-0.089 0.052,-0.115 0.049,-0.13ZM0.074,-0.168C0.073,-0.168 0.073,-0.17 0.074,-0.17C0.075,-0.17 0.075,-0.168 0.074,-0.168ZM0.079,-0.168C0.078,-0.168 0.078,-0.17 0.079,-0.17C0.08,-0.17 0.08,-0.168 0.079,-0.168ZM0.092,-0.162C0.091,-0.162 0.091,-0.164 0.092,-0.164C0.093,-0.164 0.093,-0.162 0.092,-0.162ZM0.089,-0.157C0.088,-0.157 0.088,-0.159 0.089,-0.159C0.09,-0.159 0.09,-0.157 0.089,-0.157ZM0.095,-0.152C0.094,-0.152 0.094,-0.154 0.095,-0.154C0.096,-0.154 0.096,-0.152 0.095,-0.152ZM0.082,-0.147C0.081,-0.147 0.081,-0.149 0.082,-0.149C0.083,-0.149 0.083,-0.147 0.082,-0.147ZM0.03,-0.146C0.029,-0.146 0.029,-0.148 0.03,-0.148C0.031,-0.148 0.031,-0.146 0.03,-0.146ZM0.098,-0.138C0.097,-0.138 0.097,-0.14 0.098,-0.14C0.099,-0.14 0.099,-0.138 0.098,-0.138ZM0.101,-0.13C0.1,-0.13 0.1,-0.132 0.101,-0.132C0.102,-0.132 0.102,-0.13 0.101,-0.13ZM0.086,-0.128C0.085,-0.128 0.085,-0.13 0.086,-0.13C0.087,-0.13 0.087,-0.128 0.086,-0.128ZM0.103,-0.128C0.102,-0.128 0.102,-0.13 0.103,-0.13C0.104,-0.13 0.104,-0.128 0.103,-0.128ZM0.1,-0.121C0.099,-0.121 0.099,-0.123 0.1,-0.123C0.101,-0.123 0.101,-0.121 0.1,-0.121ZM0.087,-0.109C0.086,-0.109 0.086,-0.111 0.087,-0.111C0.088,-0.111 0.088,-0.109 0.087,-0.109ZM0.1,-0.104C0.099,-0.104 0.099,-0.106 0.1,-0.106C0.101,-0.106 0.101,-0.104 0.1,-0.104ZM0.088,-0.098C0.087,-0.098 0.087,-0.1 0.088,-0.1C0.089,-0.1 0.089,-0.098 0.088,-0.098ZM0.08,-0.087C0.079,-0.087 0.079,-0.089 0.08,-0.089C0.081,-0.089 0.081,-0.087 0.08,-0.087ZM0.023,-0.084C0.022,-0.084 0.022,-0.086 0.023,-0.086C0.024,-0.086 0.024,-0.084 0.023,-0.084ZM0.096,-0.083C0.095,-0.083 0.095,-0.085 0.096,-0.085C0.097,-0.085 0.097,-0.083 0.096,-0.083ZM0.039,-0.07C0.038,-0.07 0.038,-0.072 0.039,-0.072C0.04,-0.072 0.04,-0.07 0.039,-0.07ZM0.04,-0.068C0.039,-0.068 0.039,-0.07 0.04,-0.07C0.041,-0.07 0.041,-0.068 0.04,-0.068ZM0.02,-0.067C0.019,-0.067 0.019,-0.068 0.02,-0.068C0.021,-0.068 0.021,-0.067 0.02,-0.067ZM0.039,-0.047C0.038,-0.047 0.038,-0.049 0.039,-0.049C0.04,-0.049 0.04,-0.047 0.039,-0.047ZM0.089,-0.046C0.088,-0.046 0.088,-0.048 0.089,-0.048C0.09,-0.048 0.09,-0.046 0.089,-0.046ZM0.042,-0.045C0.041,-0.045 0.041,-0.047 0.042,-0.047C0.043,-0.047 0.043,-0.045 0.042,-0.045ZM0.043,-0.039C0.042,-0.039 0.042,-0.041 0.043,-0.041C0.044,-0.041 0.044,-0.039 0.043,-0.039ZM0.079,-0.038C0.078,-0.038 0.078,-0.04 0.079,-0.04C0.08,-0.04 0.08,-0.038 0.079,-0.038ZM0.058,-0C0.059,-0 0.059,-0.002 0.058,-0.002C0.057,-0.002 0.057,-0 0.058,-0Z" style="fill-rule:nonzero;"/>
        </g>
        <g transform="matrix(24,0,0,24,226.821,92.7303)">
            <path d="M0.18,-0.189C0.163,-0.161 0.143,-0.064 0.134,-0.055L0.133,-0.055C0.125,-0.055 0.108,-0.16 0.082,-0.164L0.081,-0.165L0.08,-0.165C0.062,-0.165 0.044,-0.106 0.039,-0.094L0.038,-0.093C0.035,-0.088 0.031,-0.074 0.03,-0.072C0.031,-0.069 0.024,-0.057 0.024,-0.056L0.022,-0.056L0.022,-0.055L0.023,-0.053C0.022,-0.048 0.017,-0.038 0.017,-0.032C0.017,-0.026 0.022,-0.028 0.025,-0.024C0.026,-0.024 0.032,-0.023 0.033,-0.023L0.034,-0.023C0.045,-0.023 0.051,-0.058 0.053,-0.067C0.055,-0.068 0.058,-0.077 0.058,-0.08C0.064,-0.096 0.077,-0.112 0.081,-0.129L0.082,-0.128C0.088,-0.122 0.087,-0.108 0.092,-0.101C0.098,-0.085 0.112,-0.018 0.142,-0.018L0.149,-0.018C0.162,-0.02 0.152,-0.066 0.163,-0.07C0.163,-0.071 0.165,-0.077 0.165,-0.079C0.165,-0.081 0.164,-0.081 0.166,-0.083L0.173,-0.108L0.174,-0.11L0.174,-0.111C0.174,-0.112 0.176,-0.12 0.177,-0.122C0.183,-0.125 0.204,-0.175 0.204,-0.183C0.204,-0.185 0.203,-0.187 0.202,-0.188C0.201,-0.189 0.198,-0.191 0.198,-0.191L0.197,-0.19C0.194,-0.192 0.192,-0.192 0.189,-0.192L0.185,-0.192C0.184,-0.19 0.18,-0.189 0.18,-0.189ZM0.2,-0.183C0.2,-0.182 0.199,-0.182 0.199,-0.183L0.2,-0.183ZM0.177,-0.169C0.176,-0.169 0.176,-0.171 0.177,-0.171C0.178,-0.171 0.178,-0.169 0.177,-0.169ZM0.18,-0.163C0.179,-0.163 0.179,-0.165 0.18,-0.165C0.181,-0.165 0.181,-0.163 0.18,-0.163ZM0.075,-0.148C0.074,-0.148 0.074,-0.15 0.075,-0.15C0.076,-0.15 0.076,-0.148 0.075,-0.148ZM0.164,-0.146C0.163,-0.146 0.163,-0.148 0.164,-0.148C0.165,-0.148 0.165,-0.146 0.164,-0.146ZM0.09,-0.144C0.089,-0.144 0.089,-0.146 0.09,-0.146C0.091,-0.146 0.091,-0.144 0.09,-0.144ZM0.163,-0.14C0.162,-0.14 0.162,-0.142 0.163,-0.142C0.164,-0.142 0.164,-0.14 0.163,-0.14ZM0.063,-0.133C0.062,-0.133 0.062,-0.135 0.063,-0.135C0.064,-0.135 0.064,-0.133 0.063,-0.133ZM0.173,-0.126C0.172,-0.126 0.172,-0.128 0.173,-0.128C0.174,-0.128 0.174,-0.126 0.173,-0.126ZM0.063,-0.124C0.062,-0.124 0.062,-0.126 0.063,-0.126C0.064,-0.126 0.064,-0.124 0.063,-0.124ZM0.1,-0.122C0.099,-0.122 0.099,-0.123 0.1,-0.123L0.1,-0.122ZM0.173,-0.118C0.172,-0.118 0.172,-0.12 0.173,-0.12C0.174,-0.12 0.174,-0.118 0.173,-0.118ZM0.091,-0.107C0.09,-0.107 0.09,-0.109 0.091,-0.109C0.092,-0.109 0.092,-0.107 0.091,-0.107ZM0.094,-0.099C0.093,-0.099 0.093,-0.101 0.094,-0.101C0.095,-0.101 0.095,-0.099 0.094,-0.099ZM0.163,-0.093C0.162,-0.093 0.162,-0.095 0.163,-0.095C0.164,-0.095 0.164,-0.093 0.163,-0.093ZM0.103,-0.08C0.102,-0.08 0.102,-0.082 0.103,-0.082C0.104,-0.082 0.104,-0.08 0.103,-0.08ZM0.041,-0.079C0.04,-0.079 0.04,-0.081 0.041,-0.081C0.042,-0.081 0.042,-0.079 0.041,-0.079ZM0.046,-0.079C0.045,-0.079 0.045,-0.081 0.046,-0.081C0.047,-0.081 0.047,-0.079 0.046,-0.079ZM0.144,-0.076C0.143,-0.076 0.143,-0.078 0.144,-0.078C0.145,-0.078 0.145,-0.076 0.144,-0.076ZM0.056,-0.074C0.055,-0.074 0.055,-0.076 0.056,-0.076C0.057,-0.076 0.057,-0.074 0.056,-0.074ZM0.141,-0.074C0.14,-0.074 0.14,-0.076 0.141,-0.076C0.142,-0.076 0.142,-0.074 0.141,-0.074ZM0.12,-0.07C0.119,-0.07 0.119,-0.072 0.12,-0.072C0.121,-0.072 0.121,-0.07 0.12,-0.07ZM0.153,-0.07C0.152,-0.07 0.152,-0.072 0.153,-0.072C0.154,-0.072 0.154,-0.07 0.153,-0.07ZM0.146,-0.067C0.145,-0.067 0.145,-0.069 0.146,-0.069C0.147,-0.069 0.147,-0.067 0.146,-0.067ZM0.124,-0.06C0.123,-0.06 0.123,-0.062 0.124,-0.062C0.125,-0.062 0.125,-0.06 0.124,-0.06ZM0.047,-0.059C0.046,-0.059 0.046,-0.061 0.047,-0.061C0.048,-0.061 0.048,-0.059 0.047,-0.059ZM0.029,-0.057C0.028,-0.057 0.028,-0.059 0.029,-0.059C0.03,-0.059 0.03,-0.057 0.029,-0.057ZM0.139,-0.048C0.138,-0.048 0.138,-0.05 0.139,-0.05C0.14,-0.05 0.14,-0.048 0.139,-0.048ZM0.079,-0.046C0.08,-0.046 0.08,-0.048 0.079,-0.048C0.078,-0.048 0.078,-0.046 0.079,-0.046ZM0.14,-0.046C0.139,-0.046 0.139,-0.048 0.14,-0.048C0.141,-0.048 0.141,-0.046 0.14,-0.046ZM0.15,-0.042C0.149,-0.042 0.149,-0.044 0.15,-0.044C0.151,-0.044 0.151,-0.042 0.15,-0.042ZM0.145,-0.04C0.144,-0.04 0.144,-0.042 0.145,-0.042C0.146,-0.042 0.146,-0.04 0.145,-0.04ZM0.142,-0.038C0.141,-0.038 0.141,-0.04 0.142,-0.04C0.143,-0.04 0.143,-0.038 0.142,-0.038ZM0.151,-0.026C0.15,-0.026 0.15,-0.028 0.151,-0.028C0.152,-0.028 0.152,-0.026 0.151,-0.026ZM0.155,-0.011C0.156,-0.011 0.156,-0.013 0.155,-0.013C0.154,-0.013 0.154,-0.011 0.155,-0.011Z" style="fill-rule:nonzero;"/>
        </g>
        <g transform="matrix(24,0,0,24,231.861,92.7303)">
            <path d="M0.129,-0.203C0.129,-0.199 0.13,-0.197 0.131,-0.193C0.133,-0.176 0.127,-0.158 0.124,-0.141C0.13,-0.126 0.106,-0.076 0.1,-0.06C0.101,-0.059 0.1,-0.057 0.098,-0.057C0.094,-0.046 0.083,-0.022 0.067,-0.02C0.05,-0.018 0.044,-0.062 0.043,-0.071C0.042,-0.075 0.044,-0.081 0.043,-0.085C0.041,-0.091 0.028,-0.093 0.023,-0.092L0.022,-0.091C0.021,-0.092 0.019,-0.092 0.018,-0.092C0.016,-0.092 0.015,-0.092 0.013,-0.09C0.013,-0.088 0.015,-0.078 0.015,-0.075C0.018,-0.052 0.028,-0.039 0.036,-0.018C0.044,-0.011 0.06,-0.003 0.073,-0.004C0.073,-0.005 0.076,-0.006 0.077,-0.006L0.082,-0.006C0.094,-0.008 0.113,-0.021 0.112,-0.032L0.114,-0.032C0.115,-0.036 0.144,-0.117 0.145,-0.118L0.144,-0.119C0.15,-0.128 0.146,-0.14 0.152,-0.149L0.153,-0.149L0.154,-0.154L0.153,-0.154C0.157,-0.159 0.157,-0.17 0.157,-0.175L0.156,-0.177C0.155,-0.185 0.16,-0.193 0.159,-0.202C0.158,-0.209 0.144,-0.212 0.136,-0.211C0.132,-0.21 0.128,-0.206 0.129,-0.203ZM0.136,-0.18C0.135,-0.179 0.134,-0.181 0.135,-0.181C0.136,-0.181 0.137,-0.18 0.136,-0.18ZM0.134,-0.165C0.133,-0.165 0.133,-0.167 0.134,-0.167C0.135,-0.167 0.135,-0.165 0.134,-0.165ZM0.154,-0.165C0.153,-0.165 0.153,-0.167 0.154,-0.167C0.155,-0.167 0.155,-0.165 0.154,-0.165ZM0.129,-0.153C0.128,-0.153 0.128,-0.155 0.129,-0.155C0.13,-0.155 0.13,-0.153 0.129,-0.153ZM0.129,-0.149C0.128,-0.149 0.128,-0.15 0.129,-0.151C0.13,-0.151 0.13,-0.149 0.129,-0.149ZM0.127,-0.144C0.126,-0.144 0.126,-0.146 0.127,-0.146C0.128,-0.146 0.128,-0.144 0.127,-0.144ZM0.123,-0.13C0.122,-0.13 0.122,-0.132 0.123,-0.132C0.124,-0.132 0.124,-0.131 0.123,-0.13ZM0.111,-0.081C0.11,-0.081 0.11,-0.083 0.111,-0.083C0.112,-0.083 0.112,-0.082 0.111,-0.081ZM0.042,-0.062C0.041,-0.062 0.04,-0.064 0.041,-0.064C0.042,-0.064 0.043,-0.063 0.042,-0.062ZM0.036,-0.023C0.035,-0.023 0.035,-0.025 0.036,-0.025C0.037,-0.025 0.037,-0.023 0.036,-0.023ZM0.081,-0.006C0.08,-0.006 0.079,-0.008 0.08,-0.008C0.081,-0.008 0.082,-0.006 0.081,-0.006Z" style="fill-rule:nonzero;"/>
        </g>
        <g transform="matrix(24,0,0,24,236.157,92.7303)">
            <path d="M0.031,-0.19C0.031,-0.189 0.042,-0.184 0.042,-0.184L0.04,-0.18L0.039,-0.18C0.036,-0.148 0.018,-0.12 0.018,-0.085C0.018,-0.056 0.019,-0.014 0.059,-0.014C0.096,-0.014 0.105,-0.092 0.105,-0.119L0.105,-0.122L0.104,-0.124C0.104,-0.125 0.105,-0.131 0.105,-0.132L0.105,-0.133C0.105,-0.147 0.099,-0.162 0.094,-0.175C0.075,-0.186 0.067,-0.199 0.04,-0.199C0.036,-0.199 0.031,-0.195 0.031,-0.19ZM0.049,-0.13C0.05,-0.134 0.057,-0.174 0.069,-0.174L0.074,-0.167C0.072,-0.157 0.082,-0.132 0.082,-0.121L0.082,-0.107C0.082,-0.106 0.081,-0.103 0.081,-0.102L0.08,-0.101L0.081,-0.099C0.081,-0.09 0.068,-0.03 0.054,-0.03C0.049,-0.03 0.05,-0.042 0.045,-0.042L0.046,-0.043C0.046,-0.052 0.042,-0.061 0.043,-0.07C0.042,-0.071 0.042,-0.072 0.042,-0.073C0.042,-0.089 0.052,-0.115 0.049,-0.13ZM0.074,-0.168C0.073,-0.168 0.073,-0.17 0.074,-0.17C0.075,-0.17 0.075,-0.168 0.074,-0.168ZM0.079,-0.168C0.078,-0.168 0.078,-0.17 0.079,-0.17C0.08,-0.17 0.08,-0.168 0.079,-0.168ZM0.092,-0.162C0.091,-0.162 0.091,-0.164 0.092,-0.164C0.093,-0.164 0.093,-0.162 0.092,-0.162ZM0.089,-0.157C0.088,-0.157 0.088,-0.159 0.089,-0.159C0.09,-0.159 0.09,-0.157 0.089,-0.157ZM0.095,-0.152C0.094,-0.152 0.094,-0.154 0.095,-0.154C0.096,-0.154 0.096,-0.152 0.095,-0.152ZM0.082,-0.147C0.081,-0.147 0.081,-0.149 0.082,-0.149C0.083,-0.149 0.083,-0.147 0.082,-0.147ZM0.03,-0.146C0.029,-0.146 0.029,-0.148 0.03,-0.148C0.031,-0.148 0.031,-0.146 0.03,-0.146ZM0.098,-0.138C0.097,-0.138 0.097,-0.14 0.098,-0.14C0.099,-0.14 0.099,-0.138 0.098,-0.138ZM0.101,-0.13C0.1,-0.13 0.1,-0.132 0.101,-0.132C0.102,-0.132 0.102,-0.13 0.101,-0.13ZM0.086,-0.128C0.085,-0.128 0.085,-0.13 0.086,-0.13C0.087,-0.13 0.087,-0.128 0.086,-0.128ZM0.103,-0.128C0.102,-0.128 0.102,-0.13 0.103,-0.13C0.104,-0.13 0.104,-0.128 0.103,-0.128ZM0.1,-0.121C0.099,-0.121 0.099,-0.123 0.1,-0.123C0.101,-0.123 0.101,-0.121 0.1,-0.121ZM0.087,-0.109C0.086,-0.109 0.086,-0.111 0.087,-0.111C0.088,-0.111 0.088,-0.109 0.087,-0.109ZM0.1,-0.104C0.099,-0.104 0.099,-0.106 0.1,-0.106C0.101,-0.106 0.101,-0.104 0.1,-0.104ZM0.088,-0.098C0.087,-0.098 0.087,-0.1 0.088,-0.1C0.089,-0.1 0.089,-0.098 0.088,-0.098ZM0.08,-0.087C0.079,-0.087 0.079,-0.089 0.08,-0.089C0.081,-0.089 0.081,-0.087 0.08,-0.087ZM0.023,-0.084C0.022,-0.084 0.022,-0.086 0.023,-0.086C0.024,-0.086 0.024,-0.084 0.023,-0.084ZM0.096,-0.083C0.095,-0.083 0.095,-0.085 0.096,-0.085C0.097,-0.085 0.097,-0.083 0.096,-0.083ZM0.039,-0.07C0.038,-0.07 0.038,-0.072 0.039,-0.072C0.04,-0.072 0.04,-0.07 0.039,-0.07ZM0.04,-0.068C0.039,-0.068 0.039,-0.07 0.04,-0.07C0.041,-0.07 0.041,-0.068 0.04,-0.068ZM0.02,-0.067C0.019,-0.067 0.019,-0.068 0.02,-0.068C0.021,-0.068 0.021,-0.067 0.02,-0.067ZM0.039,-0.047C0.038,-0.047 0.038,-0.049 0.039,-0.049C0.04,-0.049 0.04,-0.047 0.039,-0.047ZM0.089,-0.046C0.088,-0.046 0.088,-0.048 0.089,-0.048C0.09,-0.048 0.09,-0.046 0.089,-0.046ZM0.042,-0.045C0.041,-0.045 0.041,-0.047 0.042,-0.047C0.043,-0.047 0.043,-0.045 0.042,-0.045ZM0.043,-0.039C0.042,-0.039 0.042,-0.041 0.043,-0.041C0.044,-0.041 0.044,-0.039 0.043,-0.039ZM0.079,-0.038C0.078,-0.038 0.078,-0.04 0.079,-0.04C0.08,-0.04 0.08,-0.038 0.079,-0.038ZM0.058,-0C0.059,-0 0.059,-0.002 0.058,-0.002C0.057,-0.002 0.057,-0 0.058,-0Z" style="fill-rule:nonzero;"/>
        </g>
        <g transform="matrix(24,0,0,24,239.877,92.7303)">
            <path d="M0.022,-0.133C0.019,-0.132 0.016,-0.104 0.016,-0.101C0.016,-0.099 0.017,-0.099 0.017,-0.097L0.017,-0.094C0.017,-0.093 0.016,-0.089 0.016,-0.088C0.016,-0.056 0.028,-0.014 0.068,-0.014L0.068,-0.016C0.077,-0.016 0.085,-0.021 0.092,-0.027C0.107,-0.067 0.165,-0.107 0.165,-0.155L0.165,-0.156L0.164,-0.158L0.164,-0.159C0.164,-0.162 0.166,-0.163 0.166,-0.168C0.166,-0.173 0.165,-0.183 0.158,-0.183C0.135,-0.183 0.101,-0.046 0.061,-0.036L0.059,-0.037C0.058,-0.037 0.057,-0.036 0.056,-0.036L0.055,-0.036C0.04,-0.036 0.039,-0.058 0.039,-0.068L0.039,-0.073L0.04,-0.074C0.039,-0.08 0.039,-0.083 0.039,-0.089C0.039,-0.118 0.063,-0.144 0.063,-0.171C0.063,-0.178 0.052,-0.187 0.046,-0.187C0.045,-0.187 0.042,-0.186 0.042,-0.186C0.033,-0.181 0.025,-0.141 0.022,-0.133ZM0.152,-0.172C0.151,-0.172 0.151,-0.174 0.152,-0.174C0.154,-0.174 0.154,-0.172 0.152,-0.172ZM0.048,-0.164C0.047,-0.164 0.047,-0.166 0.048,-0.166C0.05,-0.166 0.05,-0.164 0.048,-0.164ZM0.144,-0.158C0.143,-0.158 0.143,-0.16 0.144,-0.16C0.146,-0.16 0.146,-0.158 0.144,-0.158ZM0.149,-0.156C0.148,-0.156 0.148,-0.158 0.149,-0.158C0.15,-0.158 0.15,-0.156 0.149,-0.156ZM0.134,-0.144C0.133,-0.144 0.133,-0.147 0.134,-0.147C0.135,-0.147 0.135,-0.144 0.134,-0.144ZM0.137,-0.131C0.135,-0.131 0.135,-0.133 0.137,-0.133C0.138,-0.133 0.138,-0.131 0.137,-0.131ZM0.025,-0.112C0.024,-0.112 0.024,-0.114 0.025,-0.114C0.026,-0.114 0.026,-0.112 0.025,-0.112ZM0.121,-0.1C0.121,-0.1 0.119,-0.1 0.12,-0.1C0.12,-0.101 0.121,-0.101 0.121,-0.1ZM0.132,-0.094C0.131,-0.094 0.131,-0.096 0.132,-0.096C0.133,-0.096 0.133,-0.094 0.132,-0.094ZM0.128,-0.091C0.126,-0.091 0.126,-0.094 0.128,-0.094C0.129,-0.094 0.129,-0.091 0.128,-0.091ZM0.031,-0.089C0.03,-0.089 0.03,-0.091 0.031,-0.091C0.033,-0.091 0.033,-0.089 0.031,-0.089ZM0.036,-0.088C0.035,-0.088 0.035,-0.09 0.036,-0.09C0.037,-0.09 0.037,-0.088 0.036,-0.088ZM0.107,-0.082C0.106,-0.082 0.106,-0.085 0.107,-0.085C0.108,-0.085 0.108,-0.082 0.107,-0.082ZM0.026,-0.064C0.025,-0.064 0.025,-0.066 0.026,-0.066C0.027,-0.066 0.027,-0.064 0.026,-0.064ZM0.112,-0.061C0.111,-0.061 0.111,-0.063 0.112,-0.063C0.113,-0.063 0.113,-0.061 0.112,-0.061ZM0.022,-0.056C0.021,-0.056 0.021,-0.059 0.022,-0.059C0.024,-0.059 0.024,-0.056 0.022,-0.056ZM0.109,-0.052C0.108,-0.052 0.108,-0.054 0.109,-0.054C0.111,-0.054 0.111,-0.052 0.109,-0.052ZM0.088,-0.048C0.087,-0.048 0.087,-0.051 0.088,-0.051C0.089,-0.051 0.089,-0.048 0.088,-0.048ZM0.1,-0.043C0.099,-0.043 0.099,-0.045 0.1,-0.045C0.102,-0.045 0.102,-0.043 0.1,-0.043ZM0.028,-0.038C0.027,-0.038 0.027,-0.04 0.028,-0.04C0.029,-0.04 0.029,-0.038 0.028,-0.038ZM0.072,-0.031C0.071,-0.031 0.071,-0.034 0.072,-0.034C0.073,-0.034 0.073,-0.031 0.072,-0.031ZM0.025,-0.028C0.026,-0.028 0.026,-0.03 0.025,-0.03C0.024,-0.03 0.024,-0.028 0.025,-0.028ZM0.082,-0.026C0.081,-0.026 0.081,-0.028 0.082,-0.028C0.083,-0.028 0.083,-0.026 0.082,-0.026Z" style="fill-rule:nonzero;"/>
        </g>
        <g transform="matrix(24,0,0,24,243.573,92.7303)">
            <path d="M0.118,-0.191C0.114,-0.191 0.105,-0.202 0.098,-0.202C0.091,-0.202 0.088,-0.19 0.088,-0.184L0.086,-0.184C0.086,-0.184 0.088,-0.183 0.088,-0.182C0.088,-0.178 0.082,-0.168 0.083,-0.164C0.078,-0.142 0.07,-0.125 0.057,-0.105C0.058,-0.105 0.045,-0.08 0.045,-0.079C0.045,-0.079 0.044,-0.079 0.044,-0.078C0.038,-0.059 0.031,-0.043 0.031,-0.023L0.031,-0.016C0.033,-0.012 0.044,-0.005 0.048,-0.005C0.051,-0.005 0.053,-0.006 0.056,-0.006C0.068,-0.028 0.069,-0.068 0.087,-0.085C0.087,-0.086 0.089,-0.086 0.089,-0.085C0.088,-0.086 0.088,-0.087 0.088,-0.087C0.088,-0.09 0.089,-0.098 0.092,-0.098C0.097,-0.098 0.1,-0.085 0.104,-0.082C0.109,-0.076 0.121,-0.061 0.127,-0.051C0.128,-0.05 0.128,-0.049 0.13,-0.048C0.129,-0.048 0.128,-0.047 0.128,-0.045L0.131,-0.045C0.148,-0.045 0.151,0.001 0.174,-0.004C0.179,-0.006 0.183,-0.009 0.183,-0.014C0.183,-0.02 0.153,-0.053 0.152,-0.054C0.151,-0.057 0.147,-0.061 0.146,-0.061L0.145,-0.061C0.145,-0.067 0.132,-0.081 0.131,-0.082C0.132,-0.084 0.123,-0.092 0.123,-0.096C0.124,-0.097 0.128,-0.099 0.129,-0.099C0.129,-0.1 0.133,-0.098 0.133,-0.098C0.14,-0.098 0.152,-0.113 0.152,-0.119C0.166,-0.119 0.178,-0.171 0.178,-0.182C0.178,-0.2 0.158,-0.196 0.155,-0.204C0.154,-0.205 0.147,-0.205 0.145,-0.205L0.144,-0.205C0.134,-0.205 0.127,-0.191 0.118,-0.191ZM0.098,-0.114C0.098,-0.13 0.132,-0.186 0.151,-0.186C0.152,-0.186 0.152,-0.185 0.152,-0.184C0.152,-0.155 0.129,-0.114 0.098,-0.114ZM0.094,-0.178C0.093,-0.178 0.093,-0.18 0.094,-0.18C0.095,-0.18 0.095,-0.178 0.094,-0.178ZM0.172,-0.16C0.171,-0.16 0.171,-0.162 0.172,-0.162C0.173,-0.162 0.173,-0.16 0.172,-0.16ZM0.166,-0.143C0.165,-0.143 0.165,-0.145 0.166,-0.145C0.167,-0.145 0.167,-0.143 0.166,-0.143ZM0.159,-0.14C0.158,-0.14 0.158,-0.142 0.159,-0.142C0.16,-0.142 0.16,-0.14 0.159,-0.14ZM0.123,-0.111C0.122,-0.111 0.122,-0.113 0.123,-0.113C0.124,-0.113 0.124,-0.111 0.123,-0.111ZM0.066,-0.11C0.065,-0.11 0.065,-0.112 0.066,-0.112C0.067,-0.112 0.067,-0.11 0.066,-0.11ZM0.127,-0.108C0.126,-0.108 0.126,-0.11 0.127,-0.11C0.128,-0.11 0.128,-0.108 0.127,-0.108ZM0.132,-0.102C0.131,-0.102 0.131,-0.104 0.132,-0.104C0.133,-0.104 0.133,-0.102 0.132,-0.102ZM0.086,-0.099C0.085,-0.099 0.085,-0.101 0.086,-0.101C0.087,-0.101 0.087,-0.099 0.086,-0.099ZM0.054,-0.09C0.053,-0.09 0.053,-0.092 0.054,-0.092C0.055,-0.092 0.055,-0.09 0.054,-0.09ZM0.073,-0.084C0.072,-0.084 0.072,-0.086 0.073,-0.085C0.074,-0.085 0.074,-0.085 0.073,-0.084ZM0.118,-0.081C0.117,-0.081 0.117,-0.083 0.118,-0.083C0.119,-0.083 0.119,-0.081 0.118,-0.081ZM0.129,-0.079C0.128,-0.079 0.128,-0.081 0.129,-0.081C0.13,-0.081 0.13,-0.079 0.129,-0.079ZM0.074,-0.068C0.073,-0.068 0.073,-0.07 0.074,-0.07C0.075,-0.07 0.075,-0.068 0.074,-0.068ZM0.076,-0.06C0.075,-0.06 0.075,-0.062 0.076,-0.062C0.077,-0.062 0.077,-0.06 0.076,-0.06ZM0.072,-0.057C0.071,-0.057 0.071,-0.059 0.072,-0.059C0.073,-0.059 0.073,-0.057 0.072,-0.057ZM0.14,-0.054C0.139,-0.054 0.139,-0.056 0.14,-0.056C0.141,-0.056 0.141,-0.054 0.14,-0.054ZM0.036,-0.043C0.035,-0.043 0.035,-0.045 0.036,-0.045C0.037,-0.045 0.037,-0.043 0.036,-0.043ZM0.064,-0.042C0.063,-0.042 0.063,-0.044 0.064,-0.044C0.065,-0.044 0.065,-0.042 0.064,-0.042ZM0,-0.037C0.001,-0.037 0.001,-0.039 0,-0.039C-0.001,-0.039 -0.001,-0.037 0,-0.037ZM0.147,-0.034C0.146,-0.034 0.146,-0.036 0.147,-0.036C0.148,-0.036 0.148,-0.034 0.147,-0.034ZM0.034,-0.029L0.033,-0.029C0.033,-0.03 0.034,-0.03 0.034,-0.029ZM0.148,-0.027C0.147,-0.027 0.147,-0.029 0.148,-0.029C0.149,-0.029 0.149,-0.027 0.148,-0.027ZM0.006,0.023C0.007,0.023 0.007,0.021 0.006,0.021C0.005,0.021 0.005,0.023 0.006,0.023Z" style="fill-rule:nonzero;"/>
        </g>
        <g transform="matrix(24,0,0,24,253.221,92.7303)">
            <path d="M0.158,-0.215C0.14,-0.198 0.125,-0.18 0.107,-0.163C0.106,-0.164 0.096,-0.151 0.093,-0.149C0.087,-0.145 0.077,-0.133 0.068,-0.133C0.052,-0.133 0.05,-0.203 0.014,-0.203C0.01,-0.203 0.007,-0.2 0.007,-0.196C0.007,-0.175 0.042,-0.119 0.06,-0.113L0.06,-0.108C0.06,-0.078 0.046,-0.051 0.046,-0.023L0.046,-0.018C0.047,-0.017 0.048,-0.016 0.048,-0.015C0.055,-0.009 0.063,-0.008 0.072,-0.008C0.076,-0.008 0.078,-0.024 0.078,-0.025C0.078,-0.026 0.077,-0.027 0.077,-0.029C0.077,-0.03 0.077,-0.032 0.078,-0.032C0.078,-0.033 0.077,-0.036 0.077,-0.037L0.077,-0.038C0.077,-0.051 0.084,-0.065 0.084,-0.078C0.09,-0.084 0.091,-0.14 0.112,-0.133C0.117,-0.142 0.135,-0.157 0.144,-0.165C0.142,-0.167 0.155,-0.178 0.157,-0.179C0.159,-0.182 0.18,-0.198 0.186,-0.206L0.196,-0.208C0.199,-0.209 0.199,-0.211 0.199,-0.213C0.199,-0.221 0.18,-0.223 0.174,-0.223C0.167,-0.223 0.164,-0.217 0.158,-0.215ZM0.192,-0.213C0.191,-0.213 0.191,-0.214 0.192,-0.214C0.193,-0.214 0.193,-0.213 0.192,-0.213ZM0.016,-0.2C0.015,-0.2 0.015,-0.202 0.016,-0.202C0.017,-0.202 0.017,-0.2 0.016,-0.2ZM0.167,-0.192C0.166,-0.192 0.166,-0.194 0.167,-0.194C0.168,-0.194 0.168,-0.192 0.167,-0.192ZM0.157,-0.183L0.158,-0.184L0.158,-0.183L0.157,-0.183ZM0.153,-0.179C0.152,-0.179 0.152,-0.181 0.153,-0.181C0.154,-0.181 0.154,-0.179 0.153,-0.179ZM0.128,-0.176C0.127,-0.176 0.127,-0.178 0.128,-0.178C0.129,-0.178 0.129,-0.176 0.128,-0.176ZM0.142,-0.17C0.141,-0.17 0.141,-0.172 0.142,-0.172C0.143,-0.172 0.143,-0.17 0.142,-0.17ZM0.12,-0.168C0.119,-0.168 0.119,-0.17 0.12,-0.17C0.121,-0.17 0.121,-0.168 0.12,-0.168ZM0.11,-0.162C0.109,-0.162 0.109,-0.164 0.11,-0.164C0.111,-0.164 0.111,-0.162 0.11,-0.162ZM0.124,-0.161C0.123,-0.161 0.123,-0.163 0.124,-0.163C0.125,-0.163 0.125,-0.161 0.124,-0.161ZM0.107,-0.159C0.106,-0.159 0.106,-0.161 0.107,-0.161C0.108,-0.161 0.108,-0.159 0.107,-0.159ZM0.051,-0.153C0.05,-0.153 0.05,-0.155 0.051,-0.155C0.052,-0.155 0.052,-0.153 0.051,-0.153ZM0.098,-0.149C0.097,-0.149 0.097,-0.151 0.098,-0.151C0.099,-0.151 0.099,-0.149 0.098,-0.149ZM0.035,-0.148C0.034,-0.148 0.034,-0.15 0.035,-0.15C0.036,-0.15 0.036,-0.148 0.035,-0.148ZM0.112,-0.139C0.111,-0.139 0.111,-0.141 0.112,-0.141C0.113,-0.141 0.113,-0.139 0.112,-0.139ZM0.087,-0.127C0.086,-0.127 0.086,-0.129 0.087,-0.129C0.088,-0.129 0.088,-0.127 0.087,-0.127ZM0.086,-0.093C0.085,-0.093 0.085,-0.095 0.086,-0.095C0.087,-0.095 0.087,-0.093 0.086,-0.093ZM0.068,-0.078C0.067,-0.078 0.067,-0.08 0.068,-0.08C0.069,-0.08 0.069,-0.078 0.068,-0.078ZM0.055,-0.059C0.054,-0.059 0.054,-0.061 0.055,-0.061C0.056,-0.061 0.056,-0.059 0.055,-0.059ZM0.069,-0.044C0.068,-0.044 0.068,-0.046 0.069,-0.046C0.07,-0.046 0.07,-0.044 0.069,-0.044ZM0.055,-0.028C0.054,-0.028 0.054,-0.03 0.055,-0.03C0.056,-0.03 0.056,-0.028 0.055,-0.028ZM0.049,-0.026C0.048,-0.026 0.048,-0.028 0.049,-0.028C0.05,-0.028 0.05,-0.026 0.049,-0.026ZM0.05,-0.021C0.049,-0.021 0.049,-0.023 0.05,-0.023C0.051,-0.023 0.051,-0.021 0.05,-0.021ZM0.058,-0.018C0.057,-0.018 0.057,-0.02 0.058,-0.02C0.059,-0.02 0.059,-0.018 0.058,-0.018Z" style="fill-rule:nonzero;"/>
        </g>
        <g transform="matrix(24,0,0,24,257.325,92.7303)">
            <path d="M0.081,-0.231C0.082,-0.231 0.082,-0.233 0.081,-0.233C0.08,-0.233 0.08,-0.231 0.081,-0.231ZM0.09,-0.204C0.091,-0.204 0.091,-0.206 0.09,-0.206C0.089,-0.206 0.089,-0.204 0.09,-0.204ZM0.07,-0.129C0.068,-0.129 0.067,-0.126 0.068,-0.125C0.065,-0.121 0.046,-0.093 0.048,-0.088C0.038,-0.064 0.017,-0.032 0.015,-0.007C0.018,-0.004 0.032,-0.003 0.037,-0.003C0.06,-0.003 0.054,-0.079 0.087,-0.079L0.089,-0.078C0.099,-0.078 0.114,-0.083 0.124,-0.084C0.125,-0.084 0.128,-0.083 0.129,-0.083C0.139,-0.084 0.138,-0.086 0.142,-0.091C0.146,-0.091 0.154,-0.03 0.16,-0.023L0.164,-0.02C0.164,-0.021 0.166,-0.021 0.166,-0.021C0.171,-0.021 0.174,-0.019 0.178,-0.019C0.184,-0.019 0.191,-0.02 0.191,-0.026C0.191,-0.032 0.184,-0.063 0.178,-0.066C0.18,-0.081 0.169,-0.096 0.169,-0.111L0.17,-0.112L0.17,-0.113C0.17,-0.12 0.149,-0.179 0.145,-0.179C0.145,-0.18 0.146,-0.18 0.146,-0.18L0.146,-0.181C0.146,-0.188 0.135,-0.19 0.128,-0.19C0.098,-0.19 0.082,-0.147 0.07,-0.129ZM0.146,-0.171C0.145,-0.171 0.145,-0.172 0.146,-0.172C0.147,-0.172 0.147,-0.171 0.146,-0.171ZM0.097,-0.161C0.096,-0.161 0.096,-0.163 0.097,-0.163C0.098,-0.163 0.098,-0.161 0.097,-0.161ZM0.08,-0.094C0.08,-0.113 0.111,-0.146 0.122,-0.162L0.123,-0.162C0.123,-0.162 0.125,-0.159 0.125,-0.157C0.126,-0.156 0.127,-0.152 0.127,-0.151C0.129,-0.146 0.135,-0.124 0.136,-0.119C0.134,-0.112 0.142,-0.103 0.142,-0.096C0.139,-0.096 0.137,-0.1 0.133,-0.1C0.116,-0.1 0.1,-0.093 0.084,-0.093L0.08,-0.093L0.08,-0.094ZM0.114,-0.156C0.113,-0.156 0.113,-0.158 0.114,-0.158C0.115,-0.158 0.115,-0.156 0.114,-0.156ZM0.14,-0.149C0.138,-0.149 0.138,-0.151 0.14,-0.151C0.141,-0.151 0.141,-0.149 0.14,-0.149ZM0.088,-0.147C0.087,-0.147 0.087,-0.148 0.088,-0.148C0.089,-0.148 0.089,-0.147 0.088,-0.147ZM0.084,-0.145C0.082,-0.145 0.082,-0.147 0.084,-0.147C0.085,-0.147 0.085,-0.145 0.084,-0.145ZM0.096,-0.14C0.095,-0.14 0.095,-0.142 0.096,-0.142C0.097,-0.142 0.097,-0.14 0.096,-0.14ZM0.09,-0.135C0.089,-0.135 0.089,-0.137 0.09,-0.137C0.091,-0.137 0.091,-0.135 0.09,-0.135ZM0.097,-0.132C0.096,-0.132 0.096,-0.134 0.097,-0.134C0.098,-0.134 0.098,-0.132 0.097,-0.132ZM0.098,-0.129C0.097,-0.129 0.097,-0.13 0.098,-0.13L0.098,-0.129ZM0.143,-0.116C0.142,-0.116 0.142,-0.118 0.143,-0.118C0.144,-0.118 0.144,-0.116 0.143,-0.116ZM0.16,-0.112C0.159,-0.112 0.159,-0.114 0.16,-0.114C0.162,-0.114 0.162,-0.112 0.16,-0.112ZM0.071,-0.108C0.07,-0.108 0.07,-0.109 0.071,-0.109C0.073,-0.109 0.073,-0.108 0.071,-0.108ZM0.144,-0.096C0.143,-0.096 0.143,-0.098 0.144,-0.098C0.145,-0.098 0.145,-0.096 0.144,-0.096ZM0.144,-0.093C0.143,-0.093 0.143,-0.095 0.144,-0.095C0.145,-0.095 0.145,-0.093 0.144,-0.093ZM0.079,-0.092C0.078,-0.092 0.078,-0.093 0.079,-0.093C0.08,-0.093 0.08,-0.092 0.079,-0.092ZM0.109,-0.082C0.108,-0.082 0.108,-0.084 0.109,-0.084C0.11,-0.084 0.11,-0.082 0.109,-0.082ZM0.147,-0.08C0.146,-0.08 0.146,-0.082 0.147,-0.082C0.148,-0.082 0.148,-0.08 0.147,-0.08ZM0.052,-0.056C0.051,-0.056 0.051,-0.058 0.052,-0.058C0.053,-0.058 0.053,-0.056 0.052,-0.056ZM0.047,-0.011C0.046,-0.011 0.046,-0.013 0.047,-0.013C0.048,-0.013 0.048,-0.011 0.047,-0.011ZM0.068,0.031C0.069,0.031 0.069,0.03 0.068,0.03C0.067,0.03 0.067,0.031 0.068,0.031ZM0.075,0.032C0.076,0.032 0.076,0.031 0.075,0.031C0.074,0.031 0.074,0.032 0.075,0.032Z" style="fill-rule:nonzero;"/>
        </g>
        <g transform="matrix(24,0,0,24,262.893,92.7303)">
            <path d="M0.18,-0.189C0.163,-0.161 0.143,-0.064 0.134,-0.055L0.133,-0.055C0.125,-0.055 0.108,-0.16 0.082,-0.164L0.081,-0.165L0.08,-0.165C0.062,-0.165 0.044,-0.106 0.039,-0.094L0.038,-0.093C0.035,-0.088 0.031,-0.074 0.03,-0.072C0.031,-0.069 0.024,-0.057 0.024,-0.056L0.022,-0.056L0.022,-0.055L0.023,-0.053C0.022,-0.048 0.017,-0.038 0.017,-0.032C0.017,-0.026 0.022,-0.028 0.025,-0.024C0.026,-0.024 0.032,-0.023 0.033,-0.023L0.034,-0.023C0.045,-0.023 0.051,-0.058 0.053,-0.067C0.055,-0.068 0.058,-0.077 0.058,-0.08C0.064,-0.096 0.077,-0.112 0.081,-0.129L0.082,-0.128C0.088,-0.122 0.087,-0.108 0.092,-0.101C0.098,-0.085 0.112,-0.018 0.142,-0.018L0.149,-0.018C0.162,-0.02 0.152,-0.066 0.163,-0.07C0.163,-0.071 0.165,-0.077 0.165,-0.079C0.165,-0.081 0.164,-0.081 0.166,-0.083L0.173,-0.108L0.174,-0.11L0.174,-0.111C0.174,-0.112 0.176,-0.12 0.177,-0.122C0.183,-0.125 0.204,-0.175 0.204,-0.183C0.204,-0.185 0.203,-0.187 0.202,-0.188C0.201,-0.189 0.198,-0.191 0.198,-0.191L0.197,-0.19C0.194,-0.192 0.192,-0.192 0.189,-0.192L0.185,-0.192C0.184,-0.19 0.18,-0.189 0.18,-0.189ZM0.2,-0.183C0.2,-0.182 0.199,-0.182 0.199,-0.183L0.2,-0.183ZM0.177,-0.169C0.176,-0.169 0.176,-0.171 0.177,-0.171C0.178,-0.171 0.178,-0.169 0.177,-0.169ZM0.18,-0.163C0.179,-0.163 0.179,-0.165 0.18,-0.165C0.181,-0.165 0.181,-0.163 0.18,-0.163ZM0.075,-0.148C0.074,-0.148 0.074,-0.15 0.075,-0.15C0.076,-0.15 0.076,-0.148 0.075,-0.148ZM0.164,-0.146C0.163,-0.146 0.163,-0.148 0.164,-0.148C0.165,-0.148 0.165,-0.146 0.164,-0.146ZM0.09,-0.144C0.089,-0.144 0.089,-0.146 0.09,-0.146C0.091,-0.146 0.091,-0.144 0.09,-0.144ZM0.163,-0.14C0.162,-0.14 0.162,-0.142 0.163,-0.142C0.164,-0.142 0.164,-0.14 0.163,-0.14ZM0.063,-0.133C0.062,-0.133 0.062,-0.135 0.063,-0.135C0.064,-0.135 0.064,-0.133 0.063,-0.133ZM0.173,-0.126C0.172,-0.126 0.172,-0.128 0.173,-0.128C0.174,-0.128 0.174,-0.126 0.173,-0.126ZM0.063,-0.124C0.062,-0.124 0.062,-0.126 0.063,-0.126C0.064,-0.126 0.064,-0.124 0.063,-0.124ZM0.1,-0.122C0.099,-0.122 0.099,-0.123 0.1,-0.123L0.1,-0.122ZM0.173,-0.118C0.172,-0.118 0.172,-0.12 0.173,-0.12C0.174,-0.12 0.174,-0.118 0.173,-0.118ZM0.091,-0.107C0.09,-0.107 0.09,-0.109 0.091,-0.109C0.092,-0.109 0.092,-0.107 0.091,-0.107ZM0.094,-0.099C0.093,-0.099 0.093,-0.101 0.094,-0.101C0.095,-0.101 0.095,-0.099 0.094,-0.099ZM0.163,-0.093C0.162,-0.093 0.162,-0.095 0.163,-0.095C0.164,-0.095 0.164,-0.093 0.163,-0.093ZM0.103,-0.08C0.102,-0.08 0.102,-0.082 0.103,-0.082C0.104,-0.082 0.104,-0.08 0.103,-0.08ZM0.041,-0.079C0.04,-0.079 0.04,-0.081 0.041,-0.081C0.042,-0.081 0.042,-0.079 0.041,-0.079ZM0.046,-0.079C0.045,-0.079 0.045,-0.081 0.046,-0.081C0.047,-0.081 0.047,-0.079 0.046,-0.079ZM0.144,-0.076C0.143,-0.076 0.143,-0.078 0.144,-0.078C0.145,-0.078 0.145,-0.076 0.144,-0.076ZM0.056,-0.074C0.055,-0.074 0.055,-0.076 0.056,-0.076C0.057,-0.076 0.057,-0.074 0.056,-0.074ZM0.141,-0.074C0.14,-0.074 0.14,-0.076 0.141,-0.076C0.142,-0.076 0.142,-0.074 0.141,-0.074ZM0.12,-0.07C0.119,-0.07 0.119,-0.072 0.12,-0.072C0.121,-0.072 0.121,-0.07 0.12,-0.07ZM0.153,-0.07C0.152,-0.07 0.152,-0.072 0.153,-0.072C0.154,-0.072 0.154,-0.07 0.153,-0.07ZM0.146,-0.067C0.145,-0.067 0.145,-0.069 0.146,-0.069C0.147,-0.069 0.147,-0.067 0.146,-0.067ZM0.124,-0.06C0.123,-0.06 0.123,-0.062 0.124,-0.062C0.125,-0.062 0.125,-0.06 0.124,-0.06ZM0.047,-0.059C0.046,-0.059 0.046,-0.061 0.047,-0.061C0.048,-0.061 0.048,-0.059 0.047,-0.059ZM0.029,-0.057C0.028,-0.057 0.028,-0.059 0.029,-0.059C0.03,-0.059 0.03,-0.057 0.029,-0.057ZM0.139,-0.048C0.138,-0.048 0.138,-0.05 0.139,-0.05C0.14,-0.05 0.14,-0.048 0.139,-0.048ZM0.079,-0.046C0.08,-0.046 0.08,-0.048 0.079,-0.048C0.078,-0.048 0.078,-0.046 0.079,-0.046ZM0.14,-0.046C0.139,-0.046 0.139,-0.048 0.14,-0.048C0.141,-0.048 0.141,-0.046 0.14,-0.046ZM0.15,-0.042C0.149,-0.042 0.149,-0.044 0.15,-0.044C0.151,-0.044 0.151,-0.042 0.15,-0.042ZM0.145,-0.04C0.144,-0.04 0.144,-0.042 0.145,-0.042C0.146,-0.042 0.146,-0.04 0.145,-0.04ZM0.142,-0.038C0.141,-0.038 0.141,-0.04 0.142,-0.04C0.143,-0.04 0.143,-0.038 0.142,-0.038ZM0.151,-0.026C0.15,-0.026 0.15,-0.028 0.151,-0.028C0.152,-0.028 0.152,-0.026 0.151,-0.026ZM0.155,-0.011C0.156,-0.011 0.156,-0.013 0.155,-0.013C0.154,-0.013 0.154,-0.011 0.155,-0.011Z" style="fill-rule:nonzero;"/>
        </g>
        <g transform="matrix(24,0,0,24,268.317,92.7303)">
            <path d="M0.18,-0.189C0.163,-0.161 0.143,-0.064 0.134,-0.055L0.133,-0.055C0.125,-0.055 0.108,-0.16 0.082,-0.164L0.081,-0.165L0.08,-0.165C0.062,-0.165 0.044,-0.106 0.039,-0.094L0.038,-0.093C0.035,-0.088 0.031,-0.074 0.03,-0.072C0.031,-0.069 0.024,-0.057 0.024,-0.056L0.022,-0.056L0.022,-0.055L0.023,-0.053C0.022,-0.048 0.017,-0.038 0.017,-0.032C0.017,-0.026 0.022,-0.028 0.025,-0.024C0.026,-0.024 0.032,-0.023 0.033,-0.023L0.034,-0.023C0.045,-0.023 0.051,-0.058 0.053,-0.067C0.055,-0.068 0.058,-0.077 0.058,-0.08C0.064,-0.096 0.077,-0.112 0.081,-0.129L0.082,-0.128C0.088,-0.122 0.087,-0.108 0.092,-0.101C0.098,-0.085 0.112,-0.018 0.142,-0.018L0.149,-0.018C0.162,-0.02 0.152,-0.066 0.163,-0.07C0.163,-0.071 0.165,-0.077 0.165,-0.079C0.165,-0.081 0.164,-0.081 0.166,-0.083L0.173,-0.108L0.174,-0.11L0.174,-0.111C0.174,-0.112 0.176,-0.12 0.177,-0.122C0.183,-0.125 0.204,-0.175 0.204,-0.183C0.204,-0.185 0.203,-0.187 0.202,-0.188C0.201,-0.189 0.198,-0.191 0.198,-0.191L0.197,-0.19C0.194,-0.192 0.192,-0.192 0.189,-0.192L0.185,-0.192C0.184,-0.19 0.18,-0.189 0.18,-0.189ZM0.2,-0.183C0.2,-0.182 0.199,-0.182 0.199,-0.183L0.2,-0.183ZM0.177,-0.169C0.176,-0.169 0.176,-0.171 0.177,-0.171C0.178,-0.171 0.178,-0.169 0.177,-0.169ZM0.18,-0.163C0.179,-0.163 0.179,-0.165 0.18,-0.165C0.181,-0.165 0.181,-0.163 0.18,-0.163ZM0.075,-0.148C0.074,-0.148 0.074,-0.15 0.075,-0.15C0.076,-0.15 0.076,-0.148 0.075,-0.148ZM0.164,-0.146C0.163,-0.146 0.163,-0.148 0.164,-0.148C0.165,-0.148 0.165,-0.146 0.164,-0.146ZM0.09,-0.144C0.089,-0.144 0.089,-0.146 0.09,-0.146C0.091,-0.146 0.091,-0.144 0.09,-0.144ZM0.163,-0.14C0.162,-0.14 0.162,-0.142 0.163,-0.142C0.164,-0.142 0.164,-0.14 0.163,-0.14ZM0.063,-0.133C0.062,-0.133 0.062,-0.135 0.063,-0.135C0.064,-0.135 0.064,-0.133 0.063,-0.133ZM0.173,-0.126C0.172,-0.126 0.172,-0.128 0.173,-0.128C0.174,-0.128 0.174,-0.126 0.173,-0.126ZM0.063,-0.124C0.062,-0.124 0.062,-0.126 0.063,-0.126C0.064,-0.126 0.064,-0.124 0.063,-0.124ZM0.1,-0.122C0.099,-0.122 0.099,-0.123 0.1,-0.123L0.1,-0.122ZM0.173,-0.118C0.172,-0.118 0.172,-0.12 0.173,-0.12C0.174,-0.12 0.174,-0.118 0.173,-0.118ZM0.091,-0.107C0.09,-0.107 0.09,-0.109 0.091,-0.109C0.092,-0.109 0.092,-0.107 0.091,-0.107ZM0.094,-0.099C0.093,-0.099 0.093,-0.101 0.094,-0.101C0.095,-0.101 0.095,-0.099 0.094,-0.099ZM0.163,-0.093C0.162,-0.093 0.162,-0.095 0.163,-0.095C0.164,-0.095 0.164,-0.093 0.163,-0.093ZM0.103,-0.08C0.102,-0.08 0.102,-0.082 0.103,-0.082C0.104,-0.082 0.104,-0.08 0.103,-0.08ZM0.041,-0.079C0.04,-0.079 0.04,-0.081 0.041,-0.081C0.042,-0.081 0.042,-0.079 0.041,-0.079ZM0.046,-0.079C0.045,-0.079 0.045,-0.081 0.046,-0.081C0.047,-0.081 0.047,-0.079 0.046,-0.079ZM0.144,-0.076C0.143,-0.076 0.143,-0.078 0.144,-0.078C0.145,-0.078 0.145,-0.076 0.144,-0.076ZM0.056,-0.074C0.055,-0.074 0.055,-0.076 0.056,-0.076C0.057,-0.076 0.057,-0.074 0.056,-0.074ZM0.141,-0.074C0.14,-0.074 0.14,-0.076 0.141,-0.076C0.142,-0.076 0.142,-0.074 0.141,-0.074ZM0.12,-0.07C0.119,-0.07 0.119,-0.072 0.12,-0.072C0.121,-0.072 0.121,-0.07 0.12,-0.07ZM0.153,-0.07C0.152,-0.07 0.152,-0.072 0.153,-0.072C0.154,-0.072 0.154,-0.07 0.153,-0.07ZM0.146,-0.067C0.145,-0.067 0.145,-0.069 0.146,-0.069C0.147,-0.069 0.147,-0.067 0.146,-0.067ZM0.124,-0.06C0.123,-0.06 0.123,-0.062 0.124,-0.062C0.125,-0.062 0.125,-0.06 0.124,-0.06ZM0.047,-0.059C0.046,-0.059 0.046,-0.061 0.047,-0.061C0.048,-0.061 0.048,-0.059 0.047,-0.059ZM0.029,-0.057C0.028,-0.057 0.028,-0.059 0.029,-0.059C0.03,-0.059 0.03,-0.057 0.029,-0.057ZM0.139,-0.048C0.138,-0.048 0.138,-0.05 0.139,-0.05C0.14,-0.05 0.14,-0.048 0.139,-0.048ZM0.079,-0.046C0.08,-0.046 0.08,-0.048 0.079,-0.048C0.078,-0.048 0.078,-0.046 0.079,-0.046ZM0.14,-0.046C0.139,-0.046 0.139,-0.048 0.14,-0.048C0.141,-0.048 0.141,-0.046 0.14,-0.046ZM0.15,-0.042C0.149,-0.042 0.149,-0.044 0.15,-0.044C0.151,-0.044 0.151,-0.042 0.15,-0.042ZM0.145,-0.04C0.144,-0.04 0.144,-0.042 0.145,-0.042C0.146,-0.042 0.146,-0.04 0.145,-0.04ZM0.142,-0.038C0.141,-0.038 0.141,-0.04 0.142,-0.04C0.143,-0.04 0.143,-0.038 0.142,-0.038ZM0.151,-0.026C0.15,-0.026 0.15,-0.028 0.151,-0.028C0.152,-0.028 0.152,-0.026 0.151,-0.026ZM0.155,-0.011C0.156,-0.011 0.156,-0.013 0.155,-0.013C0.154,-0.013 0.154,-0.011 0.155,-0.011Z" style="fill-rule:nonzero;"/>
        </g>
        <g transform="matrix(24,0,0,24,273.741,92.7303)">
            <path d="M0.047,-0.126C0.047,-0.125 0.047,-0.123 0.048,-0.123C0.044,-0.124 0.038,-0.051 0.038,-0.046C0.038,-0.036 0.044,-0.029 0.054,-0.029C0.062,-0.029 0.064,-0.037 0.064,-0.044L0.065,-0.044L0.065,-0.045C0.065,-0.046 0.063,-0.048 0.063,-0.048C0.063,-0.048 0.068,-0.075 0.069,-0.078C0.069,-0.079 0.07,-0.082 0.07,-0.082L0.071,-0.083L0.07,-0.085L0.07,-0.087C0.07,-0.097 0.075,-0.106 0.075,-0.115L0.074,-0.117C0.074,-0.128 0.076,-0.144 0.08,-0.154C0.073,-0.155 0.069,-0.163 0.06,-0.163L0.054,-0.163C0.051,-0.162 0.05,-0.153 0.05,-0.15C0.049,-0.146 0.047,-0.131 0.047,-0.128L0.047,-0.126ZM0.074,-0.141C0.073,-0.141 0.073,-0.143 0.074,-0.143C0.075,-0.143 0.075,-0.141 0.074,-0.141ZM0.019,-0.134L0.02,-0.134L0.02,-0.135L0.019,-0.135L0.019,-0.134ZM0.058,-0.103C0.057,-0.103 0.057,-0.105 0.058,-0.105C0.059,-0.105 0.059,-0.103 0.058,-0.103ZM0.052,-0.091C0.051,-0.091 0.051,-0.093 0.052,-0.093C0.053,-0.093 0.053,-0.091 0.052,-0.091ZM0.06,-0.091C0.059,-0.091 0.059,-0.093 0.06,-0.093C0.061,-0.093 0.061,-0.091 0.06,-0.091ZM0.071,-0.085C0.072,-0.085 0.072,-0.087 0.071,-0.087C0.07,-0.087 0.07,-0.085 0.071,-0.085ZM0.043,-0.083C0.042,-0.083 0.042,-0.085 0.043,-0.085C0.044,-0.085 0.044,-0.083 0.043,-0.083ZM0.045,-0.077C0.044,-0.077 0.044,-0.079 0.045,-0.079C0.046,-0.079 0.046,-0.077 0.045,-0.077ZM0.064,-0.074C0.063,-0.074 0.063,-0.076 0.064,-0.076C0.065,-0.076 0.065,-0.074 0.064,-0.074ZM0.044,-0.069C0.043,-0.069 0.043,-0.071 0.044,-0.071C0.045,-0.071 0.045,-0.069 0.044,-0.069ZM0.041,-0.059C0.04,-0.059 0.04,-0.061 0.041,-0.061C0.042,-0.061 0.042,-0.059 0.041,-0.059ZM0.041,-0.051C0.04,-0.051 0.04,-0.053 0.041,-0.053C0.042,-0.053 0.042,-0.051 0.041,-0.051ZM0.04,-0.049C0.039,-0.049 0.039,-0.051 0.04,-0.051C0.041,-0.051 0.041,-0.049 0.04,-0.049ZM0.06,-0.046C0.059,-0.046 0.059,-0.048 0.06,-0.048C0.061,-0.048 0.061,-0.046 0.06,-0.046ZM0.061,-0.039C0.06,-0.039 0.06,-0.041 0.061,-0.041C0.062,-0.041 0.062,-0.039 0.061,-0.039Z" style="fill-rule:nonzero;"/>
        </g>
        <g transform="matrix(24,0,0,24,276.501,92.7303)">
            <path d="M0.03,-0.088C0.033,-0.082 0.026,-0.057 0.027,-0.048C0.03,-0.031 0.036,-0.024 0.051,-0.014C0.056,-0.016 0.077,-0.007 0.085,-0.009C0.091,-0.01 0.102,-0.014 0.107,-0.019L0.105,-0.02C0.107,-0.021 0.108,-0.021 0.108,-0.023C0.108,-0.026 0.104,-0.029 0.101,-0.029C0.092,-0.028 0.085,-0.023 0.076,-0.022C0.062,-0.02 0.055,-0.033 0.054,-0.045C0.048,-0.084 0.072,-0.147 0.11,-0.171C0.113,-0.173 0.13,-0.183 0.132,-0.185C0.133,-0.185 0.136,-0.186 0.137,-0.186C0.145,-0.187 0.153,-0.184 0.161,-0.183C0.162,-0.184 0.162,-0.186 0.162,-0.187C0.159,-0.194 0.138,-0.202 0.129,-0.201C0.077,-0.194 0.039,-0.13 0.03,-0.088ZM0.076,-0.165C0.076,-0.165 0.075,-0.167 0.076,-0.167C0.077,-0.167 0.077,-0.166 0.076,-0.165ZM0.083,-0.166C0.082,-0.166 0.082,-0.168 0.083,-0.168C0.084,-0.168 0.084,-0.166 0.083,-0.166ZM0.086,-0.167C0.085,-0.166 0.085,-0.168 0.086,-0.168L0.086,-0.167ZM0.083,-0.147C0.082,-0.147 0.082,-0.148 0.083,-0.149C0.083,-0.149 0.084,-0.147 0.083,-0.147ZM0.058,-0.136C0.057,-0.136 0.057,-0.138 0.058,-0.138C0.059,-0.138 0.059,-0.137 0.058,-0.136ZM0.05,-0.131C0.049,-0.131 0.048,-0.133 0.049,-0.133C0.05,-0.133 0.051,-0.131 0.05,-0.131ZM0.046,-0.126C0.045,-0.126 0.044,-0.128 0.045,-0.128C0.046,-0.128 0.047,-0.126 0.046,-0.126ZM0.044,-0.122C0.043,-0.122 0.043,-0.124 0.044,-0.124C0.045,-0.124 0.045,-0.122 0.044,-0.122ZM0.047,-0.115C0.046,-0.115 0.046,-0.117 0.047,-0.117C0.048,-0.117 0.048,-0.116 0.047,-0.115ZM0.041,-0.102C0.04,-0.102 0.04,-0.104 0.041,-0.104C0.042,-0.104 0.042,-0.102 0.041,-0.102ZM0.033,-0.096C0.032,-0.096 0.032,-0.098 0.033,-0.098C0.034,-0.098 0.034,-0.096 0.033,-0.096ZM0.035,-0.096C0.034,-0.096 0.034,-0.098 0.035,-0.098C0.036,-0.098 0.036,-0.096 0.035,-0.096ZM0.055,-0.088C0.054,-0.088 0.054,-0.09 0.055,-0.09C0.056,-0.09 0.056,-0.088 0.055,-0.088ZM0.034,-0.083C0.033,-0.083 0.033,-0.084 0.034,-0.085C0.035,-0.085 0.035,-0.083 0.034,-0.083ZM0.047,-0.073C0.046,-0.073 0.046,-0.075 0.047,-0.075C0.048,-0.075 0.048,-0.073 0.047,-0.073ZM0.083,-0.077C0.083,-0.077 0.083,-0.078 0.082,-0.078C0.082,-0.078 0.082,-0.077 0.083,-0.077ZM0.043,-0.065C0.042,-0.065 0.042,-0.067 0.043,-0.067C0.044,-0.067 0.044,-0.066 0.043,-0.065ZM0.062,-0.058C0.063,-0.058 0.063,-0.059 0.062,-0.059L0.062,-0.058ZM0.029,-0.048C0.028,-0.048 0.028,-0.049 0.029,-0.049C0.03,-0.05 0.03,-0.048 0.029,-0.048ZM0.05,-0.043C0.049,-0.043 0.049,-0.045 0.05,-0.045C0.051,-0.045 0.051,-0.044 0.05,-0.043ZM0.05,-0.042C0.05,-0.041 0.049,-0.041 0.049,-0.042L0.05,-0.042ZM0.038,-0.033C0.037,-0.033 0.037,-0.035 0.038,-0.035C0.039,-0.035 0.039,-0.033 0.038,-0.033ZM0.056,-0.027C0.055,-0.026 0.055,-0.028 0.056,-0.028C0.057,-0.028 0.057,-0.027 0.056,-0.027ZM0.086,-0.012C0.085,-0.012 0.084,-0.014 0.085,-0.014C0.086,-0.014 0.087,-0.012 0.086,-0.012ZM0.057,-0.005C0.058,-0.006 0.058,-0.007 0.057,-0.007C0.056,-0.007 0.056,-0.005 0.057,-0.005ZM0.04,0.023L0.04,0.022C0.039,0.022 0.039,0.023 0.04,0.023ZM0.025,0.027C0.026,0.027 0.026,0.025 0.025,0.025C0.024,0.026 0.024,0.027 0.025,0.027ZM0.035,0.026C0.035,0.026 0.035,0.024 0.034,0.024C0.033,0.024 0.034,0.026 0.035,0.026ZM0.027,0.028C0.028,0.028 0.028,0.026 0.027,0.026C0.026,0.026 0.026,0.028 0.027,0.028ZM0.03,0.029C0.03,0.029 0.03,0.028 0.029,0.028C0.029,0.029 0.03,0.03 0.03,0.029ZM0.032,0.029C0.033,0.029 0.033,0.027 0.032,0.027C0.031,0.027 0.031,0.029 0.032,0.029Z" style="fill-rule:nonzero;"/>
        </g>
        <g transform="matrix(24,0,0,24,280.437,92.7303)">
            <path d="M0.094,-0.197C0.089,-0.184 0.086,-0.172 0.082,-0.16C0.088,-0.148 0.037,-0.068 0.037,-0.045L0.036,-0.045C0.033,-0.036 0.027,-0.025 0.027,-0.015C0.027,-0.012 0.028,-0.006 0.031,-0.004C0.032,-0.004 0.033,-0.003 0.033,-0.003C0.038,-0.001 0.046,0.002 0.052,0.002L0.052,-0.002C0.054,-0.002 0.055,-0 0.056,-0.004C0.056,-0.004 0.055,-0.006 0.055,-0.007L0.055,-0.01C0.055,-0.019 0.071,-0.074 0.079,-0.077C0.102,-0.064 0.106,-0.02 0.137,-0.02C0.144,-0.02 0.147,-0.021 0.147,-0.028C0.147,-0.05 0.103,-0.066 0.103,-0.089C0.103,-0.09 0.107,-0.094 0.107,-0.094L0.109,-0.093C0.114,-0.093 0.134,-0.104 0.134,-0.108L0.135,-0.108L0.137,-0.11C0.139,-0.111 0.147,-0.117 0.149,-0.118C0.15,-0.124 0.163,-0.134 0.167,-0.138C0.167,-0.138 0.187,-0.159 0.187,-0.162C0.187,-0.167 0.171,-0.17 0.168,-0.17C0.164,-0.17 0.151,-0.159 0.149,-0.155L0.13,-0.135C0.119,-0.133 0.112,-0.114 0.097,-0.114C0.097,-0.128 0.116,-0.146 0.112,-0.161C0.112,-0.162 0.121,-0.181 0.121,-0.187C0.121,-0.197 0.105,-0.199 0.099,-0.199C0.097,-0.199 0.096,-0.199 0.094,-0.197ZM0.094,-0.18C0.093,-0.18 0.093,-0.182 0.094,-0.182C0.095,-0.182 0.095,-0.18 0.094,-0.18ZM0.11,-0.167C0.109,-0.167 0.109,-0.169 0.11,-0.169C0.111,-0.169 0.111,-0.167 0.11,-0.167ZM0.086,-0.162C0.085,-0.162 0.085,-0.164 0.086,-0.164C0.087,-0.164 0.087,-0.162 0.086,-0.162ZM0.155,-0.157C0.154,-0.157 0.154,-0.159 0.155,-0.159C0.156,-0.159 0.156,-0.157 0.155,-0.157ZM0.181,-0.157C0.18,-0.157 0.18,-0.159 0.181,-0.159C0.182,-0.159 0.182,-0.157 0.181,-0.157ZM0.177,-0.156C0.176,-0.156 0.176,-0.158 0.177,-0.158C0.178,-0.158 0.178,-0.156 0.177,-0.156ZM0.169,-0.152C0.168,-0.152 0.168,-0.154 0.169,-0.154C0.17,-0.154 0.17,-0.152 0.169,-0.152ZM0.169,-0.148C0.168,-0.148 0.168,-0.15 0.169,-0.15C0.17,-0.15 0.17,-0.148 0.169,-0.148ZM0.155,-0.139C0.154,-0.139 0.154,-0.141 0.155,-0.141C0.156,-0.141 0.156,-0.139 0.155,-0.139ZM0.086,-0.134C0.085,-0.134 0.085,-0.136 0.086,-0.136C0.087,-0.136 0.087,-0.134 0.086,-0.134ZM0.129,-0.13C0.128,-0.13 0.128,-0.132 0.129,-0.132C0.13,-0.132 0.13,-0.13 0.129,-0.13ZM0.142,-0.118C0.141,-0.118 0.141,-0.12 0.142,-0.12C0.143,-0.12 0.143,-0.118 0.142,-0.118ZM0.117,-0.114C0.116,-0.114 0.116,-0.116 0.117,-0.116C0.118,-0.116 0.118,-0.114 0.117,-0.114ZM0.129,-0.105C0.128,-0.105 0.128,-0.106 0.129,-0.106C0.13,-0.106 0.13,-0.105 0.129,-0.105ZM0.125,-0.104L0.125,-0.105L0.126,-0.105L0.125,-0.104ZM0.112,-0.099C0.111,-0.099 0.111,-0.101 0.112,-0.101C0.113,-0.101 0.113,-0.099 0.112,-0.099ZM0.152,-0.095C0.153,-0.095 0.153,-0.097 0.152,-0.097C0.151,-0.097 0.151,-0.095 0.152,-0.095ZM0.052,-0.082C0.051,-0.082 0.051,-0.084 0.052,-0.084C0.053,-0.084 0.053,-0.082 0.052,-0.082ZM0.077,-0.079C0.076,-0.079 0.076,-0.08 0.077,-0.08C0.078,-0.08 0.078,-0.079 0.077,-0.079ZM0.131,-0.047C0.13,-0.047 0.13,-0.049 0.131,-0.049C0.132,-0.049 0.132,-0.047 0.131,-0.047ZM0.144,-0.027C0.143,-0.027 0.143,-0.029 0.144,-0.029C0.145,-0.029 0.145,-0.027 0.144,-0.027ZM0.038,-0.026C0.037,-0.026 0.037,-0.028 0.038,-0.028C0.039,-0.028 0.039,-0.026 0.038,-0.026ZM0.036,-0.007C0.035,-0.007 0.035,-0.009 0.036,-0.009C0.037,-0.009 0.037,-0.007 0.036,-0.007Z" style="fill-rule:nonzero;"/>
        </g>
    </g>
</svg>
