<svg height="100%" viewBox="0 0 400 400" width="100%" xmlns="http://www.w3.org/2000/svg"><path d="m181.093 3.013c-123.711 12.889-205.104 132.182-171.289 251.049 26.162 91.965 116.512 152.756 211.171 142.083 125.686-14.171 205.916-139.515 165.944-259.255-28.832-86.369-116.224-143.212-205.826-133.877m31.315 12.034c69.34 3.002 135.681 52.191 160.593 119.074 45.419 121.936-43.581 250.675-173.296 250.675-131.389 0-220.429-131.898-171.815-254.515 27.558-69.509 102.866-119.54 174.178-115.715 1.787.096 6.44.313 10.34.481m71.344 80.401c-18.723 5.041-21.526 25.122-4.78 34.236 1.577.859 6.05 2.731 9.941 4.162 13.13 4.829 15.961 7.307 15.961 13.97 0 14.452-25.371 14.488-29.587.042l-.733-2.511h-4.413-4.413l.389 2.511c3.696 23.858 47.583 23.94 47.615.088.014-10.784-4.824-15.648-21.738-21.855-11.883-4.36-14.885-6.971-14.885-12.945 0-14.06 22.579-15.068 26.95-1.203l1.031 3.271h4.399 4.399l-.384-2.511c-1.924-12.586-16.246-20.892-29.752-17.255m-196.898.47c0 .137 4.786 10.017 10.635 21.955l10.635 21.706v12.928 12.929h4.136 4.136v-13.056-13.055l10.635-21.599c5.849-11.879 10.635-21.701 10.635-21.828 0-.126-2.178-.152-4.841-.058l-4.841.172-7.704 16.987c-4.237 9.342-7.859 16.986-8.048 16.986s-3.795-7.644-8.013-16.986l-7.668-16.987-4.849-.172c-2.666-.094-4.848-.059-4.848.078m-50.564 106.988c-8.258 3.596-.055 48.093 14.046 76.199 61.041 121.657 242.423 121.657 303.463 0 14.463-28.825 22.406-73.324 13.634-76.382-3.024-1.055-328.714-.874-331.143.183m18.658 12.426c0 34.996 23.914 79.794 55.267 103.535 92.48 70.025 228.334 13.857 238.527-98.616l.684-7.548h5.575 5.574l-.421 5.739c-6.878 93.7-99.865 159.536-194.718 137.863-67.059-15.322-116.586-71.541-121.454-137.863l-.422-5.739h5.694 5.694zm283.604.693c0 32.29-22.009 72.77-51.698 95.083-86.315 64.871-212.811 11.657-221.176-93.045l-.428-5.36h136.651 136.651z" fill-rule="evenodd"/></svg>
