<svg xmlns="http://www.w3.org/2000/svg" xmlns:xlink="http://www.w3.org/1999/xlink" width="2006.714" height="332.714" version="1.1"><rect id="backgroundrect" width="100%" height="100%" x="0" y="0" fill="none" stroke="none"/><g class="currentLayer"><title>Layer 1</title><g id="document"><path id="svg_1" fill="#4d4d4d" fill-opacity="1" stroke-width="0" d="M 278.262 58.9621 L 278.262 45.1582 C 260.449 45.1582 251.947 46.7821 234.539 46.7821 C 217.131 46.7821 203.367 45.1582 185.958 45.1582 L 185.958 58.9621 C 206.605 60.9922 216.726 66.2702 216.726 79.6681 C 216.726 83.3222 215.917 87.3822 214.297 92.6601 L 159.644 262.367 L 104.991 92.6601 C 103.372 87.3822 102.562 83.3222 102.562 79.2622 C 102.562 66.6761 111.873 60.9922 132.52 58.9621 L 132.52 45.1582 C 111.873 45.1582 87.583 46.7821 66.5313 46.7821 C 45.0747 46.7821 26.8569 45.1582 6.61484 45.1582 L 6.61484 58.9621 C 27.2617 63.0221 34.9538 73.1721 40.2166 88.6001 L 98.1089 258.307 C 102.157 270.081 113.088 302.967 115.112 315.147 C 127.257 313.117 168.955 307.027 168.955 307.027 C 173.003 290.787 179.481 270.487 183.934 258.307 L 242.636 92.6601 C 249.518 72.7661 258.02 63.0221 278.262 58.9621 Z M 379.471 279.419 C 379.471 279.419 370.16 283.479 362.063 283.479 C 353.966 283.479 338.582 275.359 338.582 255.059 C 338.582 234.759 347.894 230.293 358.015 226.639 L 379.471 218.519 L 379.471 279.419 Z M 468.132 279.419 C 468.132 279.419 459.225 283.479 449.914 283.479 C 441.007 283.479 436.959 277.389 436.959 263.179 L 436.959 184.009 C 436.959 139.35 422.789 121.08 368.136 121.08 L 315.508 139.35 C 299.314 145.034 283.12 152.748 283.12 171.018 C 283.12 189.287 295.265 196.189 309.435 196.189 C 323.603 196.189 333.724 188.069 337.773 175.889 C 337.773 175.889 329.676 171.829 329.676 161.68 C 329.676 151.53 337.773 145.44 349.918 145.44 C 362.063 145.44 379.471 153.56 379.471 184.009 L 379.471 204.309 L 311.459 226.639 C 291.217 233.135 281.096 242.879 281.096 267.239 C 281.096 291.599 295.265 315.147 333.724 315.147 C 351.942 309.869 380.281 291.599 380.281 291.599 C 382.305 301.749 386.354 315.147 414.693 315.147 C 443.031 315.147 472.585 290.381 472.585 290.381 L 468.132 279.419 Z M 605.776 270.893 C 605.776 270.893 594.036 280.637 575.818 280.637 C 557.6 280.637 535.334 268.051 535.334 213.241 C 535.334 158.432 557.6 140.162 575.818 140.162 C 594.036 140.162 605.776 152.342 605.776 178.731 L 605.776 270.893 Z M 687.554 278.201 C 683.911 278.607 681.077 279.013 678.243 279.013 C 673.79 279.013 670.551 278.201 667.717 276.171 C 663.669 273.329 662.859 267.239 662.859 257.089 L 662.859 70.3302 C 662.859 41.9101 662.859 39.8802 664.074 11.4571 L 657.596 7.39712 C 625.209 19.5771 579.462 29.7301 579.462 29.7301 L 579.462 43.1281 C 599.704 45.9701 605.776 54.0901 605.776 71.5481 L 605.776 129.2 C 605.776 129.2 594.036 121.08 573.794 121.08 C 509.019 121.08 474.609 172.641 474.609 225.421 C 474.609 278.201 498.899 314.741 547.479 314.741 C 577.842 314.741 605.776 287.133 605.776 287.133 L 606.991 311.087 L 613.064 315.147 C 633.306 307.839 669.741 296.877 689.983 292.411 L 687.554 278.201 Z M 860.016 150.312 C 860.016 133.26 848.68 119.862 830.462 119.862 C 812.244 119.862 796.051 135.29 783.906 153.56 L 784.715 123.922 L 777.428 119.05 C 757.186 127.17 720.75 137.32 700.508 141.38 L 700.508 154.778 C 720.75 156.808 726.823 163.71 726.823 184.009 L 726.823 265.209 C 726.823 289.569 720.75 292.817 698.484 295.659 L 698.484 309.869 C 718.726 309.869 736.944 307.839 757.186 307.839 C 777.428 307.839 796.051 309.869 816.293 309.869 L 816.293 295.659 C 787.954 292.411 783.906 289.569 783.906 265.209 L 783.906 173.859 C 787.954 165.74 798.075 156.402 804.147 156.402 C 810.22 156.402 812.244 159.65 812.244 163.71 C 812.244 167.77 809.006 171.829 809.006 171.829 C 809.006 171.829 814.268 181.979 830.462 181.979 C 846.656 181.979 860.016 167.77 860.016 150.312 Z M 1007.78 219.331 C 1007.78 273.329 994.422 296.877 970.941 296.877 C 947.865 296.877 930.457 269.269 930.457 215.271 C 930.457 161.68 943.817 138.132 967.297 138.132 C 990.373 138.132 1007.78 165.74 1007.78 219.331 Z M 1070.53 215.271 C 1070.53 158.026 1032.88 121.08 966.893 121.08 C 901.309 121.08 867.708 163.71 867.708 220.549 C 867.708 277.389 905.357 314.741 971.346 314.741 C 1036.93 314.741 1070.53 272.111 1070.53 215.271 Z M 1308.17 292.411 L 1305.74 278.201 C 1302.5 279.013 1299.67 279.013 1296.84 279.013 C 1292.38 279.013 1288.33 278.201 1285.5 276.171 C 1281.86 273.329 1280.64 268.457 1280.64 259.525 C 1280.64 259.119 1280.64 258.307 1280.64 257.901 C 1280.64 257.901 1281.05 157.62 1282.26 127.17 L 1274.97 122.298 C 1254.73 127.17 1221.94 131.636 1201.7 133.666 L 1201.7 147.064 C 1217.89 149.906 1223.56 158.026 1223.56 175.483 L 1223.56 270.487 C 1223.56 270.487 1213.84 275.359 1199.68 275.359 C 1185.51 275.359 1177.41 269.269 1172.15 261.961 C 1167.69 255.465 1165.67 248.157 1165.67 231.917 C 1165.67 231.105 1165.67 229.887 1165.67 228.669 C 1165.67 228.669 1166.07 157.62 1167.29 127.17 L 1160 122.298 C 1139.76 127.17 1106.56 131.636 1086.32 133.666 L 1086.32 147.064 C 1102.51 149.906 1108.99 158.026 1108.99 175.483 L 1108.99 240.849 C 1108.99 265.209 1111.42 283.479 1122.76 294.847 C 1134.09 305.809 1148.26 314.741 1182.67 314.741 C 1191.98 309.869 1223.97 286.321 1223.97 286.321 L 1223.97 309.869 L 1231.25 315.147 C 1251.49 306.621 1287.93 296.471 1308.17 292.411 Z M 1428.81 309.869 L 1428.81 295.659 C 1406.55 292.411 1400.07 289.569 1400.07 265.209 L 1400.07 164.522 C 1400.07 145.44 1400.07 144.222 1400.88 123.922 L 1393.59 119.05 C 1373.35 127.17 1336.92 137.32 1316.67 141.38 L 1316.67 154.778 C 1336.92 156.808 1342.99 163.71 1342.99 184.009 L 1342.99 265.209 C 1342.99 289.569 1336.92 292.817 1314.65 295.659 L 1314.65 309.869 C 1332.87 309.869 1352.3 307.839 1371.73 307.839 C 1391.16 307.839 1410.6 309.869 1428.81 309.869 Z M 1404.12 61.8042 C 1404.12 41.5041 1388.33 29.3241 1370.11 29.3241 C 1352.3 29.3241 1336.51 41.9101 1336.51 62.2102 C 1336.51 82.5102 1352.7 94.6901 1370.52 94.6901 C 1388.33 94.6901 1404.12 82.1041 1404.12 61.8042 Z M 1547.43 309.869 L 1547.43 295.659 C 1523.55 292.411 1517.47 289.569 1517.47 265.209 L 1517.47 70.3302 C 1517.47 41.9101 1517.47 39.8802 1518.69 11.4571 L 1512.61 7.39712 C 1480.23 19.5771 1434.08 29.7301 1434.08 29.7301 L 1434.08 43.1281 C 1454.72 45.9701 1460.8 54.0901 1460.8 71.5481 L 1460.8 265.209 C 1460.8 289.569 1454.32 292.817 1430.84 295.659 L 1430.84 309.869 C 1450.27 309.869 1470.51 307.839 1489.13 307.839 C 1508.57 307.839 1528 309.869 1547.43 309.869 Z M 1668.88 309.869 L 1668.88 295.659 C 1645 292.411 1638.92 289.569 1638.92 265.209 L 1638.92 70.3302 C 1638.92 41.9101 1638.92 39.8802 1640.14 11.4571 L 1634.07 7.39712 C 1601.68 19.5771 1555.53 29.7301 1555.53 29.7301 L 1555.53 43.1281 C 1576.18 45.9701 1582.25 54.0901 1582.25 71.5481 L 1582.25 265.209 C 1582.25 289.569 1575.77 292.817 1552.29 295.659 L 1552.29 309.869 C 1571.72 309.869 1591.96 307.839 1610.59 307.839 C 1630.02 307.839 1649.45 309.869 1668.88 309.869 Z M 1790.74 179.949 C 1790.74 186.039 1789.53 187.663 1783.45 188.069 L 1736.49 190.099 C 1740.94 153.56 1755.52 137.32 1769.69 137.32 C 1783.86 137.32 1790.74 149.5 1790.74 179.949 Z M 1849.44 261.149 L 1842.15 253.029 C 1842.15 253.029 1819.89 271.299 1787.5 271.299 C 1755.11 271.299 1734.87 250.999 1734.87 212.429 C 1734.87 208.369 1735.28 204.309 1735.28 204.309 L 1840.53 205.527 C 1846.61 205.527 1848.63 201.061 1848.63 194.971 C 1848.63 162.492 1835.27 121.08 1776.57 121.08 C 1715.84 121.08 1679.41 169.8 1679.41 221.767 C 1679.41 273.329 1705.72 314.741 1764.43 314.741 C 1796.81 314.741 1816.24 303.779 1816.24 303.779 L 1849.44 261.149 Z M 2002.47 253.841 C 2002.47 218.519 1974.13 205.121 1966.84 201.061 C 1959.96 197.407 1947.82 191.317 1937.7 186.039 C 1927.57 180.761 1915.43 173.859 1915.43 158.432 C 1915.43 143.41 1925.55 136.102 1938.91 136.102 C 1951.87 136.102 1961.99 143.41 1970.08 155.59 C 1978.18 167.77 1981.42 177.919 1981.42 177.919 L 1993.56 175.889 L 1993.56 134.072 C 1993.56 134.072 1976.16 119.862 1939.72 119.862 C 1903.28 119.862 1868.87 135.29 1868.87 173.859 C 1868.87 212.429 1900.45 225.015 1907.33 228.669 C 1914.22 232.323 1926.77 238.819 1932.84 242.067 C 1938.51 244.909 1953.89 253.029 1953.89 272.517 C 1953.89 291.599 1941.74 298.907 1929.6 298.907 C 1917.45 298.907 1905.31 289.569 1897.21 277.389 C 1889.12 265.209 1879.8 244.909 1879.8 244.909 L 1866.85 246.939 L 1870.9 297.689 C 1870.9 297.689 1889.12 315.959 1929.6 315.959 C 1970.08 315.959 2002.47 289.569 2002.47 253.841 Z"/></g></g></svg>