<svg xmlns="http://www.w3.org/2000/svg" xmlns:xlink="http://www.w3.org/1999/xlink" version="1.1" width="1746.9999992052703" height="163"><rect id="backgroundrect" width="100%" height="100%" x="0" y="0" fill="none" stroke="none"/>       <g class="currentLayer" style=""><title>Layer 1</title><g id="document" class="" transform="">      <path d="M 91.049 114.63 L 72.507 56.5248 C 74.807 50.8473 77.825 46.5352 81.562 43.5887 C 85.3 40.6421 89.612 39.1688 94.499 39.1688 C 97.014 39.1688 100.284 39.7078 104.309 40.7858 C 108.333 41.8638 111.244 42.4029 113.04 42.4029 C 113.687 42.4029 114.28 42.331 114.819 42.1872 C 115.358 42.0436 115.879 41.8279 116.382 41.5404 L 91.049 114.63 Z M 142.686 5.10349 C 141.248 5.96601 139.703 6.63068 138.05 7.09787 C 136.397 7.56497 134.709 7.79857 132.984 7.79857 C 130.971 7.79857 127.648 7.24157 123.012 6.12769 C 118.377 5.01367 114.622 4.4567 111.747 4.4567 C 103.266 4.4567 95.253 8.06807 87.7069 15.2908 C 80.161 22.5135 73.909 32.6648 68.95 45.7447 L 61.835 22.783 L 69.812 22.783 L 69.812 5.75031 L 6.42503 5.75031 L 6.42503 22.783 L 14.833 22.783 L 52.348 134.681 C 53.929 139.568 55.223 143.665 56.229 146.971 C 57.235 150.277 58.098 153.331 58.816 156.134 L 99.35 156.134 C 99.925 152.684 100.679 149.145 101.613 145.515 C 102.548 141.886 103.734 138.059 105.171 134.034 L 140.206 34.5333 L 140.745 33.1319 C 143.836 24.2922 146.818 17.5366 149.693 12.8652 L 142.686 5.10349 Z M 222.89 121.745 C 222.89 125.913 221.74 129.273 219.441 131.824 C 217.141 134.376 214.086 135.651 210.277 135.651 C 206.181 135.651 203.091 134.214 201.006 131.339 C 198.922 128.465 197.88 124.225 197.88 118.619 C 197.88 112.294 199.605 107.282 203.055 103.581 C 206.504 99.8787 211.248 98.0287 217.284 98.0287 C 217.572 98.0287 218.147 98.0827 219.009 98.1897 C 219.872 98.2977 221.129 98.4597 222.782 98.6757 L 222.89 121.745 Z M 171.577 76.6838 L 184.621 81.7504 C 187.998 77.2946 191.771 73.8989 195.94 71.5631 C 200.108 69.2275 204.456 68.0596 208.984 68.0596 C 213.224 68.0596 216.602 69.1196 219.117 71.2397 C 221.632 73.3598 222.89 76.1806 222.89 79.7022 L 222.782 85.5235 C 220.626 85.3078 218.884 85.1821 217.554 85.1462 C 216.224 85.1102 214.985 85.0923 213.835 85.0923 C 195.149 85.0923 181.117 88.4161 171.738 95.0639 C 162.36 101.712 157.67 111.684 157.67 124.979 C 157.67 135.04 160.922 143.269 167.426 149.666 C 173.93 156.062 182.393 159.26 192.814 159.26 C 197.844 159.26 202.893 158.128 207.96 155.864 C 213.026 153.6 218.075 150.241 223.106 145.785 L 226.124 156.134 L 269.892 156.134 L 269.892 142.443 L 262.13 142.443 L 262.13 79.7022 C 262.13 68.8501 258.68 60.2979 251.781 54.0454 C 244.882 47.7929 235.467 44.6667 223.537 44.6667 C 218.578 44.6667 213.745 45.1518 209.038 46.122 C 204.33 47.0922 199.821 48.5116 195.509 50.3802 L 197.665 44.2355 L 186.022 40.0312 L 171.577 76.6838 Z M 358.397 129.399 C 357.175 130.693 355.72 131.681 354.031 132.363 C 352.342 133.046 350.491 133.388 348.479 133.388 C 341.508 133.388 335.974 129.848 331.877 122.769 C 327.781 115.69 325.733 106.042 325.733 93.8242 C 325.733 83.5471 327.35 75.5338 330.584 69.7844 C 333.818 64.035 338.31 61.1603 344.059 61.1603 C 348.155 61.1603 351.569 62.957 354.3 66.5505 C 357.031 70.1438 358.397 74.7793 358.397 80.4568 L 358.397 129.399 Z M 350.635 21.4894 L 350.635 35.3958 L 358.397 32.9163 L 358.397 49.5177 C 355.306 47.7929 352.18 46.5532 349.018 45.7986 C 345.856 45.044 342.298 44.6667 338.346 44.6667 C 323.9 44.6667 311.665 50.6856 301.639 62.7234 C 291.614 74.7613 286.601 89.8714 286.601 108.054 C 286.601 123.29 290.428 135.634 298.082 145.084 C 305.736 154.535 315.599 159.26 327.673 159.26 C 332.704 159.26 337.807 157.948 342.981 155.325 C 348.155 152.702 353.294 148.839 358.397 143.737 L 361.307 156.134 L 405.398 156.134 L 405.398 142.443 L 397.636 142.443 L 397.636 20.3035 L 405.829 17.7163 L 405.829 3.80988 L 350.635 21.4894 Z M 506.624 48.6553 C 503.821 47.3617 501.18 46.3735 498.7 45.6908 C 496.221 45.0081 494.047 44.6667 492.178 44.6667 C 488.8 44.6667 485.584 45.9962 482.53 48.6553 C 479.476 51.3144 474.822 57.4232 468.57 66.9816 C 466.917 62.3821 464.132 58.2856 460.215 54.6922 C 456.298 51.0988 450.998 47.757 444.314 44.6667 L 420.49 72.9107 L 428.468 81.7504 L 432.564 78.4085 C 433.929 79.271 434.864 80.2052 435.367 81.2114 C 435.87 82.2176 436.121 84.158 436.121 87.0327 L 436.121 142.443 L 428.468 142.443 L 428.468 156.134 L 486.68 156.134 L 486.68 142.443 L 475.469 142.443 L 475.469 96.5192 C 475.469 91.2729 476.727 87.1585 479.242 84.1759 C 481.757 81.1935 485.207 79.7022 489.591 79.7022 C 491.603 79.7022 494.065 80.0974 496.975 80.888 C 499.886 81.6786 503.461 82.9003 507.702 84.5533 L 520.746 47.6851 L 508.995 43.5887 L 506.624 48.6553 Z M 606.771 115.708 C 606.771 124.548 605.549 131.25 603.106 135.813 C 600.662 140.377 597.105 142.659 592.434 142.659 C 585.534 142.659 579.246 137.143 573.568 126.111 C 567.891 115.079 565.052 101.981 565.052 86.8171 C 565.052 78.6242 566.274 72.2998 568.717 67.844 C 571.161 63.3882 574.574 61.1603 578.958 61.1603 C 585.786 61.1603 592.128 66.6222 597.985 77.5462 C 603.843 88.47 606.771 101.191 606.771 115.708 Z M 586.073 44.6667 C 568.322 44.6667 553.643 50.0747 542.036 60.8908 C 530.43 71.7069 524.626 85.4157 524.626 102.017 C 524.626 118.619 530.43 132.31 542.036 143.09 C 553.643 153.87 568.322 159.26 586.073 159.26 C 603.753 159.26 618.36 153.852 629.895 143.036 C 641.429 132.22 647.197 118.547 647.197 102.017 C 647.197 85.4875 641.393 71.7967 629.787 60.9447 C 618.18 50.0927 603.609 44.6667 586.073 44.6667 Z M 664.122 57.4951 L 664.122 69.7844 L 671.668 68.4908 L 671.668 125.842 C 671.668 136.406 674.399 144.617 679.861 150.474 C 685.322 156.331 692.904 159.26 702.606 159.26 C 707.781 159.26 713.225 157.859 718.938 155.056 C 724.652 152.253 730.383 148.192 736.133 142.874 L 740.768 156.134 L 785.182 156.134 L 785.182 142.443 L 777.421 142.443 L 777.421 44.6667 L 776.127 44.6667 L 730.635 57.4951 L 730.635 69.7844 L 738.073 68.4908 L 738.073 125.842 C 735.773 128.141 733.222 129.938 730.419 131.232 C 727.616 132.525 724.885 133.172 722.226 133.172 C 718.561 133.172 715.812 131.986 713.979 129.615 C 712.147 127.243 711.23 123.721 711.23 119.05 L 711.23 44.6667 L 709.614 44.6667 L 664.122 57.4951 Z M 808.144 57.4951 L 808.144 69.7844 L 815.798 68.4908 L 815.798 142.443 L 808.144 142.443 L 808.144 156.134 L 862.799 156.134 L 862.799 142.443 L 855.145 142.443 L 855.145 63.6397 C 855.145 61.6274 855.235 59.13 855.415 56.1475 C 855.595 53.165 855.864 49.3381 856.223 44.6667 L 854.714 44.6667 L 808.144 57.4951 Z M 839.406 10.3858 C 833.01 10.3858 827.333 12.3442 822.374 16.261 C 817.415 20.1778 814.935 24.6156 814.935 29.5745 C 814.935 33.3835 816.301 36.4378 819.032 38.7376 C 821.763 41.0374 825.392 42.1872 829.92 42.1872 C 837.322 42.1872 843.665 40.3546 848.947 36.6894 C 854.229 33.0241 856.87 28.6043 856.87 23.4298 C 856.87 19.6208 855.271 16.4946 852.073 14.0511 C 848.875 11.6076 844.653 10.3858 839.406 10.3858 Z M 885.33 21.4894 L 885.33 35.3958 L 893.092 32.9163 L 893.092 142.443 L 885.33 142.443 L 885.33 156.134 L 940.093 156.134 L 940.093 142.443 L 932.439 142.443 L 932.439 20.3035 L 940.525 17.7163 L 940.525 3.80988 L 885.33 21.4894 Z M 962.624 21.4894 L 962.624 35.3958 L 970.386 32.9163 L 970.386 142.443 L 962.624 142.443 L 962.624 156.134 L 1017.39 156.134 L 1017.39 142.443 L 1009.73 142.443 L 1009.73 20.3035 L 1017.82 17.7163 L 1017.82 3.80988 L 962.624 21.4894 Z M 1122.06 96.088 C 1126.08 94.435 1130.18 93.0875 1134.35 92.0454 C 1138.52 91.0034 1140.6 90.0511 1140.6 89.1887 C 1140.6 86.9608 1139.18 82.9363 1136.34 77.115 C 1133.5 71.2936 1130.07 66.1192 1126.05 61.5915 C 1121.23 55.9858 1115.66 51.7636 1109.34 48.9248 C 1103.01 46.0861 1096.08 44.6667 1088.53 44.6667 C 1073.8 44.6667 1061.17 50.2185 1050.64 61.322 C 1040.11 72.4256 1034.85 86.1343 1034.85 102.449 C 1034.85 118.978 1039.66 132.579 1049.29 143.251 C 1058.92 153.924 1071.28 159.26 1086.38 159.26 C 1097.59 159.26 1107.76 156.888 1116.88 152.145 C 1126.01 147.402 1134.38 140.107 1142 130.261 L 1134.02 121.745 C 1130.29 125.482 1126.23 128.285 1121.84 130.154 C 1117.46 132.022 1112.75 132.956 1107.72 132.956 C 1101.54 132.956 1096.06 131.321 1091.28 128.051 C 1086.5 124.781 1082.5 119.948 1079.26 113.552 L 1122.06 96.088 Z M 1073.55 97.1657 C 1072.54 94.3632 1071.77 91.4166 1071.23 88.3263 C 1070.69 85.236 1070.42 82.0738 1070.42 78.8398 C 1070.42 73.5934 1071.37 69.497 1073.28 66.5505 C 1075.18 63.6038 1077.82 62.1305 1081.2 62.1305 C 1085.23 62.1305 1088.98 64.1608 1092.47 68.2213 C 1095.95 72.2818 1098.92 78.1211 1101.36 85.739 L 1073.55 97.1657 Z M 1235.36 56.7404 C 1229.39 52.7159 1223.36 49.6974 1217.25 47.6851 C 1211.14 45.6728 1204.81 44.6667 1198.27 44.6667 C 1185.77 44.6667 1175.69 48.0804 1168.04 54.9078 C 1160.38 61.7352 1156.56 70.6109 1156.56 81.5348 C 1156.56 94.3272 1166.4 106.042 1186.09 116.678 C 1187.46 117.397 1188.54 117.972 1189.33 118.403 L 1189.43 118.511 C 1202.59 125.482 1209.16 130.872 1209.16 134.681 C 1209.16 136.909 1208.52 138.616 1207.22 139.802 C 1205.93 140.988 1204.06 141.581 1201.62 141.581 C 1197.38 141.581 1192.17 139.389 1185.98 135.005 C 1179.8 130.621 1172.8 124.117 1164.96 115.493 L 1146.85 143.521 C 1153.39 148.767 1160.31 152.702 1167.6 155.325 C 1174.9 157.948 1182.57 159.26 1190.62 159.26 C 1204.2 159.26 1215.58 155.451 1224.74 147.833 C 1233.9 140.215 1238.48 130.98 1238.48 120.128 C 1238.48 113.085 1236.27 107.048 1231.85 102.017 C 1227.43 96.9867 1217.21 90.4464 1201.19 82.3972 C 1193.93 78.732 1189.09 75.8213 1186.69 73.6653 C 1184.28 71.5093 1183.07 69.2814 1183.07 66.9816 C 1183.07 65.0412 1183.7 63.478 1184.96 62.2922 C 1186.22 61.1064 1187.89 60.5135 1189.97 60.5135 C 1193.71 60.5135 1197.97 62.2743 1202.75 65.7958 C 1207.53 69.3173 1213.04 74.7793 1219.3 82.1816 L 1235.36 56.7404 Z" fill="#4d4d4d" fill-opacity="1.00" stroke-width="0" id="svg_1" transform=""/>     <path d="M 1324.07 77.5462 C 1330.11 87.6076 1335.98 96.5372 1341.7 104.335 C 1347.41 112.133 1353.25 119.086 1359.22 125.195 C 1357.13 126.416 1355.01 127.315 1352.86 127.89 C 1350.7 128.465 1348.4 128.752 1345.96 128.752 C 1337.62 128.752 1330.52 125.536 1324.67 119.104 C 1318.81 112.672 1315.88 105 1315.88 96.088 C 1315.88 92.4946 1316.54 89.2067 1317.87 86.2242 C 1319.2 83.2417 1321.27 80.349 1324.07 77.5462 Z M 1354.15 58.0341 C 1368.24 53.0752 1378.15 48.0624 1383.9 42.9958 C 1389.65 37.9291 1392.53 31.7665 1392.53 24.5078 C 1392.53 16.9617 1389.11 10.9608 1382.29 6.50501 C 1375.46 2.0492 1366.15 -0.178713 1354.36 -0.178713 C 1340.35 -0.178713 1329.03 3.27088 1320.41 10.1702 C 1311.78 17.0695 1307.47 26.1249 1307.47 37.3362 C 1307.47 41.0733 1308.03 44.8464 1309.14 48.6553 C 1310.26 52.4643 1312 56.4889 1314.37 60.7291 C 1301.65 68.1315 1292.29 75.8393 1286.29 83.8525 C 1280.29 91.8658 1277.29 100.724 1277.29 110.426 C 1277.29 123.578 1282.19 134.484 1292 143.144 C 1301.81 151.804 1314.33 156.134 1329.57 156.134 C 1337.55 156.134 1345.44 154.732 1353.23 151.929 C 1361.03 149.127 1368.16 145.138 1374.63 139.964 C 1379.95 145.21 1385.38 149.216 1390.91 151.983 C 1396.44 154.75 1401.76 156.134 1406.86 156.134 C 1413.19 156.134 1419.3 154.193 1425.19 150.312 C 1431.08 146.432 1436.62 140.718 1441.79 133.172 L 1434.46 126.057 C 1433.1 127.566 1431.62 128.644 1430.04 129.291 C 1428.46 129.938 1426.56 130.261 1424.33 130.261 C 1419.66 130.261 1415.09 129.004 1410.64 126.488 C 1406.18 123.973 1401.55 120.02 1396.73 114.63 C 1400.61 107.443 1403.59 100.293 1405.68 93.1773 C 1407.76 86.0625 1408.98 78.8398 1409.34 71.5093 L 1424.97 71.5093 L 1424.97 55.6624 L 1379.7 55.6624 L 1379.7 69.7844 C 1382.79 71.2936 1385.11 73.1622 1386.65 75.3901 C 1388.2 77.618 1388.97 80.1693 1388.97 83.044 C 1388.97 86.2062 1388.52 89.3145 1387.62 92.3689 C 1386.72 95.4232 1385.48 98.1367 1383.9 100.508 C 1377.15 92.3868 1371.18 84.6251 1366.01 77.2228 C 1360.83 69.8204 1356.88 63.4241 1354.15 58.0341 Z M 1346.17 45.5291 C 1343.44 39.9953 1341.64 35.8988 1340.78 33.2397 C 1339.92 30.5806 1339.49 28.1012 1339.49 25.8014 C 1339.49 22.1362 1340.48 19.1357 1342.45 16.8 C 1344.43 14.4643 1347 13.2965 1350.16 13.2965 C 1353.39 13.2965 1355.86 14.3206 1357.54 16.3688 C 1359.23 18.417 1360.08 21.4175 1360.08 25.3702 C 1360.08 29.0355 1358.95 32.521 1356.68 35.827 C 1354.42 39.1329 1350.91 42.3669 1346.17 45.5291 Z M 1575.57 64.2865 C 1570.68 56.8842 1564.89 51.2426 1558.21 47.3617 C 1551.53 43.4809 1544.2 41.5404 1536.22 41.5404 C 1520.62 41.5404 1506.86 47.8468 1494.93 60.4596 C 1483 73.0724 1477.04 87.967 1477.04 105.144 C 1477.04 119.948 1481.51 132.148 1490.46 141.742 C 1499.4 151.337 1510.85 156.134 1524.79 156.134 C 1535.86 156.134 1545.85 152.864 1554.76 146.324 C 1563.67 139.784 1571.04 130.297 1576.86 117.864 L 1566.73 110.426 C 1563.56 114.81 1559.81 118.224 1555.46 120.667 C 1551.11 123.111 1546.53 124.332 1541.72 124.332 C 1532.95 124.332 1525.76 120.092 1520.16 111.612 C 1514.55 103.131 1511.75 92.279 1511.75 79.0554 C 1511.75 73.4497 1512.7 69.1376 1514.6 66.1192 C 1516.51 63.1007 1519.22 61.5915 1522.74 61.5915 C 1527.2 61.5915 1531.42 64.3584 1535.41 69.8922 C 1539.4 75.4261 1542.76 83.1878 1545.49 93.1773 L 1575.57 64.2865 Z M 1654.63 112.582 C 1654.63 121.422 1653.41 128.123 1650.97 132.687 C 1648.53 137.251 1644.97 139.532 1640.3 139.532 C 1633.4 139.532 1627.11 134.016 1621.43 122.985 C 1615.75 111.953 1612.92 98.8547 1612.92 83.6908 C 1612.92 75.4979 1614.14 69.1735 1616.58 64.7178 C 1619.02 60.262 1622.44 58.0341 1626.82 58.0341 C 1633.65 58.0341 1639.99 63.496 1645.85 74.4199 C 1651.71 85.3438 1654.63 98.0647 1654.63 112.582 Z M 1633.94 41.5404 C 1616.19 41.5404 1601.51 46.9485 1589.9 57.7646 C 1578.29 68.5806 1572.49 82.2894 1572.49 98.8907 C 1572.49 115.493 1578.29 129.183 1589.9 139.964 C 1601.51 150.744 1616.19 156.134 1633.94 156.134 C 1651.62 156.134 1666.22 150.726 1677.76 139.91 C 1689.29 129.094 1695.06 115.421 1695.06 98.8907 C 1695.06 82.3613 1689.26 68.6705 1677.65 57.8185 C 1666.04 46.9664 1651.47 41.5404 1633.94 41.5404 Z M 1715.59 123.47 C 1711.21 123.47 1707.4 125.087 1704.17 128.321 C 1700.93 131.555 1699.31 135.364 1699.31 139.748 C 1699.31 144.132 1700.95 147.959 1704.22 151.229 C 1707.49 154.499 1711.28 156.134 1715.59 156.134 C 1720.05 156.134 1723.89 154.535 1727.13 151.337 C 1730.36 148.138 1731.98 144.276 1731.98 139.748 C 1731.98 135.22 1730.38 131.375 1727.18 128.213 C 1723.98 125.051 1720.12 123.47 1715.59 123.47 Z" fill="#c5e0dc" fill-opacity="1.00" stroke-width="0" id="svg_2" transform=""/>    </g></g></svg>
