<?xml version="1.0" encoding="UTF-8" standalone="no"?>
<!DOCTYPE svg PUBLIC "-//W3C//DTD SVG 1.1//EN" "http://www.w3.org/Graphics/SVG/1.1/DTD/svg11.dtd">
<svg width="100%" height="100%" viewBox="0 0 1200 160" version="1.1" xmlns="http://www.w3.org/2000/svg" xmlns:xlink="http://www.w3.org/1999/xlink" xml:space="preserve" xmlns:serif="http://www.serif.com/" style="fill-rule:evenodd;clip-rule:evenodd;stroke-linejoin:round;stroke-miterlimit:2;">
    <g transform="matrix(0.985671,0,0,0.945024,-609.039,-475.084)">
        <g id="Layer1">
            <g transform="matrix(576,0,0,576,634.781,650.844)">
                <path d="M0.158,-0.215C0.14,-0.198 0.125,-0.18 0.107,-0.163C0.106,-0.164 0.096,-0.151 0.093,-0.149C0.087,-0.145 0.077,-0.133 0.068,-0.133C0.052,-0.133 0.05,-0.203 0.014,-0.203C0.01,-0.203 0.007,-0.2 0.007,-0.196C0.007,-0.175 0.042,-0.119 0.06,-0.113L0.06,-0.108C0.06,-0.078 0.046,-0.051 0.046,-0.023L0.046,-0.018C0.047,-0.017 0.048,-0.016 0.048,-0.015C0.055,-0.009 0.063,-0.008 0.072,-0.008C0.076,-0.008 0.078,-0.024 0.078,-0.025C0.078,-0.026 0.077,-0.027 0.077,-0.029C0.077,-0.03 0.077,-0.032 0.078,-0.032C0.078,-0.033 0.077,-0.036 0.077,-0.037L0.077,-0.038C0.077,-0.051 0.084,-0.065 0.084,-0.078C0.09,-0.084 0.091,-0.14 0.112,-0.133C0.117,-0.142 0.135,-0.157 0.144,-0.165C0.142,-0.167 0.155,-0.178 0.157,-0.179C0.159,-0.182 0.18,-0.198 0.186,-0.206L0.196,-0.208C0.199,-0.209 0.199,-0.211 0.199,-0.213C0.199,-0.221 0.18,-0.223 0.174,-0.223C0.167,-0.223 0.164,-0.217 0.158,-0.215ZM0.192,-0.213C0.191,-0.213 0.191,-0.214 0.192,-0.214C0.193,-0.214 0.193,-0.213 0.192,-0.213ZM0.016,-0.2C0.015,-0.2 0.015,-0.202 0.016,-0.202C0.017,-0.202 0.017,-0.2 0.016,-0.2ZM0.167,-0.192C0.166,-0.192 0.166,-0.194 0.167,-0.194C0.168,-0.194 0.168,-0.192 0.167,-0.192ZM0.157,-0.183L0.158,-0.184L0.158,-0.183L0.157,-0.183ZM0.153,-0.179C0.152,-0.179 0.152,-0.181 0.153,-0.181C0.154,-0.181 0.154,-0.179 0.153,-0.179ZM0.128,-0.176C0.127,-0.176 0.127,-0.178 0.128,-0.178C0.129,-0.178 0.129,-0.176 0.128,-0.176ZM0.142,-0.17C0.141,-0.17 0.141,-0.172 0.142,-0.172C0.143,-0.172 0.143,-0.17 0.142,-0.17ZM0.12,-0.168C0.119,-0.168 0.119,-0.17 0.12,-0.17C0.121,-0.17 0.121,-0.168 0.12,-0.168ZM0.11,-0.162C0.109,-0.162 0.109,-0.164 0.11,-0.164C0.111,-0.164 0.111,-0.162 0.11,-0.162ZM0.124,-0.161C0.123,-0.161 0.123,-0.163 0.124,-0.163C0.125,-0.163 0.125,-0.161 0.124,-0.161ZM0.107,-0.159C0.106,-0.159 0.106,-0.161 0.107,-0.161C0.108,-0.161 0.108,-0.159 0.107,-0.159ZM0.051,-0.153C0.05,-0.153 0.05,-0.155 0.051,-0.155C0.052,-0.155 0.052,-0.153 0.051,-0.153ZM0.098,-0.149C0.097,-0.149 0.097,-0.151 0.098,-0.151C0.099,-0.151 0.099,-0.149 0.098,-0.149ZM0.035,-0.148C0.034,-0.148 0.034,-0.15 0.035,-0.15C0.036,-0.15 0.036,-0.148 0.035,-0.148ZM0.112,-0.139C0.111,-0.139 0.111,-0.141 0.112,-0.141C0.113,-0.141 0.113,-0.139 0.112,-0.139ZM0.087,-0.127C0.086,-0.127 0.086,-0.129 0.087,-0.129C0.088,-0.129 0.088,-0.127 0.087,-0.127ZM0.086,-0.093C0.085,-0.093 0.085,-0.095 0.086,-0.095C0.087,-0.095 0.087,-0.093 0.086,-0.093ZM0.068,-0.078C0.067,-0.078 0.067,-0.08 0.068,-0.08C0.069,-0.08 0.069,-0.078 0.068,-0.078ZM0.055,-0.059C0.054,-0.059 0.054,-0.061 0.055,-0.061C0.056,-0.061 0.056,-0.059 0.055,-0.059ZM0.069,-0.044C0.068,-0.044 0.068,-0.046 0.069,-0.046C0.07,-0.046 0.07,-0.044 0.069,-0.044ZM0.055,-0.028C0.054,-0.028 0.054,-0.03 0.055,-0.03C0.056,-0.03 0.056,-0.028 0.055,-0.028ZM0.049,-0.026C0.048,-0.026 0.048,-0.028 0.049,-0.028C0.05,-0.028 0.05,-0.026 0.049,-0.026ZM0.05,-0.021C0.049,-0.021 0.049,-0.023 0.05,-0.023C0.051,-0.023 0.051,-0.021 0.05,-0.021ZM0.058,-0.018C0.057,-0.018 0.057,-0.02 0.058,-0.02C0.059,-0.02 0.059,-0.018 0.058,-0.018Z" style="fill-rule:nonzero;"/>
            </g>
            <g transform="matrix(576,0,0,576,708.077,650.844)">
                <path d="M0.081,-0.231C0.082,-0.231 0.082,-0.233 0.081,-0.233C0.08,-0.233 0.08,-0.231 0.081,-0.231ZM0.09,-0.204C0.091,-0.204 0.091,-0.206 0.09,-0.206C0.089,-0.206 0.089,-0.204 0.09,-0.204ZM0.07,-0.129C0.068,-0.129 0.067,-0.126 0.068,-0.125C0.065,-0.121 0.046,-0.093 0.048,-0.088C0.038,-0.064 0.017,-0.032 0.015,-0.007C0.018,-0.004 0.032,-0.003 0.037,-0.003C0.06,-0.003 0.054,-0.079 0.087,-0.079L0.089,-0.078C0.099,-0.078 0.114,-0.083 0.124,-0.084C0.125,-0.084 0.128,-0.083 0.129,-0.083C0.139,-0.084 0.138,-0.086 0.142,-0.091C0.146,-0.091 0.154,-0.03 0.16,-0.023L0.164,-0.02C0.164,-0.021 0.166,-0.021 0.166,-0.021C0.171,-0.021 0.174,-0.019 0.178,-0.019C0.184,-0.019 0.191,-0.02 0.191,-0.026C0.191,-0.032 0.184,-0.063 0.178,-0.066C0.18,-0.081 0.169,-0.096 0.169,-0.111L0.17,-0.112L0.17,-0.113C0.17,-0.12 0.149,-0.179 0.145,-0.179C0.145,-0.18 0.146,-0.18 0.146,-0.18L0.146,-0.181C0.146,-0.188 0.135,-0.19 0.128,-0.19C0.098,-0.19 0.082,-0.147 0.07,-0.129ZM0.146,-0.171C0.145,-0.171 0.145,-0.172 0.146,-0.172C0.147,-0.172 0.147,-0.171 0.146,-0.171ZM0.097,-0.161C0.096,-0.161 0.096,-0.163 0.097,-0.163C0.098,-0.163 0.098,-0.161 0.097,-0.161ZM0.08,-0.094C0.08,-0.113 0.111,-0.146 0.122,-0.162L0.123,-0.162C0.123,-0.162 0.125,-0.159 0.125,-0.157C0.126,-0.156 0.127,-0.152 0.127,-0.151C0.129,-0.146 0.135,-0.124 0.136,-0.119C0.134,-0.112 0.142,-0.103 0.142,-0.096C0.139,-0.096 0.137,-0.1 0.133,-0.1C0.116,-0.1 0.1,-0.093 0.084,-0.093L0.08,-0.093L0.08,-0.094ZM0.114,-0.156C0.113,-0.156 0.113,-0.158 0.114,-0.158C0.115,-0.158 0.115,-0.156 0.114,-0.156ZM0.14,-0.149C0.138,-0.149 0.138,-0.151 0.14,-0.151C0.141,-0.151 0.141,-0.149 0.14,-0.149ZM0.088,-0.147C0.087,-0.147 0.087,-0.148 0.088,-0.148C0.089,-0.148 0.089,-0.147 0.088,-0.147ZM0.084,-0.145C0.082,-0.145 0.082,-0.147 0.084,-0.147C0.085,-0.147 0.085,-0.145 0.084,-0.145ZM0.096,-0.14C0.095,-0.14 0.095,-0.142 0.096,-0.142C0.097,-0.142 0.097,-0.14 0.096,-0.14ZM0.09,-0.135C0.089,-0.135 0.089,-0.137 0.09,-0.137C0.091,-0.137 0.091,-0.135 0.09,-0.135ZM0.097,-0.132C0.096,-0.132 0.096,-0.134 0.097,-0.134C0.098,-0.134 0.098,-0.132 0.097,-0.132ZM0.098,-0.129C0.097,-0.129 0.097,-0.13 0.098,-0.13L0.098,-0.129ZM0.143,-0.116C0.142,-0.116 0.142,-0.118 0.143,-0.118C0.144,-0.118 0.144,-0.116 0.143,-0.116ZM0.16,-0.112C0.159,-0.112 0.159,-0.114 0.16,-0.114C0.162,-0.114 0.162,-0.112 0.16,-0.112ZM0.071,-0.108C0.07,-0.108 0.07,-0.109 0.071,-0.109C0.073,-0.109 0.073,-0.108 0.071,-0.108ZM0.144,-0.096C0.143,-0.096 0.143,-0.098 0.144,-0.098C0.145,-0.098 0.145,-0.096 0.144,-0.096ZM0.144,-0.093C0.143,-0.093 0.143,-0.095 0.144,-0.095C0.145,-0.095 0.145,-0.093 0.144,-0.093ZM0.079,-0.092C0.078,-0.092 0.078,-0.093 0.079,-0.093C0.08,-0.093 0.08,-0.092 0.079,-0.092ZM0.109,-0.082C0.108,-0.082 0.108,-0.084 0.109,-0.084C0.11,-0.084 0.11,-0.082 0.109,-0.082ZM0.147,-0.08C0.146,-0.08 0.146,-0.082 0.147,-0.082C0.148,-0.082 0.148,-0.08 0.147,-0.08ZM0.052,-0.056C0.051,-0.056 0.051,-0.058 0.052,-0.058C0.053,-0.058 0.053,-0.056 0.052,-0.056ZM0.047,-0.011C0.046,-0.011 0.046,-0.013 0.047,-0.013C0.048,-0.013 0.048,-0.011 0.047,-0.011ZM0.068,0.031C0.069,0.031 0.069,0.03 0.068,0.03C0.067,0.03 0.067,0.031 0.068,0.031ZM0.075,0.032C0.076,0.032 0.076,0.031 0.075,0.031C0.074,0.031 0.074,0.032 0.075,0.032Z" style="fill-rule:nonzero;"/>
            </g>
            <g transform="matrix(576,0,0,576,816.509,650.844)">
                <path d="M0.18,-0.189C0.163,-0.161 0.143,-0.064 0.134,-0.055L0.133,-0.055C0.125,-0.055 0.108,-0.16 0.082,-0.164L0.081,-0.165L0.08,-0.165C0.062,-0.165 0.044,-0.106 0.039,-0.094L0.038,-0.093C0.035,-0.088 0.031,-0.074 0.03,-0.072C0.031,-0.069 0.024,-0.057 0.024,-0.056L0.022,-0.056L0.022,-0.055L0.023,-0.053C0.022,-0.048 0.017,-0.038 0.017,-0.032C0.017,-0.026 0.022,-0.028 0.025,-0.024C0.026,-0.024 0.032,-0.023 0.033,-0.023L0.034,-0.023C0.045,-0.023 0.051,-0.058 0.053,-0.067C0.055,-0.068 0.058,-0.077 0.058,-0.08C0.064,-0.096 0.077,-0.112 0.081,-0.129L0.082,-0.128C0.088,-0.122 0.087,-0.108 0.092,-0.101C0.098,-0.085 0.112,-0.018 0.142,-0.018L0.149,-0.018C0.162,-0.02 0.152,-0.066 0.163,-0.07C0.163,-0.071 0.165,-0.077 0.165,-0.079C0.165,-0.081 0.164,-0.081 0.166,-0.083L0.173,-0.108L0.174,-0.11L0.174,-0.111C0.174,-0.112 0.176,-0.12 0.177,-0.122C0.183,-0.125 0.204,-0.175 0.204,-0.183C0.204,-0.185 0.203,-0.187 0.202,-0.188C0.201,-0.189 0.198,-0.191 0.198,-0.191L0.197,-0.19C0.194,-0.192 0.192,-0.192 0.189,-0.192L0.185,-0.192C0.184,-0.19 0.18,-0.189 0.18,-0.189ZM0.2,-0.183C0.2,-0.182 0.199,-0.182 0.199,-0.183L0.2,-0.183ZM0.177,-0.169C0.176,-0.169 0.176,-0.171 0.177,-0.171C0.178,-0.171 0.178,-0.169 0.177,-0.169ZM0.18,-0.163C0.179,-0.163 0.179,-0.165 0.18,-0.165C0.181,-0.165 0.181,-0.163 0.18,-0.163ZM0.075,-0.148C0.074,-0.148 0.074,-0.15 0.075,-0.15C0.076,-0.15 0.076,-0.148 0.075,-0.148ZM0.164,-0.146C0.163,-0.146 0.163,-0.148 0.164,-0.148C0.165,-0.148 0.165,-0.146 0.164,-0.146ZM0.09,-0.144C0.089,-0.144 0.089,-0.146 0.09,-0.146C0.091,-0.146 0.091,-0.144 0.09,-0.144ZM0.163,-0.14C0.162,-0.14 0.162,-0.142 0.163,-0.142C0.164,-0.142 0.164,-0.14 0.163,-0.14ZM0.063,-0.133C0.062,-0.133 0.062,-0.135 0.063,-0.135C0.064,-0.135 0.064,-0.133 0.063,-0.133ZM0.173,-0.126C0.172,-0.126 0.172,-0.128 0.173,-0.128C0.174,-0.128 0.174,-0.126 0.173,-0.126ZM0.063,-0.124C0.062,-0.124 0.062,-0.126 0.063,-0.126C0.064,-0.126 0.064,-0.124 0.063,-0.124ZM0.1,-0.122C0.099,-0.122 0.099,-0.123 0.1,-0.123L0.1,-0.122ZM0.173,-0.118C0.172,-0.118 0.172,-0.12 0.173,-0.12C0.174,-0.12 0.174,-0.118 0.173,-0.118ZM0.091,-0.107C0.09,-0.107 0.09,-0.109 0.091,-0.109C0.092,-0.109 0.092,-0.107 0.091,-0.107ZM0.094,-0.099C0.093,-0.099 0.093,-0.101 0.094,-0.101C0.095,-0.101 0.095,-0.099 0.094,-0.099ZM0.163,-0.093C0.162,-0.093 0.162,-0.095 0.163,-0.095C0.164,-0.095 0.164,-0.093 0.163,-0.093ZM0.103,-0.08C0.102,-0.08 0.102,-0.082 0.103,-0.082C0.104,-0.082 0.104,-0.08 0.103,-0.08ZM0.041,-0.079C0.04,-0.079 0.04,-0.081 0.041,-0.081C0.042,-0.081 0.042,-0.079 0.041,-0.079ZM0.046,-0.079C0.045,-0.079 0.045,-0.081 0.046,-0.081C0.047,-0.081 0.047,-0.079 0.046,-0.079ZM0.144,-0.076C0.143,-0.076 0.143,-0.078 0.144,-0.078C0.145,-0.078 0.145,-0.076 0.144,-0.076ZM0.056,-0.074C0.055,-0.074 0.055,-0.076 0.056,-0.076C0.057,-0.076 0.057,-0.074 0.056,-0.074ZM0.141,-0.074C0.14,-0.074 0.14,-0.076 0.141,-0.076C0.142,-0.076 0.142,-0.074 0.141,-0.074ZM0.12,-0.07C0.119,-0.07 0.119,-0.072 0.12,-0.072C0.121,-0.072 0.121,-0.07 0.12,-0.07ZM0.153,-0.07C0.152,-0.07 0.152,-0.072 0.153,-0.072C0.154,-0.072 0.154,-0.07 0.153,-0.07ZM0.146,-0.067C0.145,-0.067 0.145,-0.069 0.146,-0.069C0.147,-0.069 0.147,-0.067 0.146,-0.067ZM0.124,-0.06C0.123,-0.06 0.123,-0.062 0.124,-0.062C0.125,-0.062 0.125,-0.06 0.124,-0.06ZM0.047,-0.059C0.046,-0.059 0.046,-0.061 0.047,-0.061C0.048,-0.061 0.048,-0.059 0.047,-0.059ZM0.029,-0.057C0.028,-0.057 0.028,-0.059 0.029,-0.059C0.03,-0.059 0.03,-0.057 0.029,-0.057ZM0.139,-0.048C0.138,-0.048 0.138,-0.05 0.139,-0.05C0.14,-0.05 0.14,-0.048 0.139,-0.048ZM0.079,-0.046C0.08,-0.046 0.08,-0.048 0.079,-0.048C0.078,-0.048 0.078,-0.046 0.079,-0.046ZM0.14,-0.046C0.139,-0.046 0.139,-0.048 0.14,-0.048C0.141,-0.048 0.141,-0.046 0.14,-0.046ZM0.15,-0.042C0.149,-0.042 0.149,-0.044 0.15,-0.044C0.151,-0.044 0.151,-0.042 0.15,-0.042ZM0.145,-0.04C0.144,-0.04 0.144,-0.042 0.145,-0.042C0.146,-0.042 0.146,-0.04 0.145,-0.04ZM0.142,-0.038C0.141,-0.038 0.141,-0.04 0.142,-0.04C0.143,-0.04 0.143,-0.038 0.142,-0.038ZM0.151,-0.026C0.15,-0.026 0.15,-0.028 0.151,-0.028C0.152,-0.028 0.152,-0.026 0.151,-0.026ZM0.155,-0.011C0.156,-0.011 0.156,-0.013 0.155,-0.013C0.154,-0.013 0.154,-0.011 0.155,-0.011Z" style="fill-rule:nonzero;"/>
            </g>
            <g transform="matrix(576,0,0,576,921.485,650.844)">
                <path d="M0.18,-0.189C0.163,-0.161 0.143,-0.064 0.134,-0.055L0.133,-0.055C0.125,-0.055 0.108,-0.16 0.082,-0.164L0.081,-0.165L0.08,-0.165C0.062,-0.165 0.044,-0.106 0.039,-0.094L0.038,-0.093C0.035,-0.088 0.031,-0.074 0.03,-0.072C0.031,-0.069 0.024,-0.057 0.024,-0.056L0.022,-0.056L0.022,-0.055L0.023,-0.053C0.022,-0.048 0.017,-0.038 0.017,-0.032C0.017,-0.026 0.022,-0.028 0.025,-0.024C0.026,-0.024 0.032,-0.023 0.033,-0.023L0.034,-0.023C0.045,-0.023 0.051,-0.058 0.053,-0.067C0.055,-0.068 0.058,-0.077 0.058,-0.08C0.064,-0.096 0.077,-0.112 0.081,-0.129L0.082,-0.128C0.088,-0.122 0.087,-0.108 0.092,-0.101C0.098,-0.085 0.112,-0.018 0.142,-0.018L0.149,-0.018C0.162,-0.02 0.152,-0.066 0.163,-0.07C0.163,-0.071 0.165,-0.077 0.165,-0.079C0.165,-0.081 0.164,-0.081 0.166,-0.083L0.173,-0.108L0.174,-0.11L0.174,-0.111C0.174,-0.112 0.176,-0.12 0.177,-0.122C0.183,-0.125 0.204,-0.175 0.204,-0.183C0.204,-0.185 0.203,-0.187 0.202,-0.188C0.201,-0.189 0.198,-0.191 0.198,-0.191L0.197,-0.19C0.194,-0.192 0.192,-0.192 0.189,-0.192L0.185,-0.192C0.184,-0.19 0.18,-0.189 0.18,-0.189ZM0.2,-0.183C0.2,-0.182 0.199,-0.182 0.199,-0.183L0.2,-0.183ZM0.177,-0.169C0.176,-0.169 0.176,-0.171 0.177,-0.171C0.178,-0.171 0.178,-0.169 0.177,-0.169ZM0.18,-0.163C0.179,-0.163 0.179,-0.165 0.18,-0.165C0.181,-0.165 0.181,-0.163 0.18,-0.163ZM0.075,-0.148C0.074,-0.148 0.074,-0.15 0.075,-0.15C0.076,-0.15 0.076,-0.148 0.075,-0.148ZM0.164,-0.146C0.163,-0.146 0.163,-0.148 0.164,-0.148C0.165,-0.148 0.165,-0.146 0.164,-0.146ZM0.09,-0.144C0.089,-0.144 0.089,-0.146 0.09,-0.146C0.091,-0.146 0.091,-0.144 0.09,-0.144ZM0.163,-0.14C0.162,-0.14 0.162,-0.142 0.163,-0.142C0.164,-0.142 0.164,-0.14 0.163,-0.14ZM0.063,-0.133C0.062,-0.133 0.062,-0.135 0.063,-0.135C0.064,-0.135 0.064,-0.133 0.063,-0.133ZM0.173,-0.126C0.172,-0.126 0.172,-0.128 0.173,-0.128C0.174,-0.128 0.174,-0.126 0.173,-0.126ZM0.063,-0.124C0.062,-0.124 0.062,-0.126 0.063,-0.126C0.064,-0.126 0.064,-0.124 0.063,-0.124ZM0.1,-0.122C0.099,-0.122 0.099,-0.123 0.1,-0.123L0.1,-0.122ZM0.173,-0.118C0.172,-0.118 0.172,-0.12 0.173,-0.12C0.174,-0.12 0.174,-0.118 0.173,-0.118ZM0.091,-0.107C0.09,-0.107 0.09,-0.109 0.091,-0.109C0.092,-0.109 0.092,-0.107 0.091,-0.107ZM0.094,-0.099C0.093,-0.099 0.093,-0.101 0.094,-0.101C0.095,-0.101 0.095,-0.099 0.094,-0.099ZM0.163,-0.093C0.162,-0.093 0.162,-0.095 0.163,-0.095C0.164,-0.095 0.164,-0.093 0.163,-0.093ZM0.103,-0.08C0.102,-0.08 0.102,-0.082 0.103,-0.082C0.104,-0.082 0.104,-0.08 0.103,-0.08ZM0.041,-0.079C0.04,-0.079 0.04,-0.081 0.041,-0.081C0.042,-0.081 0.042,-0.079 0.041,-0.079ZM0.046,-0.079C0.045,-0.079 0.045,-0.081 0.046,-0.081C0.047,-0.081 0.047,-0.079 0.046,-0.079ZM0.144,-0.076C0.143,-0.076 0.143,-0.078 0.144,-0.078C0.145,-0.078 0.145,-0.076 0.144,-0.076ZM0.056,-0.074C0.055,-0.074 0.055,-0.076 0.056,-0.076C0.057,-0.076 0.057,-0.074 0.056,-0.074ZM0.141,-0.074C0.14,-0.074 0.14,-0.076 0.141,-0.076C0.142,-0.076 0.142,-0.074 0.141,-0.074ZM0.12,-0.07C0.119,-0.07 0.119,-0.072 0.12,-0.072C0.121,-0.072 0.121,-0.07 0.12,-0.07ZM0.153,-0.07C0.152,-0.07 0.152,-0.072 0.153,-0.072C0.154,-0.072 0.154,-0.07 0.153,-0.07ZM0.146,-0.067C0.145,-0.067 0.145,-0.069 0.146,-0.069C0.147,-0.069 0.147,-0.067 0.146,-0.067ZM0.124,-0.06C0.123,-0.06 0.123,-0.062 0.124,-0.062C0.125,-0.062 0.125,-0.06 0.124,-0.06ZM0.047,-0.059C0.046,-0.059 0.046,-0.061 0.047,-0.061C0.048,-0.061 0.048,-0.059 0.047,-0.059ZM0.029,-0.057C0.028,-0.057 0.028,-0.059 0.029,-0.059C0.03,-0.059 0.03,-0.057 0.029,-0.057ZM0.139,-0.048C0.138,-0.048 0.138,-0.05 0.139,-0.05C0.14,-0.05 0.14,-0.048 0.139,-0.048ZM0.079,-0.046C0.08,-0.046 0.08,-0.048 0.079,-0.048C0.078,-0.048 0.078,-0.046 0.079,-0.046ZM0.14,-0.046C0.139,-0.046 0.139,-0.048 0.14,-0.048C0.141,-0.048 0.141,-0.046 0.14,-0.046ZM0.15,-0.042C0.149,-0.042 0.149,-0.044 0.15,-0.044C0.151,-0.044 0.151,-0.042 0.15,-0.042ZM0.145,-0.04C0.144,-0.04 0.144,-0.042 0.145,-0.042C0.146,-0.042 0.146,-0.04 0.145,-0.04ZM0.142,-0.038C0.141,-0.038 0.141,-0.04 0.142,-0.04C0.143,-0.04 0.143,-0.038 0.142,-0.038ZM0.151,-0.026C0.15,-0.026 0.15,-0.028 0.151,-0.028C0.152,-0.028 0.152,-0.026 0.151,-0.026ZM0.155,-0.011C0.156,-0.011 0.156,-0.013 0.155,-0.013C0.154,-0.013 0.154,-0.011 0.155,-0.011Z" style="fill-rule:nonzero;"/>
            </g>
            <g transform="matrix(576,0,0,576,1026.46,650.844)">
                <path d="M0.047,-0.126C0.047,-0.125 0.047,-0.123 0.048,-0.123C0.044,-0.124 0.038,-0.051 0.038,-0.046C0.038,-0.036 0.044,-0.029 0.054,-0.029C0.062,-0.029 0.064,-0.037 0.064,-0.044L0.065,-0.044L0.065,-0.045C0.065,-0.046 0.063,-0.048 0.063,-0.048C0.063,-0.048 0.068,-0.075 0.069,-0.078C0.069,-0.079 0.07,-0.082 0.07,-0.082L0.071,-0.083L0.07,-0.085L0.07,-0.087C0.07,-0.097 0.075,-0.106 0.075,-0.115L0.074,-0.117C0.074,-0.128 0.076,-0.144 0.08,-0.154C0.073,-0.155 0.069,-0.163 0.06,-0.163L0.054,-0.163C0.051,-0.162 0.05,-0.153 0.05,-0.15C0.049,-0.146 0.047,-0.131 0.047,-0.128L0.047,-0.126ZM0.074,-0.141C0.073,-0.141 0.073,-0.143 0.074,-0.143C0.075,-0.143 0.075,-0.141 0.074,-0.141ZM0.019,-0.134L0.02,-0.134L0.02,-0.135L0.019,-0.135L0.019,-0.134ZM0.058,-0.103C0.057,-0.103 0.057,-0.105 0.058,-0.105C0.059,-0.105 0.059,-0.103 0.058,-0.103ZM0.052,-0.091C0.051,-0.091 0.051,-0.093 0.052,-0.093C0.053,-0.093 0.053,-0.091 0.052,-0.091ZM0.06,-0.091C0.059,-0.091 0.059,-0.093 0.06,-0.093C0.061,-0.093 0.061,-0.091 0.06,-0.091ZM0.071,-0.085C0.072,-0.085 0.072,-0.087 0.071,-0.087C0.07,-0.087 0.07,-0.085 0.071,-0.085ZM0.043,-0.083C0.042,-0.083 0.042,-0.085 0.043,-0.085C0.044,-0.085 0.044,-0.083 0.043,-0.083ZM0.045,-0.077C0.044,-0.077 0.044,-0.079 0.045,-0.079C0.046,-0.079 0.046,-0.077 0.045,-0.077ZM0.064,-0.074C0.063,-0.074 0.063,-0.076 0.064,-0.076C0.065,-0.076 0.065,-0.074 0.064,-0.074ZM0.044,-0.069C0.043,-0.069 0.043,-0.071 0.044,-0.071C0.045,-0.071 0.045,-0.069 0.044,-0.069ZM0.041,-0.059C0.04,-0.059 0.04,-0.061 0.041,-0.061C0.042,-0.061 0.042,-0.059 0.041,-0.059ZM0.041,-0.051C0.04,-0.051 0.04,-0.053 0.041,-0.053C0.042,-0.053 0.042,-0.051 0.041,-0.051ZM0.04,-0.049C0.039,-0.049 0.039,-0.051 0.04,-0.051C0.041,-0.051 0.041,-0.049 0.04,-0.049ZM0.06,-0.046C0.059,-0.046 0.059,-0.048 0.06,-0.048C0.061,-0.048 0.061,-0.046 0.06,-0.046ZM0.061,-0.039C0.06,-0.039 0.06,-0.041 0.061,-0.041C0.062,-0.041 0.062,-0.039 0.061,-0.039Z" style="fill-rule:nonzero;"/>
            </g>
            <g transform="matrix(576,0,0,576,1067.5,650.844)">
                <path d="M0.03,-0.088C0.033,-0.082 0.026,-0.057 0.027,-0.048C0.03,-0.031 0.036,-0.024 0.051,-0.014C0.056,-0.016 0.077,-0.007 0.085,-0.009C0.091,-0.01 0.102,-0.014 0.107,-0.019L0.105,-0.02C0.107,-0.021 0.108,-0.021 0.108,-0.023C0.108,-0.026 0.104,-0.029 0.101,-0.029C0.092,-0.028 0.085,-0.023 0.076,-0.022C0.062,-0.02 0.055,-0.033 0.054,-0.045C0.048,-0.084 0.072,-0.147 0.11,-0.171C0.113,-0.173 0.13,-0.183 0.132,-0.185C0.133,-0.185 0.136,-0.186 0.137,-0.186C0.145,-0.187 0.153,-0.184 0.161,-0.183C0.162,-0.184 0.162,-0.186 0.162,-0.187C0.159,-0.194 0.138,-0.202 0.129,-0.201C0.077,-0.194 0.039,-0.13 0.03,-0.088ZM0.076,-0.165C0.076,-0.165 0.075,-0.167 0.076,-0.167C0.077,-0.167 0.077,-0.166 0.076,-0.165ZM0.083,-0.166C0.082,-0.166 0.082,-0.168 0.083,-0.168C0.084,-0.168 0.084,-0.166 0.083,-0.166ZM0.086,-0.167C0.085,-0.166 0.085,-0.168 0.086,-0.168L0.086,-0.167ZM0.083,-0.147C0.082,-0.147 0.082,-0.148 0.083,-0.149C0.083,-0.149 0.084,-0.147 0.083,-0.147ZM0.058,-0.136C0.057,-0.136 0.057,-0.138 0.058,-0.138C0.059,-0.138 0.059,-0.137 0.058,-0.136ZM0.05,-0.131C0.049,-0.131 0.048,-0.133 0.049,-0.133C0.05,-0.133 0.051,-0.131 0.05,-0.131ZM0.046,-0.126C0.045,-0.126 0.044,-0.128 0.045,-0.128C0.046,-0.128 0.047,-0.126 0.046,-0.126ZM0.044,-0.122C0.043,-0.122 0.043,-0.124 0.044,-0.124C0.045,-0.124 0.045,-0.122 0.044,-0.122ZM0.047,-0.115C0.046,-0.115 0.046,-0.117 0.047,-0.117C0.048,-0.117 0.048,-0.116 0.047,-0.115ZM0.041,-0.102C0.04,-0.102 0.04,-0.104 0.041,-0.104C0.042,-0.104 0.042,-0.102 0.041,-0.102ZM0.033,-0.096C0.032,-0.096 0.032,-0.098 0.033,-0.098C0.034,-0.098 0.034,-0.096 0.033,-0.096ZM0.035,-0.096C0.034,-0.096 0.034,-0.098 0.035,-0.098C0.036,-0.098 0.036,-0.096 0.035,-0.096ZM0.055,-0.088C0.054,-0.088 0.054,-0.09 0.055,-0.09C0.056,-0.09 0.056,-0.088 0.055,-0.088ZM0.034,-0.083C0.033,-0.083 0.033,-0.084 0.034,-0.085C0.035,-0.085 0.035,-0.083 0.034,-0.083ZM0.047,-0.073C0.046,-0.073 0.046,-0.075 0.047,-0.075C0.048,-0.075 0.048,-0.073 0.047,-0.073ZM0.083,-0.077C0.083,-0.077 0.083,-0.078 0.082,-0.078C0.082,-0.078 0.082,-0.077 0.083,-0.077ZM0.043,-0.065C0.042,-0.065 0.042,-0.067 0.043,-0.067C0.044,-0.067 0.044,-0.066 0.043,-0.065ZM0.062,-0.058C0.063,-0.058 0.063,-0.059 0.062,-0.059L0.062,-0.058ZM0.029,-0.048C0.028,-0.048 0.028,-0.049 0.029,-0.049C0.03,-0.05 0.03,-0.048 0.029,-0.048ZM0.05,-0.043C0.049,-0.043 0.049,-0.045 0.05,-0.045C0.051,-0.045 0.051,-0.044 0.05,-0.043ZM0.05,-0.042C0.05,-0.041 0.049,-0.041 0.049,-0.042L0.05,-0.042ZM0.038,-0.033C0.037,-0.033 0.037,-0.035 0.038,-0.035C0.039,-0.035 0.039,-0.033 0.038,-0.033ZM0.056,-0.027C0.055,-0.026 0.055,-0.028 0.056,-0.028C0.057,-0.028 0.057,-0.027 0.056,-0.027ZM0.086,-0.012C0.085,-0.012 0.084,-0.014 0.085,-0.014C0.086,-0.014 0.087,-0.012 0.086,-0.012ZM0.057,-0.005C0.058,-0.006 0.058,-0.007 0.057,-0.007C0.056,-0.007 0.056,-0.005 0.057,-0.005ZM0.04,0.023L0.04,0.022C0.039,0.022 0.039,0.023 0.04,0.023ZM0.025,0.027C0.026,0.027 0.026,0.025 0.025,0.025C0.024,0.026 0.024,0.027 0.025,0.027ZM0.035,0.026C0.035,0.026 0.035,0.024 0.034,0.024C0.033,0.024 0.034,0.026 0.035,0.026ZM0.027,0.028C0.028,0.028 0.028,0.026 0.027,0.026C0.026,0.026 0.026,0.028 0.027,0.028ZM0.03,0.029C0.03,0.029 0.03,0.028 0.029,0.028C0.029,0.029 0.03,0.03 0.03,0.029ZM0.032,0.029C0.033,0.029 0.033,0.027 0.032,0.027C0.031,0.027 0.031,0.029 0.032,0.029Z" style="fill-rule:nonzero;"/>
            </g>
            <g transform="matrix(576,0,0,576,1136.77,650.844)">
                <path d="M0.094,-0.197C0.089,-0.184 0.086,-0.172 0.082,-0.16C0.088,-0.148 0.037,-0.068 0.037,-0.045L0.036,-0.045C0.033,-0.036 0.027,-0.025 0.027,-0.015C0.027,-0.012 0.028,-0.006 0.031,-0.004C0.032,-0.004 0.033,-0.003 0.033,-0.003C0.038,-0.001 0.046,0.002 0.052,0.002L0.052,-0.002C0.054,-0.002 0.055,-0 0.056,-0.004C0.056,-0.004 0.055,-0.006 0.055,-0.007L0.055,-0.01C0.055,-0.019 0.071,-0.074 0.079,-0.077C0.102,-0.064 0.106,-0.02 0.137,-0.02C0.144,-0.02 0.147,-0.021 0.147,-0.028C0.147,-0.05 0.103,-0.066 0.103,-0.089C0.103,-0.09 0.107,-0.094 0.107,-0.094L0.109,-0.093C0.114,-0.093 0.134,-0.104 0.134,-0.108L0.135,-0.108L0.137,-0.11C0.139,-0.111 0.147,-0.117 0.149,-0.118C0.15,-0.124 0.163,-0.134 0.167,-0.138C0.167,-0.138 0.187,-0.159 0.187,-0.162C0.187,-0.167 0.171,-0.17 0.168,-0.17C0.164,-0.17 0.151,-0.159 0.149,-0.155L0.13,-0.135C0.119,-0.133 0.112,-0.114 0.097,-0.114C0.097,-0.128 0.116,-0.146 0.112,-0.161C0.112,-0.162 0.121,-0.181 0.121,-0.187C0.121,-0.197 0.105,-0.199 0.099,-0.199C0.097,-0.199 0.096,-0.199 0.094,-0.197ZM0.094,-0.18C0.093,-0.18 0.093,-0.182 0.094,-0.182C0.095,-0.182 0.095,-0.18 0.094,-0.18ZM0.11,-0.167C0.109,-0.167 0.109,-0.169 0.11,-0.169C0.111,-0.169 0.111,-0.167 0.11,-0.167ZM0.086,-0.162C0.085,-0.162 0.085,-0.164 0.086,-0.164C0.087,-0.164 0.087,-0.162 0.086,-0.162ZM0.155,-0.157C0.154,-0.157 0.154,-0.159 0.155,-0.159C0.156,-0.159 0.156,-0.157 0.155,-0.157ZM0.181,-0.157C0.18,-0.157 0.18,-0.159 0.181,-0.159C0.182,-0.159 0.182,-0.157 0.181,-0.157ZM0.177,-0.156C0.176,-0.156 0.176,-0.158 0.177,-0.158C0.178,-0.158 0.178,-0.156 0.177,-0.156ZM0.169,-0.152C0.168,-0.152 0.168,-0.154 0.169,-0.154C0.17,-0.154 0.17,-0.152 0.169,-0.152ZM0.169,-0.148C0.168,-0.148 0.168,-0.15 0.169,-0.15C0.17,-0.15 0.17,-0.148 0.169,-0.148ZM0.155,-0.139C0.154,-0.139 0.154,-0.141 0.155,-0.141C0.156,-0.141 0.156,-0.139 0.155,-0.139ZM0.086,-0.134C0.085,-0.134 0.085,-0.136 0.086,-0.136C0.087,-0.136 0.087,-0.134 0.086,-0.134ZM0.129,-0.13C0.128,-0.13 0.128,-0.132 0.129,-0.132C0.13,-0.132 0.13,-0.13 0.129,-0.13ZM0.142,-0.118C0.141,-0.118 0.141,-0.12 0.142,-0.12C0.143,-0.12 0.143,-0.118 0.142,-0.118ZM0.117,-0.114C0.116,-0.114 0.116,-0.116 0.117,-0.116C0.118,-0.116 0.118,-0.114 0.117,-0.114ZM0.129,-0.105C0.128,-0.105 0.128,-0.106 0.129,-0.106C0.13,-0.106 0.13,-0.105 0.129,-0.105ZM0.125,-0.104L0.125,-0.105L0.126,-0.105L0.125,-0.104ZM0.112,-0.099C0.111,-0.099 0.111,-0.101 0.112,-0.101C0.113,-0.101 0.113,-0.099 0.112,-0.099ZM0.152,-0.095C0.153,-0.095 0.153,-0.097 0.152,-0.097C0.151,-0.097 0.151,-0.095 0.152,-0.095ZM0.052,-0.082C0.051,-0.082 0.051,-0.084 0.052,-0.084C0.053,-0.084 0.053,-0.082 0.052,-0.082ZM0.077,-0.079C0.076,-0.079 0.076,-0.08 0.077,-0.08C0.078,-0.08 0.078,-0.079 0.077,-0.079ZM0.131,-0.047C0.13,-0.047 0.13,-0.049 0.131,-0.049C0.132,-0.049 0.132,-0.047 0.131,-0.047ZM0.144,-0.027C0.143,-0.027 0.143,-0.029 0.144,-0.029C0.145,-0.029 0.145,-0.027 0.144,-0.027ZM0.038,-0.026C0.037,-0.026 0.037,-0.028 0.038,-0.028C0.039,-0.028 0.039,-0.026 0.038,-0.026ZM0.036,-0.007C0.035,-0.007 0.035,-0.009 0.036,-0.009C0.037,-0.009 0.037,-0.007 0.036,-0.007Z" style="fill-rule:nonzero;"/>
            </g>
            <g transform="matrix(576,0,0,576,1334.58,650.844)">
                <path d="M0.069,-0.181C0.059,-0.177 0.048,-0.159 0.044,-0.153C0.038,-0.15 0.039,-0.139 0.033,-0.136C0.032,-0.13 0.031,-0.127 0.031,-0.122C0.029,-0.101 0.051,-0.085 0.066,-0.076C0.069,-0.069 0.078,-0.066 0.077,-0.057C0.075,-0.033 0.037,-0.039 0.035,-0.022C0.035,-0.014 0.046,-0.009 0.053,-0.008C0.074,-0.006 0.106,-0.024 0.108,-0.047C0.112,-0.081 0.059,-0.086 0.062,-0.118C0.065,-0.149 0.125,-0.173 0.126,-0.182C0.127,-0.191 0.112,-0.195 0.106,-0.195C0.099,-0.196 0.065,-0.186 0.069,-0.181ZM0.04,-0.129C0.039,-0.129 0.039,-0.131 0.04,-0.131C0.041,-0.131 0.041,-0.129 0.04,-0.129ZM0.035,-0.118C0.034,-0.118 0.034,-0.12 0.035,-0.12C0.036,-0.12 0.036,-0.118 0.035,-0.118ZM0.036,-0.104C0.035,-0.105 0.036,-0.107 0.037,-0.106C0.038,-0.106 0.037,-0.104 0.036,-0.104ZM0.043,-0.097L0.044,-0.098L0.044,-0.097L0.043,-0.097ZM0.069,-0.079C0.068,-0.079 0.068,-0.081 0.069,-0.081C0.07,-0.081 0.07,-0.079 0.069,-0.079ZM0.087,-0.078C0.086,-0.078 0.086,-0.08 0.087,-0.08C0.088,-0.079 0.088,-0.077 0.087,-0.078ZM0.095,-0.072C0.095,-0.071 0.093,-0.071 0.094,-0.072L0.095,-0.072ZM0.1,-0.063L0.1,-0.064L0.101,-0.064L0.101,-0.063L0.1,-0.063ZM0.099,-0.031C0.098,-0.031 0.098,-0.033 0.099,-0.033C0.1,-0.033 0.1,-0.031 0.099,-0.031ZM0.082,-0.021C0.081,-0.021 0.081,-0.023 0.082,-0.023C0.083,-0.023 0.083,-0.021 0.082,-0.021Z" style="fill-rule:nonzero;"/>
            </g>
            <g transform="matrix(576,0,0,576,1395.2,650.844)">
                <path d="M0.03,-0.088C0.033,-0.082 0.026,-0.057 0.027,-0.048C0.03,-0.031 0.036,-0.024 0.051,-0.014C0.056,-0.016 0.077,-0.007 0.085,-0.009C0.091,-0.01 0.102,-0.014 0.107,-0.019L0.105,-0.02C0.107,-0.021 0.108,-0.021 0.108,-0.023C0.108,-0.026 0.104,-0.029 0.101,-0.029C0.092,-0.028 0.085,-0.023 0.076,-0.022C0.062,-0.02 0.055,-0.033 0.054,-0.045C0.048,-0.084 0.072,-0.147 0.11,-0.171C0.113,-0.173 0.13,-0.183 0.132,-0.185C0.133,-0.185 0.136,-0.186 0.137,-0.186C0.145,-0.187 0.153,-0.184 0.161,-0.183C0.162,-0.184 0.162,-0.186 0.162,-0.187C0.159,-0.194 0.138,-0.202 0.129,-0.201C0.077,-0.194 0.039,-0.13 0.03,-0.088ZM0.076,-0.165C0.076,-0.165 0.075,-0.167 0.076,-0.167C0.077,-0.167 0.077,-0.166 0.076,-0.165ZM0.083,-0.166C0.082,-0.166 0.082,-0.168 0.083,-0.168C0.084,-0.168 0.084,-0.166 0.083,-0.166ZM0.086,-0.167C0.085,-0.166 0.085,-0.168 0.086,-0.168L0.086,-0.167ZM0.083,-0.147C0.082,-0.147 0.082,-0.148 0.083,-0.149C0.083,-0.149 0.084,-0.147 0.083,-0.147ZM0.058,-0.136C0.057,-0.136 0.057,-0.138 0.058,-0.138C0.059,-0.138 0.059,-0.137 0.058,-0.136ZM0.05,-0.131C0.049,-0.131 0.048,-0.133 0.049,-0.133C0.05,-0.133 0.051,-0.131 0.05,-0.131ZM0.046,-0.126C0.045,-0.126 0.044,-0.128 0.045,-0.128C0.046,-0.128 0.047,-0.126 0.046,-0.126ZM0.044,-0.122C0.043,-0.122 0.043,-0.124 0.044,-0.124C0.045,-0.124 0.045,-0.122 0.044,-0.122ZM0.047,-0.115C0.046,-0.115 0.046,-0.117 0.047,-0.117C0.048,-0.117 0.048,-0.116 0.047,-0.115ZM0.041,-0.102C0.04,-0.102 0.04,-0.104 0.041,-0.104C0.042,-0.104 0.042,-0.102 0.041,-0.102ZM0.033,-0.096C0.032,-0.096 0.032,-0.098 0.033,-0.098C0.034,-0.098 0.034,-0.096 0.033,-0.096ZM0.035,-0.096C0.034,-0.096 0.034,-0.098 0.035,-0.098C0.036,-0.098 0.036,-0.096 0.035,-0.096ZM0.055,-0.088C0.054,-0.088 0.054,-0.09 0.055,-0.09C0.056,-0.09 0.056,-0.088 0.055,-0.088ZM0.034,-0.083C0.033,-0.083 0.033,-0.084 0.034,-0.085C0.035,-0.085 0.035,-0.083 0.034,-0.083ZM0.047,-0.073C0.046,-0.073 0.046,-0.075 0.047,-0.075C0.048,-0.075 0.048,-0.073 0.047,-0.073ZM0.083,-0.077C0.083,-0.077 0.083,-0.078 0.082,-0.078C0.082,-0.078 0.082,-0.077 0.083,-0.077ZM0.043,-0.065C0.042,-0.065 0.042,-0.067 0.043,-0.067C0.044,-0.067 0.044,-0.066 0.043,-0.065ZM0.062,-0.058C0.063,-0.058 0.063,-0.059 0.062,-0.059L0.062,-0.058ZM0.029,-0.048C0.028,-0.048 0.028,-0.049 0.029,-0.049C0.03,-0.05 0.03,-0.048 0.029,-0.048ZM0.05,-0.043C0.049,-0.043 0.049,-0.045 0.05,-0.045C0.051,-0.045 0.051,-0.044 0.05,-0.043ZM0.05,-0.042C0.05,-0.041 0.049,-0.041 0.049,-0.042L0.05,-0.042ZM0.038,-0.033C0.037,-0.033 0.037,-0.035 0.038,-0.035C0.039,-0.035 0.039,-0.033 0.038,-0.033ZM0.056,-0.027C0.055,-0.026 0.055,-0.028 0.056,-0.028C0.057,-0.028 0.057,-0.027 0.056,-0.027ZM0.086,-0.012C0.085,-0.012 0.084,-0.014 0.085,-0.014C0.086,-0.014 0.087,-0.012 0.086,-0.012ZM0.057,-0.005C0.058,-0.006 0.058,-0.007 0.057,-0.007C0.056,-0.007 0.056,-0.005 0.057,-0.005ZM0.04,0.023L0.04,0.022C0.039,0.022 0.039,0.023 0.04,0.023ZM0.025,0.027C0.026,0.027 0.026,0.025 0.025,0.025C0.024,0.026 0.024,0.027 0.025,0.027ZM0.035,0.026C0.035,0.026 0.035,0.024 0.034,0.024C0.033,0.024 0.034,0.026 0.035,0.026ZM0.027,0.028C0.028,0.028 0.028,0.026 0.027,0.026C0.026,0.026 0.026,0.028 0.027,0.028ZM0.03,0.029C0.03,0.029 0.03,0.028 0.029,0.028C0.029,0.029 0.03,0.03 0.03,0.029ZM0.032,0.029C0.033,0.029 0.033,0.027 0.032,0.027C0.031,0.027 0.031,0.029 0.032,0.029Z" style="fill-rule:nonzero;"/>
            </g>
            <g transform="matrix(576,0,0,576,1464.47,650.844)">
                <path d="M0.152,-0.204C0.152,-0.197 0.152,-0.188 0.151,-0.181L0.15,-0.179L0.15,-0.17L0.144,-0.133L0.144,-0.132C0.144,-0.129 0.142,-0.116 0.141,-0.113C0.136,-0.112 0.129,-0.111 0.124,-0.109L0.101,-0.109C0.1,-0.109 0.092,-0.11 0.091,-0.11L0.088,-0.109C0.082,-0.109 0.066,-0.108 0.066,-0.117C0.066,-0.134 0.073,-0.153 0.075,-0.17L0.074,-0.173L0.075,-0.176L0.075,-0.178C0.075,-0.187 0.064,-0.187 0.057,-0.187L0.053,-0.187L0.049,-0.184C0.05,-0.176 0.048,-0.168 0.048,-0.159C0.045,-0.158 0.047,-0.152 0.045,-0.151L0.046,-0.15L0.045,-0.146C0.045,-0.144 0.044,-0.137 0.044,-0.135C0.042,-0.135 0.043,-0.132 0.043,-0.131L0.03,-0.062C0.031,-0.056 0.023,-0.025 0.023,-0.02C0.023,-0.014 0.028,-0.009 0.034,-0.009C0.034,-0.009 0.036,-0.009 0.036,-0.01C0.038,-0.008 0.039,-0.008 0.041,-0.008C0.057,-0.008 0.056,-0.097 0.065,-0.097C0.076,-0.097 0.088,-0.092 0.099,-0.092L0.1,-0.093L0.102,-0.093C0.108,-0.093 0.113,-0.092 0.118,-0.092C0.119,-0.092 0.121,-0.092 0.122,-0.093L0.139,-0.093C0.139,-0.092 0.138,-0.089 0.138,-0.088C0.137,-0.082 0.136,-0.066 0.136,-0.065L0.136,-0.061L0.134,-0.06L0.134,-0.051L0.135,-0.05C0.133,-0.05 0.134,-0.047 0.134,-0.046C0.134,-0.037 0.145,-0.032 0.153,-0.032C0.174,-0.032 0.166,-0.153 0.178,-0.176L0.178,-0.2C0.178,-0.203 0.169,-0.204 0.167,-0.206L0.155,-0.206C0.154,-0.205 0.153,-0.204 0.152,-0.204ZM0.174,-0.185C0.173,-0.185 0.173,-0.187 0.174,-0.187C0.175,-0.187 0.175,-0.185 0.174,-0.185ZM0.055,-0.183C0.054,-0.183 0.054,-0.185 0.055,-0.185C0.056,-0.185 0.056,-0.183 0.055,-0.183ZM0.074,-0.179C0.073,-0.179 0.073,-0.181 0.074,-0.181C0.075,-0.181 0.075,-0.179 0.074,-0.179ZM0.172,-0.176C0.171,-0.176 0.171,-0.178 0.172,-0.178C0.173,-0.178 0.173,-0.176 0.172,-0.176ZM0.059,-0.166L0.058,-0.167C0.059,-0.167 0.059,-0.167 0.059,-0.166ZM0.168,-0.148C0.167,-0.148 0.167,-0.15 0.168,-0.15C0.169,-0.15 0.169,-0.148 0.168,-0.148ZM0.165,-0.145C0.164,-0.145 0.164,-0.147 0.165,-0.147C0.166,-0.147 0.166,-0.145 0.165,-0.145ZM0.057,-0.141C0.056,-0.141 0.056,-0.143 0.057,-0.143C0.058,-0.143 0.058,-0.141 0.057,-0.141ZM0.067,-0.139C0.066,-0.139 0.066,-0.141 0.067,-0.141C0.068,-0.141 0.068,-0.139 0.067,-0.139ZM0.165,-0.135C0.164,-0.135 0.164,-0.137 0.165,-0.137C0.166,-0.137 0.166,-0.135 0.165,-0.135ZM0.167,-0.133C0.166,-0.133 0.166,-0.135 0.167,-0.135C0.168,-0.135 0.168,-0.133 0.167,-0.133ZM0.165,-0.123C0.164,-0.123 0.164,-0.125 0.165,-0.125C0.166,-0.125 0.166,-0.123 0.165,-0.123ZM0.092,-0.107C0.091,-0.107 0.091,-0.109 0.092,-0.109C0.093,-0.109 0.093,-0.107 0.092,-0.107ZM0.129,-0.099C0.128,-0.099 0.128,-0.101 0.129,-0.101C0.13,-0.101 0.13,-0.099 0.129,-0.099ZM0.06,-0.098C0.059,-0.098 0.059,-0.1 0.06,-0.1C0.061,-0.1 0.061,-0.098 0.06,-0.098ZM0.131,-0.095C0.13,-0.095 0.13,-0.097 0.131,-0.097C0.132,-0.097 0.132,-0.095 0.131,-0.095ZM0.136,-0.095C0.135,-0.095 0.135,-0.097 0.136,-0.097C0.137,-0.097 0.137,-0.095 0.136,-0.095ZM0.044,-0.089C0.043,-0.089 0.043,-0.091 0.044,-0.091C0.045,-0.091 0.045,-0.089 0.044,-0.089ZM0.032,-0.057C0.031,-0.057 0.031,-0.059 0.032,-0.059C0.033,-0.059 0.033,-0.057 0.032,-0.057ZM0.136,-0.055C0.135,-0.055 0.135,-0.057 0.136,-0.057C0.137,-0.057 0.137,-0.055 0.136,-0.055ZM0.048,-0.035C0.047,-0.035 0.047,-0.037 0.048,-0.037C0.049,-0.037 0.049,-0.035 0.048,-0.035ZM0.048,-0.032C0.047,-0.032 0.047,-0.034 0.048,-0.034C0.049,-0.034 0.049,-0.032 0.048,-0.032Z" style="fill-rule:nonzero;"/>
            </g>
            <g transform="matrix(576,0,0,576,1564.83,650.844)">
                <path d="M0.022,-0.133C0.019,-0.132 0.016,-0.104 0.016,-0.101C0.016,-0.099 0.017,-0.099 0.017,-0.097L0.017,-0.094C0.017,-0.093 0.016,-0.089 0.016,-0.088C0.016,-0.056 0.028,-0.014 0.068,-0.014L0.068,-0.016C0.077,-0.016 0.085,-0.021 0.092,-0.027C0.107,-0.067 0.165,-0.107 0.165,-0.155L0.165,-0.156L0.164,-0.158L0.164,-0.159C0.164,-0.162 0.166,-0.163 0.166,-0.168C0.166,-0.173 0.165,-0.183 0.158,-0.183C0.135,-0.183 0.101,-0.046 0.061,-0.036L0.059,-0.037C0.058,-0.037 0.057,-0.036 0.056,-0.036L0.055,-0.036C0.04,-0.036 0.039,-0.058 0.039,-0.068L0.039,-0.073L0.04,-0.074C0.039,-0.08 0.039,-0.083 0.039,-0.089C0.039,-0.118 0.063,-0.144 0.063,-0.171C0.063,-0.178 0.052,-0.187 0.046,-0.187C0.045,-0.187 0.042,-0.186 0.042,-0.186C0.033,-0.181 0.025,-0.141 0.022,-0.133ZM0.152,-0.172C0.151,-0.172 0.151,-0.174 0.152,-0.174C0.154,-0.174 0.154,-0.172 0.152,-0.172ZM0.048,-0.164C0.047,-0.164 0.047,-0.166 0.048,-0.166C0.05,-0.166 0.05,-0.164 0.048,-0.164ZM0.144,-0.158C0.143,-0.158 0.143,-0.16 0.144,-0.16C0.146,-0.16 0.146,-0.158 0.144,-0.158ZM0.149,-0.156C0.148,-0.156 0.148,-0.158 0.149,-0.158C0.15,-0.158 0.15,-0.156 0.149,-0.156ZM0.134,-0.144C0.133,-0.144 0.133,-0.147 0.134,-0.147C0.135,-0.147 0.135,-0.144 0.134,-0.144ZM0.137,-0.131C0.135,-0.131 0.135,-0.133 0.137,-0.133C0.138,-0.133 0.138,-0.131 0.137,-0.131ZM0.025,-0.112C0.024,-0.112 0.024,-0.114 0.025,-0.114C0.026,-0.114 0.026,-0.112 0.025,-0.112ZM0.121,-0.1C0.121,-0.1 0.119,-0.1 0.12,-0.1C0.12,-0.101 0.121,-0.101 0.121,-0.1ZM0.132,-0.094C0.131,-0.094 0.131,-0.096 0.132,-0.096C0.133,-0.096 0.133,-0.094 0.132,-0.094ZM0.128,-0.091C0.126,-0.091 0.126,-0.094 0.128,-0.094C0.129,-0.094 0.129,-0.091 0.128,-0.091ZM0.031,-0.089C0.03,-0.089 0.03,-0.091 0.031,-0.091C0.033,-0.091 0.033,-0.089 0.031,-0.089ZM0.036,-0.088C0.035,-0.088 0.035,-0.09 0.036,-0.09C0.037,-0.09 0.037,-0.088 0.036,-0.088ZM0.107,-0.082C0.106,-0.082 0.106,-0.085 0.107,-0.085C0.108,-0.085 0.108,-0.082 0.107,-0.082ZM0.026,-0.064C0.025,-0.064 0.025,-0.066 0.026,-0.066C0.027,-0.066 0.027,-0.064 0.026,-0.064ZM0.112,-0.061C0.111,-0.061 0.111,-0.063 0.112,-0.063C0.113,-0.063 0.113,-0.061 0.112,-0.061ZM0.022,-0.056C0.021,-0.056 0.021,-0.059 0.022,-0.059C0.024,-0.059 0.024,-0.056 0.022,-0.056ZM0.109,-0.052C0.108,-0.052 0.108,-0.054 0.109,-0.054C0.111,-0.054 0.111,-0.052 0.109,-0.052ZM0.088,-0.048C0.087,-0.048 0.087,-0.051 0.088,-0.051C0.089,-0.051 0.089,-0.048 0.088,-0.048ZM0.1,-0.043C0.099,-0.043 0.099,-0.045 0.1,-0.045C0.102,-0.045 0.102,-0.043 0.1,-0.043ZM0.028,-0.038C0.027,-0.038 0.027,-0.04 0.028,-0.04C0.029,-0.04 0.029,-0.038 0.028,-0.038ZM0.072,-0.031C0.071,-0.031 0.071,-0.034 0.072,-0.034C0.073,-0.034 0.073,-0.031 0.072,-0.031ZM0.025,-0.028C0.026,-0.028 0.026,-0.03 0.025,-0.03C0.024,-0.03 0.024,-0.028 0.025,-0.028ZM0.082,-0.026C0.081,-0.026 0.081,-0.028 0.082,-0.028C0.083,-0.028 0.083,-0.026 0.082,-0.026Z" style="fill-rule:nonzero;"/>
            </g>
            <g transform="matrix(576,0,0,576,1654.83,650.844)">
                <path d="M0.022,-0.18L0.01,-0.175C0.01,-0.175 0.009,-0.172 0.009,-0.17C0.01,-0.16 0.019,-0.151 0.03,-0.153C0.039,-0.154 0.078,-0.165 0.082,-0.171C0.082,-0.171 0.082,-0.17 0.083,-0.17C0.083,-0.166 0.076,-0.145 0.073,-0.144L0.06,-0.106C0.059,-0.098 0.05,-0.081 0.053,-0.075C0.049,-0.063 0.045,-0.05 0.046,-0.037C0.048,-0.028 0.054,-0.011 0.066,-0.012C0.07,-0.013 0.072,-0.018 0.071,-0.021C0.071,-0.024 0.07,-0.025 0.069,-0.028C0.069,-0.033 0.072,-0.038 0.072,-0.043C0.072,-0.043 0.071,-0.044 0.07,-0.045C0.072,-0.044 0.101,-0.145 0.108,-0.157C0.11,-0.161 0.11,-0.16 0.109,-0.165L0.109,-0.169C0.106,-0.169 0.105,-0.171 0.105,-0.173C0.104,-0.176 0.11,-0.176 0.112,-0.176C0.123,-0.177 0.159,-0.183 0.164,-0.171C0.164,-0.172 0.165,-0.174 0.166,-0.174L0.169,-0.173L0.174,-0.173C0.177,-0.173 0.179,-0.178 0.179,-0.181C0.175,-0.206 0.131,-0.199 0.116,-0.202L0.077,-0.197C0.07,-0.191 0.024,-0.19 0.022,-0.18ZM0.086,-0.192L0.086,-0.194L0.087,-0.194L0.086,-0.192ZM0.047,-0.184C0.045,-0.184 0.045,-0.186 0.046,-0.186C0.047,-0.187 0.048,-0.184 0.047,-0.184ZM0.14,-0.197C0.139,-0.196 0.139,-0.199 0.14,-0.199C0.141,-0.199 0.141,-0.197 0.14,-0.197ZM0.061,-0.184C0.06,-0.184 0.06,-0.186 0.061,-0.186C0.062,-0.186 0.062,-0.184 0.061,-0.184ZM0.117,-0.188C0.116,-0.188 0.116,-0.19 0.117,-0.19C0.118,-0.19 0.119,-0.188 0.117,-0.188ZM0.109,-0.186C0.108,-0.185 0.107,-0.188 0.108,-0.188C0.109,-0.188 0.11,-0.186 0.109,-0.186ZM0.113,-0.184C0.112,-0.184 0.112,-0.186 0.113,-0.186C0.114,-0.186 0.115,-0.184 0.113,-0.184ZM0.122,-0.183C0.12,-0.183 0.12,-0.185 0.121,-0.185C0.122,-0.185 0.123,-0.183 0.122,-0.183ZM0.037,-0.157C0.035,-0.157 0.035,-0.159 0.036,-0.159C0.037,-0.159 0.038,-0.157 0.037,-0.157ZM0.036,-0.156C0.034,-0.155 0.034,-0.158 0.035,-0.158C0.036,-0.158 0.037,-0.156 0.036,-0.156ZM0.085,-0.135C0.084,-0.135 0.083,-0.137 0.084,-0.137C0.086,-0.137 0.086,-0.135 0.085,-0.135ZM0.084,-0.1C0.083,-0.099 0.082,-0.102 0.083,-0.102C0.085,-0.102 0.085,-0.1 0.084,-0.1ZM0.053,-0.063C0.052,-0.063 0.052,-0.065 0.053,-0.065C0.054,-0.065 0.054,-0.063 0.053,-0.063ZM0.068,-0.053C0.067,-0.053 0.067,-0.055 0.068,-0.056C0.069,-0.056 0.069,-0.054 0.068,-0.053ZM0.073,-0.053C0.072,-0.053 0.071,-0.055 0.073,-0.055C0.074,-0.055 0.074,-0.053 0.073,-0.053ZM0.051,-0.034C0.05,-0.034 0.05,-0.036 0.051,-0.036C0.052,-0.037 0.053,-0.034 0.051,-0.034ZM0.052,-0.03C0.051,-0.03 0.051,-0.032 0.052,-0.032C0.053,-0.032 0.053,-0.03 0.052,-0.03ZM0.054,-0.02C0.053,-0.02 0.053,-0.022 0.054,-0.022C0.055,-0.022 0.056,-0.02 0.054,-0.02Z" style="fill-rule:nonzero;"/>
            </g>
            <g transform="matrix(576,0,0,576,1753.47,650.844)">
                <path d="M0.067,-0.175C0.067,-0.174 0.067,-0.174 0.066,-0.173C0.065,-0.173 0.061,-0.172 0.06,-0.172C0.059,-0.172 0.053,-0.173 0.052,-0.173C0.041,-0.173 0.028,-0.168 0.017,-0.168L0.015,-0.168L0.013,-0.169C0.009,-0.169 0.001,-0.167 0.001,-0.162C0.001,-0.153 0.022,-0.147 0.029,-0.147C0.05,-0.147 0.073,-0.157 0.094,-0.157C0.094,-0.149 0.055,-0.108 0.058,-0.105L0.052,-0.096C0.058,-0.087 0.012,-0.048 0.012,-0.037C0.023,-0.037 0.072,-0.007 0.103,-0.007C0.108,-0.007 0.116,-0.007 0.116,-0.013C0.116,-0.022 0.098,-0.028 0.091,-0.028C0.09,-0.028 0.085,-0.025 0.083,-0.025C0.076,-0.025 0.049,-0.028 0.049,-0.036C0.049,-0.04 0.06,-0.053 0.059,-0.055C0.062,-0.058 0.065,-0.061 0.065,-0.065C0.066,-0.065 0.072,-0.082 0.076,-0.079C0.079,-0.089 0.14,-0.159 0.135,-0.164L0.126,-0.172C0.123,-0.175 0.103,-0.177 0.097,-0.177C0.089,-0.177 0.077,-0.176 0.067,-0.175ZM0.133,-0.162C0.132,-0.162 0.132,-0.164 0.133,-0.164C0.134,-0.164 0.134,-0.162 0.133,-0.162ZM0.064,-0.158C0.063,-0.158 0.063,-0.16 0.064,-0.16C0.065,-0.16 0.065,-0.158 0.064,-0.158ZM0.127,-0.156C0.126,-0.156 0.126,-0.158 0.127,-0.158C0.128,-0.158 0.128,-0.156 0.127,-0.156ZM0.059,-0.154C0.058,-0.154 0.058,-0.156 0.059,-0.156C0.06,-0.156 0.06,-0.154 0.059,-0.154ZM0.038,-0.153C0.037,-0.153 0.037,-0.155 0.038,-0.155C0.039,-0.155 0.039,-0.153 0.038,-0.153ZM0.102,-0.152C0.101,-0.152 0.101,-0.154 0.102,-0.154C0.103,-0.154 0.103,-0.152 0.102,-0.152ZM0.07,-0.145C0.071,-0.145 0.071,-0.147 0.07,-0.147C0.069,-0.147 0.069,-0.145 0.07,-0.145ZM0.109,-0.127C0.108,-0.127 0.108,-0.128 0.109,-0.128C0.11,-0.128 0.11,-0.127 0.109,-0.127ZM0.096,-0.111C0.095,-0.111 0.095,-0.114 0.096,-0.114C0.097,-0.114 0.097,-0.111 0.096,-0.111ZM0.065,-0.109C0.064,-0.109 0.064,-0.111 0.065,-0.111C0.066,-0.111 0.066,-0.109 0.065,-0.109ZM0.049,-0.081C0.048,-0.081 0.048,-0.083 0.049,-0.083C0.05,-0.083 0.05,-0.081 0.049,-0.081ZM0.047,-0.08C0.046,-0.08 0.046,-0.082 0.047,-0.082C0.048,-0.082 0.048,-0.08 0.047,-0.08ZM0.071,-0.079C0.07,-0.079 0.07,-0.081 0.071,-0.081C0.072,-0.081 0.072,-0.079 0.071,-0.079ZM0.048,-0.077C0.047,-0.077 0.047,-0.079 0.048,-0.079C0.049,-0.079 0.049,-0.077 0.048,-0.077ZM0.038,-0.072C0.037,-0.072 0.037,-0.074 0.038,-0.074C0.039,-0.074 0.039,-0.072 0.038,-0.072ZM0.048,-0.07C0.047,-0.07 0.047,-0.072 0.048,-0.072C0.049,-0.072 0.049,-0.07 0.048,-0.07ZM0.049,-0.068C0.048,-0.068 0.048,-0.07 0.049,-0.07C0.05,-0.07 0.05,-0.068 0.049,-0.068ZM0.041,-0.067C0.04,-0.067 0.04,-0.069 0.041,-0.069C0.042,-0.069 0.042,-0.067 0.041,-0.067ZM0.06,-0.06C0.059,-0.06 0.059,-0.062 0.06,-0.062C0.061,-0.062 0.061,-0.06 0.06,-0.06ZM0.059,-0.057C0.058,-0.057 0.058,-0.059 0.059,-0.059C0.06,-0.059 0.06,-0.057 0.059,-0.057ZM0.033,-0.05C0.032,-0.05 0.032,-0.053 0.033,-0.053C0.034,-0.053 0.034,-0.05 0.033,-0.05ZM0.028,-0.047C0.027,-0.047 0.027,-0.049 0.028,-0.049C0.029,-0.049 0.029,-0.047 0.028,-0.047ZM0.026,-0.043C0.025,-0.043 0.025,-0.045 0.026,-0.045C0.027,-0.045 0.027,-0.043 0.026,-0.043ZM0.039,-0.039C0.038,-0.039 0.038,-0.041 0.039,-0.041C0.04,-0.041 0.04,-0.039 0.039,-0.039ZM0.069,-0.021C0.067,-0.021 0.067,-0.023 0.069,-0.023C0.07,-0.023 0.07,-0.021 0.069,-0.021ZM0.072,-0.008C0.073,-0.008 0.073,-0.01 0.072,-0.01C0.071,-0.01 0.071,-0.008 0.072,-0.008Z" style="fill-rule:nonzero;"/>
            </g>
        </g>
    </g>
</svg>
