<?xml version="1.0" encoding="UTF-8" standalone="no"?>
<!DOCTYPE svg PUBLIC "-//W3C//DTD SVG 1.1//EN" "http://www.w3.org/Graphics/SVG/1.1/DTD/svg11.dtd">
<svg width="100%" height="100%" viewBox="0 0 1425 1416" version="1.1" xmlns="http://www.w3.org/2000/svg" xmlns:xlink="http://www.w3.org/1999/xlink" xml:space="preserve" xmlns:serif="http://www.serif.com/" style="fill-rule:evenodd;clip-rule:evenodd;stroke-linejoin:round;stroke-miterlimit:2;">
    <g transform="matrix(0.1,0,0,-0.1,0,1416)">
        <path d="M7270,13648C7196,13644 7119,13636 7100,13631C7081,13625 7004,13618 6930,13614C6812,13608 6790,13610 6761,13625C6732,13640 6705,13641 6571,13638C6473,13636 6407,13630 6393,13622C6376,13613 6340,13612 6232,13620C6118,13629 6088,13628 6059,13617C6036,13607 5959,13600 5824,13596C5713,13592 5596,13584 5564,13578C5532,13572 5478,13568 5445,13569C5395,13570 5378,13566 5350,13545C5331,13531 5309,13520 5300,13520C5291,13520 5268,13512 5249,13503C5195,13476 5059,13431 5010,13424C4985,13420 4959,13413 4952,13407C4944,13401 4917,13393 4892,13389C4866,13385 4819,13377 4786,13370C4754,13364 4706,13361 4679,13365C4646,13370 4613,13366 4574,13355C4522,13340 4473,13329 4315,13299C4288,13294 4245,13286 4220,13281C4195,13277 4141,13256 4098,13236C4048,13213 4004,13199 3968,13197C3939,13195 3899,13188 3880,13182C3861,13176 3829,13168 3810,13165C3773,13160 3706,13108 3718,13094C3722,13090 3720,13090 3713,13094C3707,13097 3679,13087 3651,13071C3623,13054 3566,13025 3523,13005C3481,12985 3443,12965 3440,12960C3437,12955 3396,12930 3350,12904C3233,12839 3136,12775 3065,12715C3032,12687 2987,12654 2965,12641C2943,12628 2909,12603 2890,12585C2871,12568 2843,12545 2829,12534C2701,12440 2667,12410 2400,12153C2322,12078 2234,11996 2105,11878C2078,11853 2041,11826 2024,11817C2007,11808 1967,11769 1935,11731C1904,11692 1874,11660 1870,11660C1866,11660 1849,11633 1831,11601C1813,11566 1782,11527 1757,11508C1734,11490 1709,11468 1702,11458C1695,11449 1668,11418 1642,11389C1616,11361 1589,11328 1581,11316C1573,11304 1544,11270 1517,11240C1489,11210 1461,11171 1454,11154C1447,11137 1435,11118 1427,11112C1400,11089 1221,10768 1179,10668C1163,10628 1131,10561 1108,10520C1086,10479 1055,10409 1040,10365C988,10216 960,10145 925,10071C906,10031 890,9990 890,9979C890,9969 877,9946 861,9928C810,9869 750,9734 750,9675C750,9658 744,9636 737,9625C709,9584 680,9476 680,9411C680,9342 669,9297 639,9238C629,9218 620,9186 620,9168C620,9138 612,9122 558,9042C548,9027 542,8998 542,8966C542,8917 521,8864 483,8819C475,8810 465,8760 459,8709C454,8657 442,8600 433,8581C424,8560 420,8534 424,8512C427,8493 425,8470 421,8461C416,8452 411,8398 409,8340C407,8282 398,8204 388,8165C378,8127 370,8084 370,8071C370,8058 359,8034 345,8018C322,7991 319,7979 321,7916C322,7876 318,7834 311,7822C305,7811 300,7786 300,7766C300,7747 296,7729 291,7725C275,7716 287,7120 304,7020C312,6973 324,6891 329,6838C335,6785 353,6702 369,6653C407,6537 430,6431 434,6345C445,6140 476,5848 495,5760C503,5724 519,5650 531,5595C543,5541 562,5473 573,5445C629,5299 643,5261 655,5220C674,5154 714,5051 753,4968C772,4928 813,4830 844,4750C876,4670 914,4576 930,4540C946,4504 968,4451 980,4421C991,4391 1010,4356 1020,4342C1031,4328 1040,4313 1040,4307C1040,4296 1117,4122 1147,4065C1155,4049 1178,4004 1198,3965C1218,3927 1241,3884 1251,3870C1359,3713 1540,3415 1540,3396C1540,3391 1551,3372 1565,3354C1579,3336 1590,3317 1590,3311C1590,3287 1680,3105 1703,3084C1717,3072 1743,3035 1761,3003C1779,2971 1823,2914 1858,2875C1893,2837 1930,2790 1940,2770C1950,2750 1983,2710 2014,2680C2045,2650 2070,2620 2070,2613C2070,2606 2087,2589 2108,2576C2129,2563 2166,2529 2190,2500C2258,2419 2601,2120 2626,2120C2634,2120 2734,2037 2743,2023C2747,2016 2806,1978 2873,1939C2940,1899 3016,1852 3043,1834C3069,1815 3093,1800 3096,1800C3102,1800 3178,1744 3233,1699C3251,1685 3281,1665 3300,1655C3319,1645 3348,1626 3364,1613C3380,1600 3414,1578 3439,1564C3484,1540 3542,1501 3625,1442C3647,1426 3692,1398 3725,1380C3777,1352 3899,1276 4010,1204C4029,1191 4070,1171 4100,1159C4130,1147 4162,1131 4170,1124C4192,1106 4637,900 4654,900C4656,900 4687,887 4722,871C4757,855 4800,839 4817,835C4835,832 4852,824 4855,819C4859,814 4872,810 4886,810C4900,810 4927,802 4948,791C4968,781 5003,767 5025,760C5047,754 5079,742 5097,734C5114,726 5134,720 5142,720C5150,720 5160,716 5165,711C5171,705 5187,699 5202,696C5217,694 5234,689 5239,685C5253,677 5429,640 5455,640C5466,640 5505,624 5540,605C5576,586 5619,570 5637,570C5679,570 5757,554 5855,525C5899,512 5960,497 5990,491C6020,486 6077,472 6115,460C6156,448 6228,437 6290,433C6348,430 6401,423 6408,417C6416,411 6449,402 6483,397C6567,385 6636,373 6690,361C6715,356 6772,348 6815,345C6859,341 6899,335 6905,332C6921,322 7034,309 7159,304C7242,301 7286,304 7319,314C7344,322 7406,334 7455,341C7505,347 7561,358 7580,366C7599,373 7647,384 7685,390C7724,397 7778,406 7805,411C7921,431 8034,442 8185,446C8273,448 8365,454 8390,459C8415,464 8503,466 8585,464C8724,461 8780,465 8900,490C9010,512 9066,522 9094,525C9127,528 9163,535 9305,569C9534,625 9624,648 9673,666C9693,674 9718,680 9728,680C9738,680 9769,691 9797,704C9824,718 9864,732 9886,736C9907,739 9934,747 9945,753C9956,759 9968,763 9973,762C9977,761 9980,765 9980,771C9980,776 9985,778 9990,775C9996,771 10006,772 10013,777C10020,782 10048,795 10075,805C10103,815 10159,840 10200,860C10241,881 10285,900 10297,904C10326,913 10486,1009 10580,1074C10719,1170 10765,1203 10770,1211C10776,1220 10885,1284 10955,1319C10983,1333 11019,1355 11034,1368C11050,1380 11066,1390 11071,1390C11084,1390 11193,1456 11216,1478C11227,1489 11246,1500 11257,1504C11268,1507 11292,1524 11310,1540C11328,1556 11345,1568 11348,1566C11350,1563 11360,1569 11371,1578C11382,1587 11406,1604 11424,1615C11452,1632 11530,1683 11591,1724C11674,1780 11759,1843 11780,1862C11794,1875 11824,1899 11847,1915C11870,1932 11915,1964 11947,1986C11979,2009 12021,2045 12042,2067C12062,2089 12089,2116 12102,2126C12115,2136 12136,2159 12148,2175C12161,2192 12255,2291 12358,2395C12461,2500 12568,2611 12594,2643C12621,2674 12649,2700 12656,2700C12665,2700 12670,2711 12670,2728C12670,2746 12685,2772 12713,2805C12736,2833 12780,2896 12809,2945C12839,2995 12869,3042 12876,3051C12899,3077 13008,3303 13039,3386C13055,3429 13073,3481 13080,3500C13088,3519 13100,3550 13108,3569C13116,3587 13126,3614 13130,3629C13154,3705 13211,3855 13220,3864C13225,3869 13230,3882 13230,3892C13230,3902 13245,3943 13264,3983C13282,4023 13317,4100 13340,4155C13363,4210 13386,4260 13392,4267C13397,4273 13403,4291 13406,4306C13409,4321 13420,4351 13430,4373C13441,4396 13450,4423 13450,4434C13450,4446 13459,4482 13469,4515C13529,4696 13542,4743 13556,4820C13565,4867 13578,4919 13585,4935C13606,4983 13620,5031 13620,5055C13620,5076 13643,5158 13681,5275C13692,5310 13709,5415 13720,5530C13731,5637 13743,5736 13746,5750C13749,5764 13754,5807 13755,5845C13757,5884 13763,5947 13768,5985C13774,6024 13788,6140 13800,6244C13811,6348 13823,6437 13826,6441C13829,6446 13835,6477 13840,6512C13857,6628 13868,6685 13885,6752C13899,6808 13900,6826 13890,6856C13876,6899 13874,6966 13867,8000C13861,8791 13859,8831 13815,8937C13807,8957 13800,8995 13800,9022C13800,9050 13792,9087 13781,9108C13768,9134 13761,9176 13757,9250C13751,9362 13724,9499 13684,9618C13671,9658 13660,9701 13660,9714C13660,9726 13640,9790 13615,9856C13590,9921 13570,9987 13570,10002C13570,10018 13549,10083 13524,10148C13499,10212 13469,10290 13458,10320C13424,10407 13364,10523 13342,10543C13331,10553 13316,10576 13309,10593C13302,10611 13280,10643 13261,10665C13241,10687 13198,10746 13166,10795C13133,10845 13092,10908 13073,10935C13035,10992 12674,11362 12629,11389C12601,11406 12529,11483 12476,11553C12460,11574 12434,11592 12408,11600C12313,11630 12269,11658 12118,11785C12079,11818 12027,11859 12004,11875C11939,11920 11849,11990 11810,12024C11791,12041 11744,12073 11706,12095C11668,12117 11618,12152 11594,12173C11550,12211 11456,12261 11255,12352C11195,12379 11111,12423 11070,12449C11029,12476 10975,12506 10950,12517C10925,12528 10888,12549 10867,12563C10846,12577 10808,12597 10782,12606C10756,12616 10724,12631 10710,12641C10696,12650 10651,12675 10610,12696C10569,12716 10500,12755 10457,12781C10356,12844 9976,13030 9950,13030C9939,13030 9894,13048 9850,13070C9806,13092 9758,13110 9743,13110C9728,13110 9705,13121 9691,13134C9667,13156 9604,13177 9460,13209C9441,13213 9412,13224 9395,13232C9379,13241 9343,13255 9315,13263C9288,13271 9217,13296 9157,13319C9098,13341 9006,13371 8952,13385C8899,13399 8833,13419 8805,13429C8718,13462 8623,13490 8601,13490C8589,13490 8563,13497 8542,13506C8522,13515 8465,13526 8416,13530C8368,13535 8323,13543 8317,13549C8311,13555 8297,13560 8285,13560C8274,13560 8231,13571 8190,13584C8095,13615 7950,13641 7840,13646C7677,13655 7404,13655 7270,13648ZM7000,12836C7168,12835 7311,12831 7318,12826C7326,12822 7398,12814 7478,12810C7682,12798 8062,12755 8140,12735C8175,12726 8216,12712 8232,12704C8247,12696 8267,12690 8277,12690C8287,12690 8307,12684 8322,12676C8337,12668 8391,12650 8442,12635C8493,12620 8567,12597 8605,12584C8644,12571 8702,12555 8735,12549C8817,12535 9022,12473 9240,12397C9265,12388 9326,12369 9375,12354C9425,12339 9490,12316 9520,12303C9550,12290 9595,12276 9620,12273C9645,12270 9674,12262 9685,12255C9696,12248 9720,12239 9737,12236C9755,12232 9786,12220 9807,12210C9827,12200 9850,12194 9857,12197C9864,12200 9870,12197 9870,12191C9870,12185 9875,12180 9880,12180C9886,12180 9927,12162 9973,12141C10018,12119 10108,12079 10172,12050C10237,12021 10294,11992 10300,11985C10305,11979 10343,11958 10382,11941C10422,11923 10478,11898 10505,11885C10533,11872 10573,11854 10595,11844C10617,11834 10641,11820 10649,11812C10656,11805 10699,11781 10744,11758C10788,11736 10840,11706 10859,11691C10878,11677 10908,11656 10926,11645C10944,11634 10993,11604 11036,11578C11078,11551 11115,11530 11117,11530C11120,11530 11134,11522 11148,11511C11163,11501 11211,11473 11255,11450C11299,11426 11351,11395 11370,11380C11389,11366 11423,11343 11444,11330C11466,11317 11506,11287 11532,11263C11559,11239 11585,11220 11590,11220C11595,11220 11605,11214 11612,11208C11619,11201 11645,11179 11670,11159C11695,11139 11732,11106 11753,11086C11774,11066 11795,11050 11800,11050C11809,11050 11884,10990 11930,10946C11944,10933 11970,10915 11988,10906C12005,10897 12020,10885 12020,10881C12020,10876 12037,10862 12058,10849C12108,10819 12150,10780 12231,10685C12268,10641 12331,10571 12369,10530C12408,10489 12440,10451 12440,10447C12440,10442 12451,10424 12465,10406C12479,10388 12490,10370 12490,10365C12490,10361 12513,10333 12540,10303C12568,10273 12590,10244 12590,10238C12590,10233 12604,10208 12620,10183C12637,10159 12673,10095 12702,10042C12730,9989 12761,9933 12771,9919C12781,9904 12794,9880 12800,9864C12812,9833 12880,9714 12914,9665C12939,9629 13120,9264 13120,9250C13120,9244 13131,9217 13145,9190C13159,9162 13181,9099 13195,9049C13208,8999 13223,8953 13227,8947C13251,8914 13308,8674 13326,8535C13329,8508 13336,8478 13340,8470C13348,8455 13355,8400 13365,8279C13367,8253 13373,8206 13379,8174C13385,8141 13392,8093 13395,8065C13397,8038 13404,7999 13410,7980C13415,7961 13420,7915 13420,7879C13420,7824 13415,7802 13390,7755C13361,7701 13360,7692 13360,7571C13359,7502 13353,7377 13346,7294C13339,7211 13336,7119 13340,7089C13343,7059 13342,7017 13338,6995C13328,6944 13312,6806 13304,6715C13301,6677 13292,6622 13284,6593C13275,6564 13267,6521 13266,6498C13262,6447 13245,6352 13231,6307C13214,6249 13200,6176 13186,6075C13179,6020 13166,5959 13158,5940C13149,5921 13130,5870 13116,5826C13101,5783 13081,5731 13070,5711C13060,5690 13042,5643 13029,5605C13017,5568 13001,5525 12994,5511C12986,5497 12980,5479 12980,5472C12980,5464 12963,5428 12943,5392C12922,5355 12898,5303 12888,5275C12860,5189 12796,5048 12754,4975C12731,4937 12679,4840 12638,4759C12596,4679 12551,4601 12536,4585C12522,4570 12512,4555 12515,4552C12519,4548 12484,4491 12470,4480C12466,4477 12456,4460 12447,4442C12406,4364 12398,4350 12390,4345C12377,4337 12310,4235 12310,4224C12310,4219 12300,4204 12287,4190C12263,4164 12182,4042 12156,3993C12148,3978 12131,3954 12118,3940C12105,3926 12073,3884 12047,3845C12020,3807 11976,3746 11949,3710C11921,3674 11887,3625 11872,3600C11858,3575 11829,3536 11808,3513C11774,3475 11768,3465 11771,3444C11771,3440 11761,3432 11749,3426C11737,3420 11724,3408 11720,3400C11694,3346 11674,3312 11655,3290C11643,3276 11615,3236 11594,3200C11556,3137 11495,3061 11367,2915C11333,2877 11287,2825 11266,2800C11244,2775 11192,2720 11151,2678C11109,2635 11079,2600 11083,2600C11101,2600 10867,2358 10817,2325C10802,2315 10792,2305 10794,2302C10797,2300 10780,2284 10756,2269C10733,2253 10677,2209 10633,2171C10589,2133 10538,2094 10519,2085C10481,2068 10394,2009 10368,1984C10359,1975 10344,1970 10336,1973C10327,1977 10321,1975 10323,1971C10324,1966 10322,1963 10319,1964C10315,1964 10304,1958 10294,1948C10283,1939 10237,1913 10190,1889C10143,1865 10103,1843 10100,1840C10097,1837 10050,1812 9995,1786C9940,1759 9881,1727 9863,1714C9846,1701 9828,1690 9824,1690C9819,1690 9780,1673 9735,1651C9654,1612 9497,1549 9360,1501C9319,1487 9279,1471 9271,1466C9263,1461 9241,1455 9221,1453C9184,1449 9116,1428 9080,1410C9069,1405 9051,1395 9040,1390C9029,1384 9014,1380 9006,1380C8990,1380 8829,1327 8776,1305C8759,1298 8711,1282 8670,1271C8629,1259 8580,1245 8562,1239C8544,1233 8475,1222 8407,1215C8211,1193 8186,1189 8165,1180C8154,1175 8080,1168 8000,1165C7920,1162 7821,1158 7780,1155C7739,1153 7593,1149 7455,1147C7318,1144 7157,1139 7099,1135C7028,1130 6977,1131 6944,1139C6917,1145 6807,1155 6700,1160C6434,1174 6387,1178 6359,1188C6346,1193 6306,1198 6270,1199C6234,1201 6180,1210 6150,1220C6119,1230 6070,1242 6040,1246C6010,1250 5976,1259 5965,1266C5954,1274 5919,1280 5884,1280C5849,1280 5820,1285 5818,1291C5816,1296 5808,1302 5800,1304C5792,1305 5775,1312 5762,1319C5749,1326 5706,1333 5665,1336C5624,1338 5573,1344 5553,1350C5532,1355 5494,1365 5468,1372C5441,1379 5420,1388 5420,1392C5420,1397 5402,1400 5381,1400C5359,1400 5338,1405 5335,1410C5332,1416 5319,1420 5307,1420C5295,1421 5267,1428 5245,1436C5147,1474 5095,1490 5066,1490C5049,1490 5022,1497 5005,1506C4989,1515 4959,1528 4940,1535C4921,1542 4880,1559 4850,1573C4820,1586 4768,1607 4735,1619C4702,1632 4671,1645 4665,1650C4649,1663 4511,1717 4445,1736C4412,1746 4371,1764 4354,1776C4309,1809 4156,1887 4111,1901C4089,1907 4050,1932 4023,1955C3996,1978 3959,2006 3940,2017C3869,2056 3762,2130 3713,2174C3685,2199 3658,2220 3653,2220C3647,2220 3635,2229 3625,2240C3615,2251 3602,2260 3595,2260C3589,2260 3565,2276 3543,2295C3520,2314 3498,2330 3493,2330C3484,2330 3401,2387 3390,2400C3387,2404 3364,2417 3338,2430C3312,2443 3262,2480 3228,2512C3193,2545 3147,2583 3126,2597C3104,2611 3069,2638 3048,2658C3027,2677 2996,2703 2978,2716C2960,2729 2927,2757 2905,2780C2883,2802 2861,2820 2854,2820C2848,2820 2815,2849 2782,2884C2748,2919 2720,2946 2720,2942C2720,2934 2691,2967 2656,3015C2640,3037 2599,3082 2566,3116C2532,3149 2485,3199 2460,3226C2435,3253 2401,3287 2385,3301C2352,3330 2229,3465 2218,3485C2214,3492 2188,3522 2160,3551C2132,3581 2098,3621 2084,3640C2060,3676 2031,3713 1950,3815C1925,3846 1896,3887 1884,3906C1873,3925 1856,3946 1847,3953C1826,3969 1660,4269 1660,4291C1660,4301 1656,4311 1651,4314C1646,4318 1635,4340 1626,4366C1618,4391 1591,4441 1566,4478C1542,4515 1510,4570 1496,4600C1482,4630 1446,4700 1417,4755C1346,4890 1240,5125 1240,5148C1240,5159 1229,5188 1215,5214C1201,5240 1190,5270 1190,5282C1190,5293 1184,5316 1176,5333C1169,5351 1157,5385 1150,5410C1143,5435 1131,5474 1124,5498C1116,5521 1110,5552 1110,5565C1110,5579 1106,5590 1102,5590C1098,5590 1093,5604 1092,5621C1091,5638 1081,5678 1070,5711C1048,5775 1045,5793 1060,5770C1066,5761 1070,5760 1070,5767C1070,5773 1065,5782 1060,5785C1054,5789 1052,5795 1055,5800C1058,5805 1053,5826 1044,5847C1035,5868 1021,5912 1013,5945C981,6073 948,6226 946,6255C944,6272 938,6294 933,6305C927,6316 925,6340 927,6358C930,6375 928,6390 924,6390C919,6390 914,6402 913,6418C912,6433 907,6468 901,6495C895,6523 886,6579 881,6620C875,6661 866,6731 860,6775C836,6964 820,7230 831,7265C833,7271 828,7367 821,7480C807,7688 807,7692 839,8087C844,8148 854,8208 860,8221C867,8233 874,8261 876,8284C882,8344 889,8379 911,8438C930,8491 947,8572 955,8645C957,8667 973,8723 991,8770C1008,8817 1025,8871 1029,8891C1033,8910 1040,8931 1043,8937C1047,8943 1056,8972 1064,9001C1084,9074 1103,9124 1140,9206C1175,9281 1214,9382 1266,9532C1303,9639 1356,9767 1430,9930C1456,9988 1481,10051 1485,10070C1494,10114 1531,10187 1560,10220C1572,10234 1596,10265 1613,10290C1670,10374 2003,10741 2168,10903C2290,11022 2424,11139 2473,11169C2494,11182 2544,11223 2583,11260C2623,11297 2677,11346 2703,11368C2730,11390 2765,11424 2782,11444C2828,11500 3067,11701 3140,11744C3176,11766 3239,11809 3280,11841C3321,11872 3378,11909 3407,11924C3435,11938 3461,11954 3465,11960C3468,11966 3490,11980 3513,11991C3536,12003 3569,12024 3586,12039C3623,12070 3642,12081 3829,12177C3908,12217 3984,12258 3999,12268C4013,12278 4057,12301 4095,12320C4134,12338 4215,12376 4275,12405C4380,12455 4505,12500 4540,12500C4549,12500 4561,12505 4566,12510C4579,12523 4776,12579 4810,12580C4824,12580 4855,12590 4880,12602C4905,12613 4943,12626 4965,12630C4987,12634 5070,12656 5150,12678C5355,12735 5462,12760 5590,12780C5620,12785 5672,12794 5705,12799C5738,12805 5782,12812 5802,12814C5823,12817 5847,12823 5857,12828C5867,12833 5931,12836 6000,12836C6069,12835 6139,12837 6155,12841C6172,12845 6300,12846 6440,12843C6580,12839 6832,12836 7000,12836ZM8320,905C8320,897 8302,883 8280,874C8258,865 8240,855 8240,850C8240,834 8158,811 8040,795C7870,772 7533,777 7518,804C7513,813 7505,818 7499,815C7494,812 7482,814 7473,819C7463,825 7460,830 7467,830C7474,830 7477,836 7475,843C7471,851 7482,856 7507,857C7528,858 7631,864 7735,870C7840,876 7959,883 8000,885C8126,892 8270,906 8277,913C8289,926 8320,920 8320,905Z" style="fill-rule:nonzero;"/>
        <g transform="matrix(10,0,0,-10,0,14160)">
            <path d="M710,80C1068.75,80 1360,357.813 1360,700C1360,1042.19 1068.75,1320 710,1320C351.255,1320 60,1042.19 60,700C60,357.813 351.255,80 710,80ZM1205.4,549.7C1204,552.9 1202.5,556.3 1201.9,557.2C1200.8,559.4 1200.7,571.7 1201.9,572.4C1202.8,573 1204.2,581.6 1204.6,589.5C1204.7,592.2 1205,595.6 1205.3,597C1205.6,598.4 1206.1,606.5 1206.4,615C1206.7,623.5 1207.2,634.1 1207.5,638.5C1208.7,652.6 1208.7,658.2 1207.8,674.5C1206.6,698.4 1206.1,704 1205,707.8C1204.5,709.8 1204.3,711.7 1204.6,712.1C1204.8,712.5 1204.6,714.8 1204.1,717.2C1203.6,719.6 1202.4,725.5 1201.5,730.5C1199.1,743.4 1197.9,749.3 1197.3,751C1196.9,751.8 1196.5,753.8 1196.3,755.5C1196,757.1 1195.5,759.1 1195,760C1194.6,760.8 1193.9,764.2 1193.5,767.5C1193.1,770.8 1192.3,774.3 1191.8,775.3C1191.3,776.3 1190.7,779.2 1190.5,781.8C1190.3,784.4 1189.7,787.8 1189,789.5C1188.3,791.1 1187.2,794.9 1186.4,797.9C1185.6,800.9 1184.5,803.9 1184.1,804.4C1183.6,805 1182,810.2 1180.5,816C1179.1,821.8 1177.5,827.8 1177,829.5C1176.1,833 1168.6,850.9 1164.7,859.1C1163.2,862.2 1162,866.4 1162,868.7C1162,871.5 1161.2,873.7 1159,876.6C1157.4,878.7 1156,881.1 1156,881.8C1156,885 1140.9,912.2 1136.9,916.3C1135.4,917.8 1133.1,920.4 1131.8,922.1C1130.5,923.8 1129,925.7 1128.5,926.3C1126.2,928.8 1122.2,938.2 1122.7,939.7C1123,940.5 1122.9,941.5 1122.3,941.9C1121.8,942.2 1119.9,945.2 1118,948.5C1116.2,951.8 1113.2,955.8 1111.3,957.4C1108.5,959.8 1104.2,965.6 1099.5,973.2C1092.4,985 1081.9,998.3 1072,1008C1063.9,1015.9 1062.6,1017 1051.4,1024.4C1031.9,1037.3 1024.5,1042.4 1024,1043.1C1023.7,1043.6 1019.5,1045.8 1014.8,1048C1010,1050.2 1005.8,1052.4 1005.6,1052.9C1005.3,1053.4 1000.4,1055.7 994.8,1058C981.8,1063.3 980.6,1063.8 968.8,1069.4C963.5,1071.9 958.7,1074 958.1,1074C957.5,1074 955.2,1075.1 953,1076.5C950.9,1077.9 948.4,1078.7 947.6,1078.4C946.9,1078.1 943.9,1079 941.1,1080.4C938.3,1081.8 935.1,1083 933.9,1083C932.7,1083 930.2,1083.9 928.3,1085.1C926.1,1086.5 922.8,1087.3 918.7,1087.6C915.3,1087.8 910.9,1088.4 909,1088.9C907.1,1089.4 902.1,1090.4 898,1091C893.9,1091.7 889.8,1092.5 889,1092.8C888.2,1093.1 886.8,1093.5 886,1093.6C885.2,1093.8 881.4,1094.8 877.5,1096C873.7,1097.1 867.6,1098.7 864.1,1099.5C860.6,1100.2 857.2,1101.4 856.7,1101.9C856.1,1102.5 854.7,1103 853.7,1103C852.7,1103 850.6,1103.6 849.2,1104.4C847.7,1105.2 841.8,1106.5 836.1,1107.4C830.4,1108.3 825.1,1109.5 824.3,1110.2C823.5,1110.8 821,1111.6 818.7,1112C816.4,1112.4 810.2,1113.8 805,1115C799.8,1116.2 794.4,1117.2 793,1117.2C791.6,1117.2 790,1117.6 789.3,1118.2C788.6,1118.7 787.6,1118.9 787.1,1118.6C786.6,1118.2 782.8,1119.1 778.8,1120.5C772.3,1122.8 770.1,1123 758.7,1122.9C751.6,1122.9 745.6,1123.1 745.3,1123.4C745,1123.7 744,1123.4 743.2,1122.7C741.9,1121.7 741.8,1121.8 742.4,1122.8C743,1123.7 742.5,1123.9 740.7,1123.6C739.3,1123.4 737.1,1123.8 735.7,1124.5C733.5,1125.6 726.6,1126.9 713.8,1128.7C711.7,1129 710.3,1129.6 710.6,1130.1C711.3,1131.3 661.6,1131.2 648.5,1130C633.3,1128.6 619.8,1127.1 616.5,1126.5C609.4,1125.1 604.6,1123.9 603.1,1123.1C602.2,1122.6 598.6,1121.9 595.1,1121.6C591.7,1121.2 587.5,1120.3 585.9,1119.5C584.4,1118.7 582.3,1118 581.2,1118C580.2,1118 576.7,1117.2 573.4,1116.2C570.2,1115.1 565,1113.7 562,1113C554.8,1111.4 529.9,1103.1 528.5,1102C527.8,1101.5 526.5,1100.9 525.4,1100.7C523.4,1100.3 520.5,1099.1 509.8,1094.1C506.2,1092.4 502.6,1091 502,1091C499.9,1091 482,1081.9 482,1080.8C482,1080.2 481.4,1080 480.6,1080.3C479.8,1080.6 479,1080.6 478.8,1080.2C478.6,1079.8 476.1,1078.3 473.2,1076.8C470.3,1075.3 466.7,1073.4 465.2,1072.5C463.7,1071.7 461.4,1070.6 460,1070C457.9,1069.2 451,1064.7 446.5,1061.2C444.2,1059.5 426.1,1049 425.3,1049C424.5,1049 420.7,1045.3 411.5,1035.8C408.5,1032.6 405.6,1030 405.1,1030C403.3,1030 378.5,1004.2 377.6,1001.4C377.3,1000.4 376,998.4 374.8,997C373.5,995.6 371.2,992.7 369.6,990.5C368,988.3 365.5,985.4 364.2,984C362.8,982.6 360.4,979.5 358.9,977.1C357.3,974.6 354.2,970.9 351.9,968.8C349.7,966.7 348.2,965 348.6,965C349.1,965 347.8,963.3 345.9,961.2C342,957.1 337,950.5 337,949.5C337,949.1 334.6,946.5 331.6,943.7C328.7,940.8 325.2,936.4 324,933.7C322.8,931.1 321.4,929 320.8,929C320.3,929 320.1,928.6 320.4,928.1C320.7,927.6 320.4,926.7 319.6,926.1C318.8,925.5 317.3,922.7 316.1,920C314.9,917.2 313.4,915 312.8,915C312.2,915 311.9,914.7 312.3,914.4C312.6,914 311.4,911.3 309.5,908.4C307.6,905.4 306,902.5 306,902C306,901.5 304.7,899.7 303,897.9C301.4,896.1 299.3,893.1 298.5,891.3C297.6,889.5 296.5,887.8 296,887.5C295.4,887.1 293.6,884.1 291.9,880.7C290.2,877.3 287.2,872.4 285.4,869.9C283.5,867.3 282,864.5 282,863.5C282,860.7 269.8,836.8 266.9,833.9C265.5,832.5 265,830.6 265,826.1C265,822.8 264.6,819.8 264,819.5C263.5,819.2 263,818.1 263,817.2C263,816.2 262,813.6 260.9,811.5C254.4,799.3 251.5,791.8 252.4,789.3C253.1,787.5 251.1,779.2 249.2,776.2C248.4,775 247.6,771.6 247.5,768.7C247.3,765.9 246.5,761.4 245.6,758.8C244.7,756.3 244.2,753.6 244.5,752.8C244.8,752 244.2,750.6 243.1,749.5C241.7,748.3 241.2,747 241.6,745.5C241.9,744.1 240.9,740.1 239,735.4C235.7,727.2 234,717.8 233.5,705C232.5,684.1 232.2,680.2 231.5,679C231.1,678.3 230.6,667.6 230.5,655.1C230.4,642.6 230.1,631.9 229.7,631.4C229.4,630.8 229,626.9 228.9,622.6C228.8,617.8 228.1,613.5 227.1,611.5C225.4,608.1 214,597 212.2,597C210.7,597 202.4,614.9 201.1,621C200.5,623.8 199.4,627.1 198.7,628.3C198,629.6 197.5,634.3 197.5,640C197.5,645.2 197,658.7 196.5,670C195.4,694.6 195.4,692 196.8,705.5C199.6,731.9 200.3,736.7 202.1,740.9C203.1,743.3 204,746.1 204,747.1C204,748.1 205.1,752.4 206.5,756.6C207.9,760.8 209,765.3 209,766.6C209,767.8 209.4,769.1 209.9,769.4C211.1,770.2 216.8,785.2 218.1,790.9C218.6,793.4 219.7,797.1 220.4,799C221.2,800.9 224,808.3 226.6,815.4C229.2,822.4 232.3,829.7 233.5,831.4C234.7,833.1 235.5,835.1 235.3,835.7C235.1,836.3 236.5,840.4 238.5,844.7C240.5,849 242.5,853.4 243,854.5C244.6,858.1 249,869.6 249,870.2C249,870.5 249.8,872.5 250.7,874.6C251.6,876.8 252.5,879.3 252.7,880.4C252.9,881.4 254.3,885.2 255.9,888.9C257.5,892.5 259.1,896.6 259.5,897.9C261.1,903.1 268,917 271.8,922.6C274,925.8 276.6,930.1 277.5,932C278.5,933.9 280.7,937.3 282.5,939.5C284.3,941.7 286.3,944.6 287,946C288.8,949.4 295.6,958.5 300.5,964.1C302.7,966.6 306.4,971.4 308.8,974.8C311.2,978.1 313.8,981.4 314.6,982.1C315.4,982.7 316.8,984.8 317.6,986.7C318.5,988.5 320.1,990.5 321.1,991.1C322.3,991.7 323,993.2 323,994.9C323,996.9 324.4,999.1 328.2,1002.8C331.1,1005.7 333.8,1008 334.3,1008C335.1,1008 343.2,1014.7 352.3,1023C354.4,1024.9 358.7,1029.2 361.8,1032.5C376.5,1048 401.1,1071.4 406,1074.7C409,1076.7 412.4,1079.2 413.5,1080.2C417.9,1084.1 425.9,1089.1 433,1092.5C437.1,1094.4 441.9,1096.7 443.5,1097.6C445.2,1098.5 451.4,1101.9 457.4,1105.1C463.4,1108.3 469,1111.5 469.9,1112.3C470.8,1113.1 474,1114.7 477,1115.9C480,1117.1 486.6,1120.2 491.5,1122.6C502.3,1128 519.9,1134.2 550.9,1143.8C553.8,1144.8 556.5,1146.1 556.7,1146.8C557,1147.5 558,1147.8 558.9,1147.5C559.8,1147.2 565.7,1148.4 572,1150.1C578.3,1151.8 585.8,1153.6 588.5,1154.1C591.3,1154.7 598,1156 603.5,1157.2C609,1158.3 616.4,1159.7 620,1160.2C623.6,1160.7 629.2,1161.6 632.5,1162.2C640,1163.6 706.6,1164.1 735.5,1162.9C754.9,1162.1 768.5,1160.6 791.5,1156.5C796.5,1155.7 801.5,1154.5 802.7,1154C804.8,1153.1 808.2,1152.5 837.5,1147.9C852.4,1145.6 855.8,1144.9 865.5,1142.2C876.8,1139.1 885.1,1137 891.6,1135.5C895,1134.8 900.1,1133 902.8,1131.6C905.6,1130.2 908.5,1129 909.2,1129C909.9,1129 913.9,1127.6 918,1125.9C930,1121 939.1,1118 942,1118C943.5,1118 946,1117.6 947.6,1117.1C949.2,1116.6 954.3,1115.7 959,1115C963.7,1114.4 971.3,1113 976,1112C980.7,1111 986.5,1109.7 989,1109.2C997.3,1107.4 1017.7,1099.1 1022.4,1095.5C1024.1,1094.2 1028.6,1091.6 1032.3,1089.6C1036,1087.7 1040.3,1085.1 1041.8,1083.8C1043.4,1082.5 1046.4,1080.6 1048.5,1079.5C1050.7,1078.4 1053.7,1076.3 1055.2,1074.8C1056.7,1073.2 1058.4,1072 1059,1072C1061.8,1072 1090.1,1044.3 1093.1,1038.7C1094.2,1036.5 1096.8,1032.9 1098.9,1030.7C1101,1028.4 1104.4,1023.3 1106.5,1019.5C1109.8,1013.4 1112.5,1009.8 1119.8,1001.5C1122.7,998.2 1130.4,987.7 1132.9,983.6C1134.3,981.5 1138.2,976.5 1141.7,972.6C1148.8,964.7 1157.1,951.3 1163.6,937.4C1165.9,932.4 1172.1,920.3 1177.4,910.6C1183.4,899.6 1187,891.9 1187,890.1C1187,888.4 1187.4,886.9 1188,886.5C1189,885.9 1189.8,883.4 1194.1,867C1195.8,860.7 1198,853.5 1199,851C1201.4,845.1 1204,836.5 1204,834.6C1204,833.7 1204.8,831.1 1205.9,828.8C1206.9,826.4 1208.5,821.1 1209.5,817C1210.4,812.9 1212.2,806.6 1213.5,803C1214.7,799.4 1216,793.4 1216.3,789.7C1216.9,783.8 1217.3,782.6 1219.9,780.5C1221.6,779 1223,776.7 1223.3,774.8C1223.6,773 1224.6,769 1225.5,766C1226.4,763 1227.3,758.7 1227.5,756.4C1227.7,754.2 1228.8,750.4 1229.9,747.9C1231.1,745.5 1232,742.1 1232,740.5C1232,738.8 1232.7,736.4 1233.5,735C1234.3,733.6 1234.9,730.6 1235,728.3C1235,725.8 1235.9,722.6 1237.2,720.3C1239,717.3 1239.5,715 1239.5,708.5C1239.6,704.1 1240,699.9 1240.4,699.1C1242,696.6 1244.3,654.9 1243.1,650.9C1242.5,648.9 1242,643.1 1242,638.1C1242,629.5 1241.5,622.8 1238.9,600.5C1238.4,595.5 1237.7,589.4 1237.5,586.7C1237.2,582.3 1236,577.8 1233.8,572.1C1233.3,570.8 1232.6,566.8 1232.3,563.3C1231.8,557.5 1231.3,556.4 1227.2,551.9C1221.8,545.9 1221,545.4 1213.7,544.6L1208,543.9L1205.4,549.7ZM538.6,349.7C537.3,351.8 533.9,355.7 531.1,358.5C528.3,361.2 526,363.9 526,364.6C526,365.2 524.7,367.5 523,369.8C521.4,372 519.8,375.1 519.4,376.7C519,378.2 517.4,382.1 515.8,385.3C514.2,388.6 512.6,392.9 512.3,394.9C512,396.9 511.1,399.2 510.4,400.1C509.6,400.9 504.9,409.9 499.9,420.1C494.9,430.2 490.4,438.7 490,439C489.6,439.3 488.6,440.8 487.7,442.5C485.4,447 472.6,459 470,459C468,459 462.1,455.5 455.5,450.3C453.9,449 448,445 442.5,441.3C437,437.7 430.6,433 428.4,431C426.1,428.9 422.3,425.9 419.9,424.4C417.5,422.9 411.2,418.8 405.9,415.3C400.5,411.8 395.8,409 395.3,409C394.8,409 393.5,408.2 392.4,407.2C390.2,405.3 382.3,400 381.5,400C381.2,400 378.9,398.5 376.3,396.6C370.4,392.5 364.4,390.8 355,390.6C351,390.5 350.5,390.8 350,393C349.7,394.4 348.2,397.2 346.7,399.2C343.9,402.8 341,410.5 341,414.1C341,415.1 342.5,417.5 344.4,419.4C346.3,421.2 348.8,424.6 349.9,426.8C351,429 353.6,432.2 355.7,434C359.8,437.4 376.3,446 378.7,446C379.5,446 385,450.6 390.8,456.3C400.7,465.8 416,478.8 420.5,481.7C421.6,482.4 425.6,484.7 429.5,486.7C433.3,488.8 438.1,492.1 440.2,494.1C443.6,497.3 444,498.3 444,502.6C444.1,505.3 444.5,509.5 445.1,512C446.6,518.9 447.8,527.5 449,539.5C450.1,550.4 452.6,562.8 456,574.5C456.9,577.8 458.5,584.1 459.4,588.5C460.3,592.9 461.9,600.3 463,605C464.1,609.7 464.7,614.5 464.4,615.7C464,617 464.2,618 464.8,618C467.3,618 469,621.3 469,626.3C469,632.2 471.6,637.4 475.1,638.5C477.4,639.3 479.6,637.4 484.3,630.5C486.4,627.6 488.8,627.8 492.1,631.1C494.6,633.6 496.5,633.5 498.9,630.9C502,627.6 502.3,624.2 500.9,607.8C499.4,590.5 499.5,582.3 501,580.4C501.8,579.5 501.9,571.9 501.5,555.7L500.8,532.2L503.9,524.5C506.6,517.8 506.9,516.3 506,513.5C505.4,511.7 504.8,508.2 504.7,505.7C504.5,503.1 503.6,500.3 502.7,499.2C500.4,496.7 500.6,492.6 503,488.1C504.1,486.1 505.9,482.3 507,479.7C508.9,475 515,467.6 529.6,452C540.6,440.2 549.3,426 550.7,417.4C551.1,415 551.9,413.6 553.1,413.3C554.1,413 555.2,411.9 555.5,410.9C556.2,408.8 563.8,402 565.5,402C566.9,402 570.3,398.4 572,395.1C573.1,393 573,392.5 571.6,391.5C569.2,389.7 569.7,387.4 573.1,384.9C574.8,383.7 576.5,381.8 576.9,380.6C577.8,378.3 577.2,375.7 576,376.5C575.5,376.8 575.4,376.2 575.6,375.3C576.4,371.8 571.8,365.6 566.4,363C562.8,361.3 560.5,359.4 558.8,356.5C556.9,353.4 554.7,351.6 549.8,349.2C546.2,347.4 542.8,346 542.1,346C541.5,346 539.9,347.7 538.6,349.7ZM901.5,349.6C897.1,350.4 891,352.1 887.9,353.5C884.8,354.9 881.7,356 881.1,356C878.4,356 852.9,369.1 847.9,373C842.8,377 837,384.2 837,386.6C837,387.1 835.4,389.2 833.4,391.1C831.4,392.9 827.7,398.8 825,404C822.4,409.2 819,414.6 817.6,415.9C816.2,417.3 815,418.9 815,419.6C815,420.2 814.1,422.7 813,425.1C810.2,431.3 810.4,439.3 813.4,445.2C817.9,454.2 828.8,466.4 835.1,469.6C837.7,470.9 841.1,473.1 842.7,474.6C846.2,477.9 857.1,483 860.5,483C861.9,483 865,484 867.3,485.1C873.8,488.5 889.9,494.1 895.9,495.1C901.7,496.1 916.9,502.4 929,508.7L936.5,512.6L936.8,524.4C937.1,536.1 937,536.3 933.9,541.8C932.2,544.9 929.6,548.6 928.1,550C926.7,551.5 921.5,557.7 916.5,563.9C907.5,575.4 897.5,585.2 894.4,585.6C893.4,585.8 891.7,587.1 890.5,588.6C888.4,591.3 888.3,591.3 879.5,590.5C870.3,589.8 866.9,588.9 857.8,584.7C853.6,582.8 850,579.7 842.9,572.1C837.8,566.5 832.9,560.7 832.2,559.2C831.4,557.7 830,555.6 829,554.5C828,553.4 826.3,550.4 825.3,547.9C823,542.7 818.7,538 816.2,538C814.7,538 811.7,536.4 806.8,532.8C804.6,531.2 801.4,534 800.5,538.4C799.5,542.9 795.2,548.9 790.8,551.6C786.9,554.1 786.6,554.7 785.5,566.6C784.9,572.7 785,572.9 788.8,577.3C790.9,579.7 793.8,583.5 795,585.6C798.7,591.7 807.8,601.5 815.5,607.9C823,614.1 838,623.2 843.9,625.1C845.9,625.8 849.7,627.4 852.4,628.7C857.2,631.1 857.8,631.2 873.4,630.7C887.1,630.3 890.6,629.9 897,627.8C916.8,621.2 938,607.7 959.8,587.7C972.9,575.7 972.1,576.9 982.8,553.9C986,547 986.9,543.7 987.4,536.9C988.1,528.5 988.1,528.3 984.4,521C982.1,516.4 978.2,510.9 974,506.5C970.3,502.6 966.3,497.2 965.2,494.6C962.6,488.9 961.3,487.1 947.9,471.7C935.9,457.9 934.5,456.8 915,444.9C905.3,438.9 902.3,437.4 898,436.5C892.9,435.5 883.2,428.8 878,422.8C866.9,409.9 866.1,407.3 871.2,401.5C875,397.1 888.5,390.6 895.5,389.7C898.3,389.4 902.5,388.2 905,387.2C910.8,384.6 916.2,385 922.1,388.3C924.7,389.7 929.5,391.4 932.9,391.9C938.1,392.7 939.9,393.6 944.8,397.8C956.1,407.6 961.6,410.2 962.7,406.1C963.2,404.1 966.9,402.6 969.2,403.5C969.9,403.8 971.9,403.1 973.7,402C977.7,399.6 978.6,395.4 977,387.4C975.2,378.6 973,375.1 963.7,366.4C955.1,358.2 952.4,356.7 938,352.4C921.4,347.5 915.9,347 901.5,349.6Z"/>
        </g>
    </g>
</svg>
