<?xml version="1.0" standalone="no"?>
<!DOCTYPE svg PUBLIC "-//W3C//DTD SVG 20010904//EN"
 "http://www.w3.org/TR/2001/REC-SVG-20010904/DTD/svg10.dtd">
<svg version="1.0" xmlns="http://www.w3.org/2000/svg"
 width="1425.000000pt" height="1425.000000pt" viewBox="0 0 1425.000000 1425.000000"
 preserveAspectRatio="xMidYMid meet">
<metadata>
Created by potrace 1.14, written by Peter Selinger 2001-2017
</metadata>
<g transform="translate(0.000000,1425.000000) scale(0.100000,-0.100000)"
fill="#000000" stroke="none">
<path d="M7275 14004 c-27 -2 -108 -11 -180 -20 -89 -11 -163 -14 -235 -9 -58
3 -184 6 -280 6 -96 0 -251 -1 -345 -1 -93 0 -195 -5 -225 -10 -30 -5 -134
-14 -230 -20 -249 -14 -431 -30 -460 -40 -14 -5 -76 -29 -138 -55 -208 -84
-449 -144 -582 -145 -47 0 -101 -5 -120 -10 -19 -6 -121 -28 -226 -49 -120
-25 -219 -51 -265 -71 -41 -17 -129 -42 -195 -55 -128 -25 -196 -52 -214 -85
-6 -11 -17 -20 -24 -20 -22 0 -219 -105 -381 -203 -250 -151 -600 -419 -819
-626 -287 -272 -485 -453 -536 -491 -63 -47 -176 -168 -210 -225 -13 -22 -60
-78 -105 -125 -186 -195 -302 -347 -423 -555 -94 -163 -264 -516 -321 -668
-28 -74 -67 -172 -87 -218 -20 -46 -42 -101 -50 -122 -7 -20 -27 -58 -44 -82
-46 -67 -88 -162 -103 -235 -8 -36 -21 -78 -29 -95 -24 -46 -37 -101 -48 -208
-6 -62 -19 -119 -35 -157 -14 -33 -25 -70 -25 -83 0 -13 -16 -50 -36 -82 -25
-42 -39 -83 -49 -138 -9 -51 -23 -93 -41 -120 -19 -30 -31 -69 -45 -149 -10
-59 -21 -113 -25 -119 -3 -6 -12 -88 -20 -182 -17 -222 -40 -351 -70 -404 -14
-24 -24 -58 -24 -81 0 -21 -7 -80 -16 -131 -13 -76 -15 -157 -11 -479 5 -439
14 -526 87 -793 40 -147 50 -216 70 -474 38 -485 101 -716 362 -1345 61 -146
133 -319 160 -385 27 -66 58 -133 68 -150 10 -16 46 -93 80 -170 81 -185 128
-271 280 -510 144 -227 224 -368 269 -476 17 -41 48 -100 69 -131 82 -125 133
-196 189 -263 32 -38 70 -86 83 -105 13 -19 46 -60 74 -91 28 -31 60 -67 72
-80 95 -108 447 -423 561 -502 32 -22 79 -59 104 -81 26 -23 127 -91 224 -151
98 -60 218 -138 266 -174 80 -60 292 -199 517 -340 388 -244 438 -271 782
-429 185 -85 470 -202 493 -202 8 0 42 -12 77 -26 150 -61 293 -106 406 -129
67 -14 150 -38 187 -55 36 -16 95 -34 132 -40 37 -6 174 -37 305 -70 131 -32
274 -62 317 -66 43 -3 114 -14 158 -24 118 -28 385 -71 615 -101 180 -23 358
-6 640 60 221 51 471 75 965 91 252 8 285 12 490 49 295 54 726 162 841 210
27 11 76 28 109 37 33 9 67 20 75 24 8 5 80 36 160 70 220 94 355 173 627 366
61 43 176 115 254 159 129 73 256 150 334 205 17 11 115 77 218 145 104 69
228 156 275 193 48 37 117 89 154 115 86 61 165 137 458 447 133 140 262 274
286 297 24 23 44 50 44 59 0 8 26 52 59 97 143 199 270 437 351 657 15 41 49
134 75 205 26 72 58 154 71 184 13 29 24 59 24 65 0 6 34 88 76 181 93 208
149 351 159 402 4 21 21 81 37 133 32 100 104 366 138 510 11 47 29 112 40
145 11 33 24 81 30 107 12 56 54 395 70 563 29 314 85 706 130 922 16 72 18
102 10 140 -5 26 -14 462 -20 973 -10 934 -16 1079 -45 1160 -9 25 -21 74 -26
110 -5 36 -16 85 -24 110 -8 25 -19 95 -25 155 -16 165 -60 349 -155 650 -152
484 -201 590 -390 852 -39 54 -100 141 -135 193 -51 75 -129 160 -380 411
-315 316 -316 316 -411 362 -57 28 -129 75 -184 120 -159 130 -382 298 -567
427 -52 36 -198 117 -328 182 -129 65 -296 152 -370 194 -74 41 -158 86 -187
99 -28 13 -136 70 -240 128 -237 132 -526 276 -620 310 -40 15 -90 35 -110 45
-21 11 -62 27 -91 37 -29 9 -72 27 -95 40 -23 13 -80 33 -127 45 -47 11 -170
52 -275 90 -339 122 -725 238 -888 266 -49 8 -155 33 -235 54 -235 63 -299 70
-647 74 -170 2 -332 2 -360 0z m-330 -848 c198 -3 403 -9 455 -15 52 -6 176
-18 275 -26 393 -34 476 -49 745 -136 135 -44 322 -100 415 -124 94 -24 280
-80 415 -124 135 -44 301 -98 370 -121 69 -22 172 -57 230 -76 58 -20 117 -39
133 -41 15 -3 27 -9 27 -13 0 -5 10 -12 23 -16 45 -14 335 -148 442 -204 61
-32 148 -75 195 -96 97 -43 331 -175 435 -245 39 -25 153 -95 255 -154 244
-143 363 -225 565 -390 147 -119 248 -199 285 -224 19 -13 40 -29 45 -35 6 -6
34 -29 63 -50 63 -46 354 -368 407 -452 21 -32 55 -79 75 -104 41 -49 126
-191 265 -445 48 -88 91 -165 96 -171 17 -22 141 -262 205 -398 141 -299 257
-720 294 -1065 6 -57 22 -174 36 -259 30 -196 30 -232 -2 -307 -24 -54 -28
-82 -39 -280 -8 -121 -14 -278 -14 -350 -1 -136 -28 -393 -61 -580 -10 -60
-22 -130 -25 -155 -4 -25 -19 -103 -35 -175 -16 -71 -36 -177 -45 -235 -17
-103 -28 -136 -173 -516 -28 -72 -66 -162 -85 -200 -19 -38 -51 -112 -72 -164
-61 -153 -252 -525 -335 -650 -19 -30 -41 -66 -48 -80 -22 -43 -170 -273 -247
-383 -28 -40 -66 -97 -84 -127 -18 -30 -82 -120 -141 -200 -58 -80 -133 -183
-165 -230 -33 -47 -74 -103 -92 -126 -18 -23 -33 -45 -33 -51 0 -5 -12 -20
-26 -34 -14 -13 -38 -44 -52 -69 -89 -156 -265 -379 -515 -654 -67 -74 -151
-169 -187 -211 -36 -42 -90 -99 -120 -127 -30 -28 -75 -70 -100 -93 -73 -68
-291 -238 -345 -269 -27 -16 -70 -44 -94 -63 -24 -18 -52 -33 -62 -33 -10 0
-20 -4 -24 -10 -5 -9 -84 -53 -401 -224 -212 -114 -604 -275 -773 -317 -40
-11 -99 -30 -130 -43 -58 -25 -465 -158 -536 -175 -22 -5 -101 -17 -175 -26
-74 -9 -169 -23 -212 -30 -137 -25 -1197 -62 -1318 -46 -41 6 -185 17 -320 26
-135 8 -261 19 -280 25 -19 5 -53 10 -75 10 -22 0 -107 16 -190 36 -82 20
-177 40 -210 46 -33 5 -87 20 -120 33 -33 12 -94 26 -135 29 -79 8 -178 29
-220 48 -14 6 -43 14 -65 18 -22 4 -78 20 -125 35 -47 15 -124 37 -172 50 -48
13 -127 40 -175 60 -49 20 -155 66 -238 101 -82 35 -187 77 -233 93 -46 17
-122 52 -170 78 -48 26 -125 65 -171 86 -47 21 -110 58 -140 81 -31 24 -89 64
-129 90 -41 26 -126 86 -190 134 -64 48 -196 140 -292 204 -96 64 -243 172
-325 239 -83 68 -184 151 -225 184 -41 33 -115 101 -165 151 -144 145 -494
519 -602 644 -92 107 -299 376 -370 480 -45 68 -135 235 -173 324 -19 43 -63
129 -98 190 -99 171 -282 547 -334 686 -54 145 -99 285 -127 390 -34 133 -61
235 -67 254 -4 13 -3 16 6 11 10 -6 11 -4 4 6 -8 14 -21 56 -64 222 -24 90
-69 299 -80 372 -5 28 -17 102 -28 165 -41 235 -63 449 -72 700 -5 140 -12
323 -16 405 -6 150 15 539 35 637 5 23 18 88 29 143 11 55 25 113 31 129 6 15
23 85 36 154 32 159 137 488 225 702 37 91 91 230 120 310 30 80 85 217 123
305 38 88 79 189 92 225 33 95 55 135 133 235 219 283 653 733 872 903 110 85
207 170 350 307 63 61 153 142 200 181 102 85 343 255 495 349 61 37 131 83
156 101 43 32 379 213 580 314 110 56 322 146 365 155 16 4 65 19 109 35 44
15 116 35 160 45 44 9 109 27 146 40 131 46 579 155 784 190 115 20 214 39
219 42 14 9 392 19 596 16 102 -2 347 -5 545 -7z m1437 -12461 c2 -21 -119
-85 -191 -100 -104 -22 -347 -37 -471 -30 -151 8 -254 43 -210 70 6 4 156 15
333 25 306 18 496 35 506 46 8 8 32 0 33 -11z"/>
<path d="M5466 10899 c-42 -50 -90 -111 -106 -137 -33 -54 -95 -196 -116 -263
-8 -25 -67 -147 -131 -270 -103 -195 -127 -234 -188 -297 -77 -82 -110 -103
-140 -92 -27 10 -343 230 -426 296 -37 29 -113 82 -170 118 -57 36 -157 99
-223 141 -172 112 -204 126 -296 132 l-77 6 -48 -87 c-26 -48 -49 -104 -52
-125 -5 -34 0 -46 48 -112 83 -114 117 -142 246 -205 84 -41 135 -74 178 -114
195 -182 296 -263 410 -331 110 -64 165 -116 165 -155 0 -15 9 -84 19 -153 11
-69 27 -182 36 -251 9 -69 38 -217 65 -330 64 -271 90 -394 90 -428 0 -15 9
-35 19 -44 11 -9 22 -32 25 -50 3 -18 8 -49 11 -69 6 -41 37 -79 65 -79 10 0
38 22 61 50 23 28 48 50 54 50 7 0 24 -9 38 -20 32 -26 59 -25 83 1 20 23 22
50 17 344 -1 72 -1 254 1 405 4 273 4 275 31 340 26 62 27 67 15 140 -7 41
-18 87 -26 102 -22 43 -16 88 22 168 39 82 61 112 211 280 150 170 213 263
248 371 19 59 90 142 158 185 21 14 46 39 57 57 18 29 18 33 4 55 -15 23 -14
26 19 61 40 42 50 65 38 89 -5 9 -16 34 -24 54 -11 25 -35 50 -76 77 -33 23
-74 58 -91 80 -28 35 -75 65 -141 90 -24 9 -31 4 -103 -80z"/>
<path d="M9250 10955 c-188 -35 -496 -175 -601 -272 -31 -29 -64 -68 -73 -87
-9 -19 -32 -53 -51 -76 -19 -23 -52 -72 -72 -109 -20 -36 -54 -91 -74 -121
-42 -61 -79 -156 -79 -204 0 -171 235 -404 500 -497 166 -58 339 -117 415
-140 69 -20 308 -126 353 -155 21 -14 22 -21 22 -127 0 -97 -3 -119 -24 -163
-42 -90 -335 -427 -401 -461 -16 -8 -41 -26 -55 -38 -24 -22 -30 -22 -115 -15
-57 5 -117 18 -165 36 -63 24 -87 40 -158 108 -93 89 -174 192 -222 281 -39
73 -64 101 -97 110 -14 3 -42 17 -62 31 -56 38 -68 33 -102 -43 -20 -46 -46
-82 -80 -113 -55 -51 -68 -85 -69 -180 0 -53 3 -59 71 -150 77 -103 172 -206
240 -263 76 -61 214 -143 318 -187 l101 -42 178 4 c203 5 232 13 413 104 124
63 254 153 394 273 158 136 191 173 247 285 73 145 97 214 104 303 6 76 5 80
-29 146 -20 37 -65 102 -100 145 -35 42 -84 109 -108 149 -59 96 -245 311
-317 366 -92 70 -281 181 -360 211 -40 16 -99 48 -130 71 -54 41 -134 131
-160 182 -45 84 57 168 279 230 137 38 187 40 262 9 34 -13 87 -32 117 -40 38
-11 84 -38 148 -86 98 -73 129 -83 150 -50 8 13 23 20 43 20 82 0 119 58 99
157 -18 86 -56 148 -140 225 -86 80 -137 106 -284 147 -132 37 -227 45 -326
26z"/>
<path d="M12331 8886 c-37 -84 -38 -114 -8 -336 9 -63 23 -261 33 -440 14
-270 15 -357 5 -522 -18 -322 -17 -313 -156 -979 -18 -86 -49 -205 -68 -265
-20 -60 -48 -152 -62 -204 -32 -116 -52 -170 -116 -317 -27 -63 -54 -135 -59
-161 -13 -56 -133 -304 -200 -412 -26 -43 -73 -107 -103 -144 -64 -74 -79
-100 -100 -173 -17 -55 -77 -151 -137 -218 -20 -22 -78 -101 -128 -176 -97
-145 -200 -269 -298 -359 -75 -69 -427 -309 -548 -373 -110 -59 -633 -293
-696 -312 -25 -8 -83 -28 -130 -46 -47 -17 -121 -38 -165 -45 -258 -44 -457
-92 -650 -156 -49 -16 -126 -36 -170 -44 -44 -8 -107 -24 -140 -34 -50 -16
-223 -55 -400 -90 -22 -4 -67 -15 -100 -24 -41 -11 -101 -16 -195 -16 -84 0
-161 -6 -205 -16 -38 -8 -106 -21 -150 -29 -44 -7 -102 -19 -128 -25 -74 -19
-607 -7 -817 19 -91 11 -192 27 -225 37 -33 9 -89 22 -125 29 -70 14 -273 68
-438 117 -208 61 -572 211 -722 297 -8 4 -67 34 -130 66 -63 32 -158 86 -210
121 -52 34 -131 82 -175 105 -57 31 -110 72 -185 144 -209 200 -317 312 -372
386 -31 42 -100 129 -153 195 -53 65 -132 164 -175 219 -44 55 -101 125 -128
155 -54 61 -112 147 -156 230 -16 30 -34 62 -40 70 -7 8 -25 40 -41 70 -15 30
-47 82 -70 115 -78 110 -200 319 -234 400 -19 44 -61 126 -93 182 -39 70 -58
114 -58 137 0 47 -30 135 -84 245 -33 69 -46 107 -46 139 0 24 -11 76 -24 115
-13 40 -31 117 -41 172 -10 55 -23 109 -29 120 -6 11 -16 40 -22 65 -6 25 -23
85 -38 134 -17 59 -30 133 -36 215 -5 69 -14 185 -20 256 -6 72 -15 245 -20
385 -11 298 -18 347 -61 401 -30 38 -110 109 -122 109 -13 0 -86 -158 -115
-252 -30 -93 -32 -105 -43 -390 -6 -161 -8 -337 -5 -391 9 -148 43 -397 61
-447 9 -25 29 -97 46 -160 16 -63 40 -137 53 -165 13 -27 40 -103 60 -168 36
-121 137 -386 160 -422 7 -11 16 -33 20 -50 4 -16 29 -79 55 -140 27 -60 81
-198 120 -305 40 -107 98 -246 129 -309 92 -188 301 -489 567 -817 14 -18 25
-39 25 -49 0 -30 41 -75 139 -153 53 -42 209 -187 346 -322 371 -364 450 -427
705 -558 85 -44 204 -107 263 -140 185 -103 388 -190 650 -278 138 -46 266
-90 282 -98 17 -8 73 -23 125 -35 52 -11 145 -32 205 -46 61 -14 187 -39 280
-57 l170 -31 505 -5 c317 -2 564 0 664 7 168 12 424 49 566 81 47 11 193 38
325 60 210 35 636 134 683 159 10 5 98 39 197 76 160 59 203 71 395 105 281
50 367 71 492 120 133 53 348 179 558 329 142 100 360 344 481 537 24 38 77
112 119 164 42 52 87 111 100 130 13 19 63 85 111 145 47 61 107 142 131 180
55 85 333 623 349 674 6 20 17 50 24 66 7 17 25 73 40 125 14 52 43 149 65
215 21 66 46 145 54 175 8 30 37 129 64 220 27 91 55 199 62 240 9 56 19 83
40 107 21 24 34 56 50 130 19 87 43 179 86 323 7 25 16 65 19 90 4 25 14 57
21 72 8 16 19 76 25 135 5 60 12 115 14 123 16 57 26 370 15 520 -18 273 -58
642 -73 685 -8 22 -20 74 -27 115 -15 90 -26 113 -78 163 -39 38 -86 56 -148
57 -28 0 -33 -5 -63 -74z"/>
</g>
</svg>
