<svg width="100%" height="100%" viewBox="0 0 1171 1112" version="1.1" xmlns="http://www.w3.org/2000/svg" xmlns:xlink="http://www.w3.org/1999/xlink" xml:space="preserve" xmlns:serif="http://www.serif.com/" style="fill-rule:evenodd;clip-rule:evenodd;stroke-linejoin:round;stroke-miterlimit:2;">
    <g transform="matrix(1,0,0,1,-595.316,-557.916)">
        <path d="M918.326,645.125C829.393,638.769 691.884,796.735 655.655,863.156C625.088,919.194 606.619,980.368 599.175,1043.64C585.668,1158.46 608.453,1266.55 654.427,1371.47C772.311,1640.51 1035.36,1734.42 1303.94,1623.17C1413.12,1577.95 1512.55,1502.13 1592.48,1415.67C1640.57,1363.66 1690.11,1309.12 1723.86,1246.24C1789.78,1123.37 1772.51,963.945 1710.35,843.511C1641.84,710.764 1509.86,657.524 1378.84,608.998C1305.07,581.674 1230.98,552.906 1150.46,558.657C1043.96,566.265 922.853,611.521 853.333,694.945" />
    </g>
</svg>
