<svg viewBox="0 0 1171 1112" xmlns="http://www.w3.org/2000/svg" fill-rule="evenodd" clip-rule="evenodd" stroke-linejoin="round" stroke-miterlimit="2"><path d="M323.01 87.209C234.077 80.853 96.568 238.819 60.339 305.24c-30.567 56.038-49.036 117.212-56.48 180.484-13.507 114.82 9.278 222.91 55.252 327.83 117.884 269.04 380.933 362.95 649.513 251.7 109.18-45.22 208.61-121.04 288.54-207.5 48.09-52.01 97.63-106.55 131.38-169.43 65.92-122.87 48.65-282.295-13.51-402.729-68.51-132.747-200.49-185.987-331.51-234.513C709.754 23.758 635.664-5.01 555.144.741c-106.5 7.608-227.607 52.864-297.127 136.288"/></svg>